<?xml version="1.0" encoding="UTF-8" standalone="no"?><svg xmlns="http://www.w3.org/2000/svg" xmlns:xlink="http://www.w3.org/1999/xlink" contentScriptType="application/ecmascript" contentStyleType="text/css" height="323px" preserveAspectRatio="none" style="width:408px;height:323px;" version="1.1" viewBox="0 0 408 323" width="408px" zoomAndPan="magnify"><defs><filter height="300%" id="f8sqdcvhh3bhx" width="300%" x="-1" y="-1"><feGaussianBlur result="blurOut" stdDeviation="2.0"/><feColorMatrix in="blurOut" result="blurOut2" type="matrix" values="0 0 0 0 0 0 0 0 0 0 0 0 0 0 0 0 0 0 .4 0"/><feOffset dx="4.0" dy="4.0" in="blurOut2" result="blurOut3"/><feBlend in="SourceGraphic" in2="blurOut3" mode="normal"/></filter></defs><g><ellipse cx="130" cy="18" fill="#000000" filter="url(#f8sqdcvhh3bhx)" rx="10" ry="10" style="stroke: none; stroke-width: 1.0;"/><polygon fill="#FEFECE" filter="url(#f8sqdcvhh3bhx)" points="130,87,142,99,130,111,118,99,130,87" style="stroke: #A80036; stroke-width: 1.5;"/><rect fill="#FEFECE" filter="url(#f8sqdcvhh3bhx)" height="34.1328" rx="12.5" ry="12.5" style="stroke: #A80036; stroke-width: 1.5;" width="215" x="182.5" y="82"/><text fill="#000000" font-family="sans-serif" font-size="12" lengthAdjust="spacingAndGlyphs" textLength="195" x="192.5" y="103.6016">Create value according to schema</text><rect fill="#FEFECE" filter="url(#f8sqdcvhh3bhx)" height="34.1328" rx="12.5" ry="12.5" style="stroke: #A80036; stroke-width: 1.5;" width="118" x="224" y="170"/><text fill="#000000" font-family="sans-serif" font-size="12" lengthAdjust="spacingAndGlyphs" textLength="98" x="234" y="191.6016">Store value in file</text><rect fill="#FEFECE" filter="url(#f8sqdcvhh3bhx)" height="34.1328" rx="12.5" ry="12.5" style="stroke: #A80036; stroke-width: 1.5;" width="89" x="180.5" y="278"/><text fill="#000000" font-family="sans-serif" font-size="12" lengthAdjust="spacingAndGlyphs" textLength="69" x="190.5" y="299.6016">return value</text><rect fill="#FEFECE" filter="url(#f8sqdcvhh3bhx)" height="34.1328" rx="12.5" ry="12.5" style="stroke: #A80036; stroke-width: 1.5;" width="157" x="99.5" y="224"/><text fill="#000000" font-family="sans-serif" font-size="12" lengthAdjust="spacingAndGlyphs" textLength="137" x="109.5" y="245.6016">Recreate value from file</text><ellipse cx="300" cy="295" fill="none" filter="url(#f8sqdcvhh3bhx)" rx="10" ry="10" style="stroke: #000000; stroke-width: 1.0;"/><ellipse cx="300.5" cy="295.5" fill="#000000" rx="6" ry="6" style="stroke: none; stroke-width: 1.0;"/><!--link start to #93--><path d="M130,28.2587 C130,41.7215 130,65.5425 130,81.7893 " fill="none" id="start-#93" style="stroke: #A80036; stroke-width: 1.0;"/><polygon fill="#A80036" points="130,86.9828,134,77.9828,130,81.9828,126,77.9828,130,86.9828" style="stroke: #A80036; stroke-width: 1.0;"/><text fill="#000000" font-family="sans-serif" font-size="11" lengthAdjust="spacingAndGlyphs" textLength="160" x="131" y="59.6348">StoringGenerator::nextValue()</text><text fill="#000000" font-family="sans-serif" font-size="11" lengthAdjust="spacingAndGlyphs" textLength="109" x="0.9031" y="79.1498">instance is Recorder</text><!--link #93 to Create value according to schema--><path d="M142.026,99 C150.5699,99 162.9918,99 177.0603,99 " fill="none" id="#93-Create value according to schema" style="stroke: #A80036; stroke-width: 1.0;"/><polygon fill="#A80036" points="182.3139,99,173.3139,95,177.3139,99,173.3139,103,182.3139,99" style="stroke: #A80036; stroke-width: 1.0;"/><text fill="#000000" font-family="sans-serif" font-size="11" lengthAdjust="spacingAndGlyphs" textLength="19" x="152.75" y="93.6348">Yes</text><!--link Create value according to schema to Store value in file--><path d="M288.617,116.386 C287.517,130.2154 285.97,149.6635 284.7779,164.6491 " fill="none" id="Create value according to schema-Store value in file" style="stroke: #A80036; stroke-width: 1.0;"/><polygon fill="#A80036" points="284.3563,169.9496,289.0575,161.2952,284.7529,164.9654,281.0827,160.6607,284.3563,169.9496" style="stroke: #A80036; stroke-width: 1.0;"/><!--link Store value in file to return value--><path d="M281.7668,204.134 C280.0393,219.2215 275.9008,241.3254 266,258 C262.4893,263.9126 257.7277,269.4164 252.6918,274.2762 " fill="none" id="Store value in file-return value" style="stroke: #A80036; stroke-width: 1.0;"/><polygon fill="#A80036" points="248.8034,277.8632,258.1308,274.7008,252.4785,274.473,252.7064,268.8207,248.8034,277.8632" style="stroke: #A80036; stroke-width: 1.0;"/><!--link #93 to Recreate value from file--><path d="M133.1494,108.317 C140.6725,130.573 159.8558,187.3233 170.5362,218.9195 " fill="none" id="#93-Recreate value from file" style="stroke: #A80036; stroke-width: 1.0;"/><polygon fill="#A80036" points="172.1742,223.7654,173.0815,213.9584,170.5731,219.0287,165.5028,216.5202,172.1742,223.7654" style="stroke: #A80036; stroke-width: 1.0;"/><text fill="#000000" font-family="sans-serif" font-size="11" lengthAdjust="spacingAndGlyphs" textLength="15" x="148" y="147.6348">No</text><!--link Recreate value from file to return value--><path d="M192.8711,258.0859 C197.243,263.109 202.0776,268.6636 206.6403,273.9059 " fill="none" id="Recreate value from file-return value" style="stroke: #A80036; stroke-width: 1.0;"/><polygon fill="#A80036" points="210.0643,277.8399,207.1729,268.425,206.7817,274.0683,201.1384,273.6771,210.0643,277.8399" style="stroke: #A80036; stroke-width: 1.0;"/><!--link return value to end--><path d="M269.5313,295 C274.4259,295 279.3205,295 284.2152,295 " fill="none" id="return value-end" style="stroke: #A80036; stroke-width: 1.0;"/><polygon fill="#A80036" points="289.5264,295,280.5264,291,284.5264,295,280.5264,299,289.5264,295" style="stroke: #A80036; stroke-width: 1.0;"/><!--
@startuml
(*)  - -> [StoringGenerator::nextValue()] if "instance is Recorder"
-> [Yes] "Create value according to schema"
- -> "Store value in file"
- -> "return value"
else
- -> [No] "Recreate value from file"
-> "return value"
endif
->(*)
@enduml

PlantUML version 1.2018.01(Sun Jan 28 19:08:22 CET 2018)
(GPL source distribution)
Java Runtime: OpenJDK Runtime Environment
JVM: OpenJDK 64-Bit Server VM
Java Version: 1.8.0_152-release-1136-b20
Operating System: Mac OS X
OS Version: 10.13.4
Default Encoding: UTF-8
Language: en
Country: DE
--></g></svg>