<?xml version="1.0" encoding="UTF-8" standalone="no"?><svg xmlns="http://www.w3.org/2000/svg" xmlns:xlink="http://www.w3.org/1999/xlink" contentScriptType="application/ecmascript" contentStyleType="text/css" height="1498px" preserveAspectRatio="none" style="width:772px;height:1498px;" version="1.1" viewBox="0 0 772 1498" width="772px" zoomAndPan="magnify"><defs><filter height="300%" id="f1ujwnzh6ljfmj" width="300%" x="-1" y="-1"><feGaussianBlur result="blurOut" stdDeviation="2.0"/><feColorMatrix in="blurOut" result="blurOut2" type="matrix" values="0 0 0 0 0 0 0 0 0 0 0 0 0 0 0 0 0 0 .4 0"/><feOffset dx="4.0" dy="4.0" in="blurOut2" result="blurOut3"/><feBlend in="SourceGraphic" in2="blurOut3" mode="normal"/></filter></defs><g><ellipse cx="16" cy="20" fill="#000000" filter="url(#f1ujwnzh6ljfmj)" rx="10" ry="10" style="stroke: none; stroke-width: 1.0;"/><polygon fill="#FEFECE" filter="url(#f1ujwnzh6ljfmj)" points="134,8,146,20,134,32,122,20,134,8" style="stroke: #A80036; stroke-width: 1.5;"/><rect fill="#FEFECE" filter="url(#f1ujwnzh6ljfmj)" height="34.1328" rx="12.5" ry="12.5" style="stroke: #A80036; stroke-width: 1.5;" width="101" x="32.5" y="130"/><text fill="#000000" font-family="sans-serif" font-size="12" lengthAdjust="spacingAndGlyphs" textLength="81" x="42.5" y="151.6016">create Factory</text><rect fill="#FEFECE" filter="url(#f1ujwnzh6ljfmj)" height="34.1328" rx="12.5" ry="12.5" style="stroke: #A80036; stroke-width: 1.5;" width="182" x="202" y="1043"/><text fill="#000000" font-family="sans-serif" font-size="12" lengthAdjust="spacingAndGlyphs" textLength="162" x="212" y="1064.6016">Reset parameters if needed</text><polygon fill="#FEFECE" filter="url(#f1ujwnzh6ljfmj)" points="172,86,184,98,172,110,160,98,172,86" style="stroke: #A80036; stroke-width: 1.5;"/><rect fill="#FEFECE" filter="url(#f1ujwnzh6ljfmj)" height="34.1328" rx="12.5" ry="12.5" style="stroke: #A80036; stroke-width: 1.5;" width="173" x="85.5" y="228"/><text fill="#000000" font-family="sans-serif" font-size="12" lengthAdjust="spacingAndGlyphs" textLength="153" x="95.5" y="249.6016">create Machine with edges</text><polygon fill="#FEFECE" filter="url(#f1ujwnzh6ljfmj)" points="284,184,296,196,284,208,272,196,284,184" style="stroke: #A80036; stroke-width: 1.5;"/><rect fill="#FEFECE" filter="url(#f1ujwnzh6ljfmj)" height="34.1328" rx="12.5" ry="12.5" style="stroke: #A80036; stroke-width: 1.5;" width="166" x="162" y="326"/><text fill="#000000" font-family="sans-serif" font-size="12" lengthAdjust="spacingAndGlyphs" textLength="146" x="172" y="347.6016">create Orders with edges</text><polygon fill="#FEFECE" filter="url(#f1ujwnzh6ljfmj)" points="353,282,365,294,353,306,341,294,353,282" style="stroke: #A80036; stroke-width: 1.5;"/><rect fill="#FEFECE" filter="url(#f1ujwnzh6ljfmj)" height="34.1328" rx="12.5" ry="12.5" style="stroke: #A80036; stroke-width: 1.5;" width="165" x="205.5" y="424"/><text fill="#000000" font-family="sans-serif" font-size="12" lengthAdjust="spacingAndGlyphs" textLength="145" x="215.5" y="445.6016">create Design with edges</text><polygon fill="#FEFECE" filter="url(#f1ujwnzh6ljfmj)" points="396,380,408,392,396,404,384,392,396,380" style="stroke: #A80036; stroke-width: 1.5;"/><rect fill="#FEFECE" filter="url(#f1ujwnzh6ljfmj)" height="34.1328" rx="12.5" ry="12.5" style="stroke: #A80036; stroke-width: 1.5;" width="187" x="246.5" y="522"/><text fill="#000000" font-family="sans-serif" font-size="12" lengthAdjust="spacingAndGlyphs" textLength="167" x="256.5" y="543.6016">create new Order with edges</text><polygon fill="#FEFECE" filter="url(#f1ujwnzh6ljfmj)" points="459,478,471,490,459,502,447,490,459,478" style="stroke: #A80036; stroke-width: 1.5;"/><rect fill="#FEFECE" filter="url(#f1ujwnzh6ljfmj)" height="34.1328" rx="12.5" ry="12.5" style="stroke: #A80036; stroke-width: 1.5;" width="170" x="288" y="620"/><text fill="#000000" font-family="sans-serif" font-size="12" lengthAdjust="spacingAndGlyphs" textLength="150" x="298" y="641.6016">create Product with edges</text><polygon fill="#FEFECE" filter="url(#f1ujwnzh6ljfmj)" points="505,576,517,588,505,600,493,588,505,576" style="stroke: #A80036; stroke-width: 1.5;"/><rect fill="#FEFECE" filter="url(#f1ujwnzh6ljfmj)" height="34.1328" rx="12.5" ry="12.5" style="stroke: #A80036; stroke-width: 1.5;" width="153" x="335.5" y="718"/><text fill="#000000" font-family="sans-serif" font-size="12" lengthAdjust="spacingAndGlyphs" textLength="133" x="345.5" y="739.6016">create Date with edges</text><polygon fill="#FEFECE" filter="url(#f1ujwnzh6ljfmj)" points="526,674,538,686,526,698,514,686,526,674" style="stroke: #A80036; stroke-width: 1.5;"/><rect fill="#FEFECE" filter="url(#f1ujwnzh6ljfmj)" height="34.1328" rx="12.5" ry="12.5" style="stroke: #A80036; stroke-width: 1.5;" width="192" x="372" y="816"/><text fill="#000000" font-family="sans-serif" font-size="12" lengthAdjust="spacingAndGlyphs" textLength="172" x="382" y="837.6016">create Component with edges</text><polygon fill="#FEFECE" filter="url(#f1ujwnzh6ljfmj)" points="589,772,601,784,589,796,577,784,589,772" style="stroke: #A80036; stroke-width: 1.5;"/><rect fill="#FEFECE" filter="url(#f1ujwnzh6ljfmj)" height="34.1328" rx="12.5" ry="12.5" style="stroke: #A80036; stroke-width: 1.5;" width="157" x="436.5" y="914"/><text fill="#000000" font-family="sans-serif" font-size="12" lengthAdjust="spacingAndGlyphs" textLength="137" x="446.5" y="935.6016">create Tests with edges</text><polygon fill="#FEFECE" filter="url(#f1ujwnzh6ljfmj)" points="632,870,644,882,632,894,620,882,632,870" style="stroke: #A80036; stroke-width: 1.5;"/><rect fill="#FEFECE" filter="url(#f1ujwnzh6ljfmj)" height="34.1328" rx="12.5" ry="12.5" style="stroke: #A80036; stroke-width: 1.5;" width="211" x="511.5" y="968"/><text fill="#000000" font-family="sans-serif" font-size="12" lengthAdjust="spacingAndGlyphs" textLength="191" x="521.5" y="989.6016">create TestParameter with edges</text><polygon fill="#FEFECE" filter="url(#f1ujwnzh6ljfmj)" points="293,1118,305,1130,293,1142,281,1130,293,1118" style="stroke: #A80036; stroke-width: 1.5;"/><rect fill="#FEFECE" filter="url(#f1ujwnzh6ljfmj)" height="34.1328" rx="12.5" ry="12.5" style="stroke: #A80036; stroke-width: 1.5;" width="200" x="150" y="1240"/><text fill="#000000" font-family="sans-serif" font-size="12" lengthAdjust="spacingAndGlyphs" textLength="180" x="160" y="1261.6016">Reset everything for new Order</text><ellipse cx="461" cy="1477" fill="none" filter="url(#f1ujwnzh6ljfmj)" rx="10" ry="10" style="stroke: #000000; stroke-width: 1.0;"/><ellipse cx="461.5" cy="1477.5" fill="#000000" rx="6" ry="6" style="stroke: none; stroke-width: 1.0;"/><polygon fill="#FEFECE" filter="url(#f1ujwnzh6ljfmj)" points="375,1196,387,1208,375,1220,363,1208,375,1196" style="stroke: #A80036; stroke-width: 1.5;"/><rect fill="#FEFECE" filter="url(#f1ujwnzh6ljfmj)" height="34.1328" rx="12.5" ry="12.5" style="stroke: #A80036; stroke-width: 1.5;" width="210" x="266" y="1338"/><text fill="#000000" font-family="sans-serif" font-size="12" lengthAdjust="spacingAndGlyphs" textLength="190" x="276" y="1359.6016">Reset everything for new Product</text><polygon fill="#FEFECE" filter="url(#f1ujwnzh6ljfmj)" points="492,1294,504,1306,492,1318,480,1306,492,1294" style="stroke: #A80036; stroke-width: 1.5;"/><rect fill="#FEFECE" filter="url(#f1ujwnzh6ljfmj)" height="34.1328" rx="12.5" ry="12.5" style="stroke: #A80036; stroke-width: 1.5;" width="232" x="529" y="1392"/><text fill="#000000" font-family="sans-serif" font-size="12" lengthAdjust="spacingAndGlyphs" textLength="212" x="539" y="1413.6016">Reset everything for new Component</text><!--link start to #34798--><path d="M26.0606,20 C46.1648,20 91.5179,20 116.5638,20 " fill="none" id="start-#34798" style="stroke: #A80036; stroke-width: 1.0;"/><polygon fill="#A80036" points="121.8783,20,112.8783,16,116.8783,20,112.8783,24,121.8783,20" style="stroke: #A80036; stroke-width: 1.0;"/><text fill="#000000" font-family="sans-serif" font-size="11" lengthAdjust="spacingAndGlyphs" textLength="74" x="37" y="14.6348">createGraph()</text><text fill="#000000" font-family="sans-serif" font-size="11" lengthAdjust="spacingAndGlyphs" textLength="84" x="29.9292" y="31.5862">Factory present</text><!--link #34798 to create Factory--><path d="M130.4946,28.7292 C122.5807,48.4363 103.133,96.8649 91.7282,125.265 " fill="none" id="#34798-create Factory" style="stroke: #A80036; stroke-width: 1.0;"/><polygon fill="#A80036" points="89.8334,129.9834,96.8992,123.1223,91.6967,125.3436,89.4754,120.141,89.8334,129.9834" style="stroke: #A80036; stroke-width: 1.0;"/><text fill="#000000" font-family="sans-serif" font-size="11" lengthAdjust="spacingAndGlyphs" textLength="15" x="122" y="63.6348">No</text><!--link create Factory to Reset parameters if needed--><path d="M79.0256,164.2422 C74.8866,183.7338 69,216.4702 69,245 C69,245 69,245 69,985 C69,1013.7204 136.052,1033.4643 196.7852,1045.457 " fill="none" id="create Factory-Reset parameters if needed" style="stroke: #A80036; stroke-width: 1.0;"/><polygon fill="#A80036" points="201.8906,1046.45,193.8201,1040.8049,196.9826,1045.4951,192.2924,1048.6576,201.8906,1046.45" style="stroke: #A80036; stroke-width: 1.0;"/><!--link #34798 to #34805--><path d="M138.0667,28.3474 C144.6602,41.8815 157.7355,68.7202 165.5902,84.8431 " fill="none" id="#34798-#34805" style="stroke: #A80036; stroke-width: 1.0;"/><polygon fill="#A80036" points="167.8474,89.4762,167.5017,79.6334,165.6576,84.9812,160.3097,83.1371,167.8474,89.4762" style="stroke: #A80036; stroke-width: 1.0;"/><text fill="#000000" font-family="sans-serif" font-size="11" lengthAdjust="spacingAndGlyphs" textLength="19" x="157" y="63.6348">Yes</text><text fill="#000000" font-family="sans-serif" font-size="11" lengthAdjust="spacingAndGlyphs" textLength="88" x="63.8969" y="83.4581">Machine present</text><!--link #34805 to create Machine with edges--><path d="M172,110.0296 C172,134.6613 172,191.1678 172,222.6978 " fill="none" id="#34805-create Machine with edges" style="stroke: #A80036; stroke-width: 1.0;"/><polygon fill="#A80036" points="172,227.9081,176,218.9081,172,222.9081,168,218.9081,172,227.9081" style="stroke: #A80036; stroke-width: 1.0;"/><text fill="#000000" font-family="sans-serif" font-size="11" lengthAdjust="spacingAndGlyphs" textLength="15" x="173" y="151.6348">No</text><!--link create Machine with edges to Reset parameters if needed--><path d="M164.4797,262.3358 C156.8009,281.6402 146,313.9559 146,343 C146,343 146,343 146,985 C146,1014.115 169.1636,1031.9333 197.1008,1042.8358 " fill="none" id="create Machine with edges-Reset parameters if needed" style="stroke: #A80036; stroke-width: 1.0;"/><polygon fill="#A80036" points="201.9937,1044.6593,194.9572,1037.7681,197.3085,1042.9132,192.1635,1045.2645,201.9937,1044.6593" style="stroke: #A80036; stroke-width: 1.0;"/><!--link #34805 to #34811--><path d="M178.6707,103.8369 C197.4681,120.2846 250.9735,167.1018 273.6454,186.9397 " fill="none" id="#34805-#34811" style="stroke: #A80036; stroke-width: 1.0;"/><polygon fill="#A80036" points="277.5046,190.3165,273.3653,181.3797,273.7417,187.024,268.0974,187.4004,277.5046,190.3165" style="stroke: #A80036; stroke-width: 1.0;"/><text fill="#000000" font-family="sans-serif" font-size="11" lengthAdjust="spacingAndGlyphs" textLength="19" x="245" y="151.6348">Yes</text><text fill="#000000" font-family="sans-serif" font-size="11" lengthAdjust="spacingAndGlyphs" textLength="82" x="182.1465" y="185.7996">Orders present</text><!--link #34811 to create Orders with edges--><path d="M281.4411,205.6451 C275.2964,228.8059 259.5779,288.0527 250.9279,320.6563 " fill="none" id="#34811-create Orders with edges" style="stroke: #A80036; stroke-width: 1.0;"/><polygon fill="#A80036" points="249.6029,325.6506,255.7773,317.9774,250.8852,320.8178,248.0448,315.9258,249.6029,325.6506" style="stroke: #A80036; stroke-width: 1.0;"/><text fill="#000000" font-family="sans-serif" font-size="11" lengthAdjust="spacingAndGlyphs" textLength="15" x="275" y="249.6348">No</text><!--link create Orders with edges to Reset parameters if needed--><path d="M227.5884,360.0386 C210.8257,378.3397 188,409.1144 188,441 C188,441 188,441 188,985 C188,1011.0422 209.6519,1028.8984 233.2913,1040.6331 " fill="none" id="create Orders with edges-Reset parameters if needed" style="stroke: #A80036; stroke-width: 1.0;"/><polygon fill="#A80036" points="238.0399,1042.899,231.6401,1035.4129,233.5274,1040.7456,228.1946,1042.6329,238.0399,1042.899" style="stroke: #A80036; stroke-width: 1.0;"/><!--link #34811 to #34817--><path d="M288.9623,203.0479 C300.7407,219.7767 330.4742,262.0068 344.9004,282.4962 " fill="none" id="#34811-#34817" style="stroke: #A80036; stroke-width: 1.0;"/><polygon fill="#A80036" points="347.8965,286.7515,345.9859,277.0897,345.018,282.6632,339.4446,281.6953,347.8965,286.7515" style="stroke: #A80036; stroke-width: 1.0;"/><text fill="#000000" font-family="sans-serif" font-size="11" lengthAdjust="spacingAndGlyphs" textLength="19" x="329" y="249.6348">Yes</text><text fill="#000000" font-family="sans-serif" font-size="11" lengthAdjust="spacingAndGlyphs" textLength="81" x="251.7903" y="281.1559">Design present</text><!--link #34817 to create Design with edges--><path d="M350.0755,303.1011 C345.8585,315.9558 337.6244,340.0848 329,360 C320.1451,380.4476 308.5663,403.0141 299.9728,419.123 " fill="none" id="#34817-create Design with edges" style="stroke: #A80036; stroke-width: 1.0;"/><polygon fill="#A80036" points="297.4079,423.9056,305.1865,417.8647,299.771,419.4993,298.1364,414.0837,297.4079,423.9056" style="stroke: #A80036; stroke-width: 1.0;"/><text fill="#000000" font-family="sans-serif" font-size="11" lengthAdjust="spacingAndGlyphs" textLength="15" x="342" y="347.6348">No</text><!--link create Design with edges to Reset parameters if needed--><path d="M269.9664,458.3205 C252.9403,476.6147 230,507.1698 230,539 C230,539 230,539 230,985 C230,1007.2606 246.4733,1026.3663 262.5726,1039.7229 " fill="none" id="create Design with edges-Reset parameters if needed" style="stroke: #A80036; stroke-width: 1.0;"/><polygon fill="#A80036" points="266.6474,1042.9932,262.1323,1034.2403,262.748,1039.8635,257.1248,1040.4793,266.6474,1042.9932" style="stroke: #A80036; stroke-width: 1.0;"/><!--link #34817 to #34823--><path d="M357.9414,301.4105 C362.0417,307.7601 367.8519,317.241 372,326 C380.1082,343.121 387.215,363.7717 391.5491,377.3607 " fill="none" id="#34817-#34823" style="stroke: #A80036; stroke-width: 1.0;"/><polygon fill="#A80036" points="393.1244,382.3741,394.2425,372.5889,391.6255,377.604,386.6104,374.9871,393.1244,382.3741" style="stroke: #A80036; stroke-width: 1.0;"/><text fill="#000000" font-family="sans-serif" font-size="11" lengthAdjust="spacingAndGlyphs" textLength="19" x="386" y="347.6348">Yes</text><text fill="#000000" font-family="sans-serif" font-size="11" lengthAdjust="spacingAndGlyphs" textLength="75" x="301.4695" y="374.7602">Order fulfilled</text><!--link #34823 to create new Order with edges--><path d="M392.817,400.9961 C388.2928,413.7262 379.6961,437.708 372,458 C364.371,478.115 355.3375,500.8915 348.8172,517.1575 " fill="none" id="#34823-create new Order with edges" style="stroke: #A80036; stroke-width: 1.0;"/><polygon fill="#A80036" points="346.8787,521.9864,353.9436,515.1244,348.7414,517.3463,346.5195,512.1441,346.8787,521.9864" style="stroke: #A80036; stroke-width: 1.0;"/><text fill="#000000" font-family="sans-serif" font-size="11" lengthAdjust="spacingAndGlyphs" textLength="19" x="385" y="445.6348">Yes</text><!--link create new Order with edges to Reset parameters if needed--><path d="M318.4844,556.0295 C298.5625,573.8685 272,603.8663 272,637 C272,637 272,637 272,985 C272,1003.344 277.8975,1023.3082 283.4419,1038.0237 " fill="none" id="create new Order with edges-Reset parameters if needed" style="stroke: #A80036; stroke-width: 1.0;"/><polygon fill="#A80036" points="285.2996,1042.8031,285.767,1032.9653,283.488,1038.1428,278.3106,1035.8639,285.2996,1042.8031" style="stroke: #A80036; stroke-width: 1.0;"/><!--link #34823 to #34829--><path d="M401.9303,398.6052 C407.4435,404.9004 415.7258,414.7625 422,424 C433.9635,441.614 445.6108,463.3828 452.546,476.9832 " fill="none" id="#34823-#34829" style="stroke: #A80036; stroke-width: 1.0;"/><polygon fill="#A80036" points="454.8797,481.6015,454.3905,471.7648,452.6246,477.1389,447.2504,475.373,454.8797,481.6015" style="stroke: #A80036; stroke-width: 1.0;"/><text fill="#000000" font-family="sans-serif" font-size="11" lengthAdjust="spacingAndGlyphs" textLength="15" x="443" y="445.6348">No</text><text fill="#000000" font-family="sans-serif" font-size="11" lengthAdjust="spacingAndGlyphs" textLength="88" x="350.9399" y="475.6249">Product finished</text><!--link #34829 to create Product with edges--><path d="M456.4533,499.7936 C452.7858,513.0415 445.3073,537.179 435,556 C423.002,577.908 405.4042,600.2635 392.0192,615.9229 " fill="none" id="#34829-create Product with edges" style="stroke: #A80036; stroke-width: 1.0;"/><polygon fill="#A80036" points="388.713,619.7555,397.6205,615.5535,391.979,615.9695,391.563,610.328,388.713,619.7555" style="stroke: #A80036; stroke-width: 1.0;"/><text fill="#000000" font-family="sans-serif" font-size="11" lengthAdjust="spacingAndGlyphs" textLength="19" x="450" y="543.6348">Yes</text><!--link create Product with edges to Reset parameters if needed--><path d="M354.6554,654.2613 C337.3359,672.5084 314,703.0265 314,735 C314,735 314,735 314,985 C314,1003.344 308.1025,1023.3082 302.5581,1038.0237 " fill="none" id="create Product with edges-Reset parameters if needed" style="stroke: #A80036; stroke-width: 1.0;"/><polygon fill="#A80036" points="300.7004,1042.8031,307.6894,1035.8639,302.512,1038.1428,300.233,1032.9653,300.7004,1042.8031" style="stroke: #A80036; stroke-width: 1.0;"/><!--link #34829 to #34835--><path d="M464.6197,497.0419 C469.4323,503.3164 476.3086,512.8894 481,522 C489.6727,538.8421 496.6587,559.5525 500.8107,573.2314 " fill="none" id="#34829-#34835" style="stroke: #A80036; stroke-width: 1.0;"/><polygon fill="#A80036" points="502.3117,578.2816,503.5817,568.515,500.8872,573.4888,495.9133,570.7942,502.3117,578.2816" style="stroke: #A80036; stroke-width: 1.0;"/><text fill="#000000" font-family="sans-serif" font-size="11" lengthAdjust="spacingAndGlyphs" textLength="15" x="496" y="543.6348">No</text><text fill="#000000" font-family="sans-serif" font-size="11" lengthAdjust="spacingAndGlyphs" textLength="60" x="424.7417" y="568.7244">Date added</text><!--link #34835 to create Date with edges--><path d="M500.2603,595.4918 C486.5865,617.1053 446.6978,680.1551 425.5413,713.5961 " fill="none" id="#34835-create Date with edges" style="stroke: #A80036; stroke-width: 1.0;"/><polygon fill="#A80036" points="422.8089,717.9149,431.001,712.4478,425.4821,713.6895,424.2405,708.1706,422.8089,717.9149" style="stroke: #A80036; stroke-width: 1.0;"/><text fill="#000000" font-family="sans-serif" font-size="11" lengthAdjust="spacingAndGlyphs" textLength="15" x="484" y="641.6348">No</text><!--link create Date with edges to Reset parameters if needed--><path d="M394.8939,752.0955 C378.4253,770.4429 356,801.2549 356,833 C356,833 356,833 356,985 C356,1007.2606 339.5267,1026.3663 323.4274,1039.7229 " fill="none" id="create Date with edges-Reset parameters if needed" style="stroke: #A80036; stroke-width: 1.0;"/><polygon fill="#A80036" points="319.3526,1042.9932,328.8752,1040.4793,323.252,1039.8635,323.8677,1034.2403,319.3526,1042.9932" style="stroke: #A80036; stroke-width: 1.0;"/><!--link #34835 to #34841--><path d="M507.1683,598.1186 C510.8815,615.447 518.4746,650.8816 522.7989,671.0617 " fill="none" id="#34835-#34841" style="stroke: #A80036; stroke-width: 1.0;"/><polygon fill="#A80036" points="523.8748,676.0824,525.9001,666.444,522.8271,671.1934,518.0777,668.1204,523.8748,676.0824" style="stroke: #A80036; stroke-width: 1.0;"/><text fill="#000000" font-family="sans-serif" font-size="11" lengthAdjust="spacingAndGlyphs" textLength="19" x="519" y="641.6348">Yes</text><text fill="#000000" font-family="sans-serif" font-size="11" lengthAdjust="spacingAndGlyphs" textLength="99" x="407.1286" y="669.4096">Component tested</text><!--link #34841 to create Component with edges--><path d="M522.5455,694.7553 C513.6563,717.2848 489.779,777.8016 476.7593,810.7998 " fill="none" id="#34841-create Component with edges" style="stroke: #A80036; stroke-width: 1.0;"/><polygon fill="#A80036" points="474.7668,815.8495,481.7908,808.9457,476.6019,811.1984,474.3492,806.0095,474.7668,815.8495" style="stroke: #A80036; stroke-width: 1.0;"/><text fill="#000000" font-family="sans-serif" font-size="11" lengthAdjust="spacingAndGlyphs" textLength="19" x="513" y="739.6348">Yes</text><!--link create Component with edges to Reset parameters if needed--><path d="M459.3552,850.0632 C451.0533,866.4533 438.1614,891.9148 427,914 C402.525,962.429 410.9272,985.1969 372,1023 C364.8105,1029.9819 356.0595,1035.8265 347.0345,1040.6552 " fill="none" id="create Component with edges-Reset parameters if needed" style="stroke: #A80036; stroke-width: 1.0;"/><polygon fill="#A80036" points="342.5877,1042.9446,352.4204,1042.381,347.0331,1040.6558,348.7583,1035.2684,342.5877,1042.9446" style="stroke: #A80036; stroke-width: 1.0;"/><!--link #34841 to #34847--><path d="M530.9885,693.0535 C535.511,699.4953 542.3182,709.3103 548,718 C560.0973,736.5016 573.5075,758.3612 581.5926,771.6982 " fill="none" id="#34841-#34847" style="stroke: #A80036; stroke-width: 1.0;"/><polygon fill="#A80036" points="584.3181,776.2042,583.0826,766.4331,581.7303,771.926,576.2374,770.5737,584.3181,776.2042" style="stroke: #A80036; stroke-width: 1.0;"/><text fill="#000000" font-family="sans-serif" font-size="11" lengthAdjust="spacingAndGlyphs" textLength="15" x="569" y="739.6348">No</text><text fill="#000000" font-family="sans-serif" font-size="11" lengthAdjust="spacingAndGlyphs" textLength="65" x="503.9806" y="769.3452">Tests added</text><!--link #34847 to create Tests with edges--><path d="M586.1732,793.6492 C582.1882,806.7335 574.3512,830.6861 565,850 C554.7968,871.0738 540.5726,893.6312 529.9034,909.5753 " fill="none" id="#34847-create Tests with edges" style="stroke: #A80036; stroke-width: 1.0;"/><polygon fill="#A80036" points="526.9947,913.8903,535.3422,908.6634,529.7895,909.7443,528.7086,904.1917,526.9947,913.8903" style="stroke: #A80036; stroke-width: 1.0;"/><text fill="#000000" font-family="sans-serif" font-size="11" lengthAdjust="spacingAndGlyphs" textLength="15" x="579" y="837.6348">No</text><!--link create Tests with edges to Reset parameters if needed--><path d="M501.5757,948.1501 C484.5183,968.8156 453.1606,1003.2193 419,1023 C406.1487,1030.4415 391.68,1036.4916 377.2489,1041.3765 " fill="none" id="create Tests with edges-Reset parameters if needed" style="stroke: #A80036; stroke-width: 1.0;"/><polygon fill="#A80036" points="372.3587,1042.9888,382.1586,1043.9694,377.1072,1041.4231,379.6535,1036.3717,372.3587,1042.9888" style="stroke: #A80036; stroke-width: 1.0;"/><!--link #34847 to #34853--><path d="M593.9414,791.4105 C598.0417,797.7601 603.8519,807.241 608,816 C616.1082,833.121 623.215,853.7717 627.5491,867.3607 " fill="none" id="#34847-#34853" style="stroke: #A80036; stroke-width: 1.0;"/><polygon fill="#A80036" points="629.1244,872.3741,630.2425,862.5889,627.6255,867.604,622.6104,864.9871,629.1244,872.3741" style="stroke: #A80036; stroke-width: 1.0;"/><text fill="#000000" font-family="sans-serif" font-size="11" lengthAdjust="spacingAndGlyphs" textLength="19" x="622" y="837.6348">Yes</text><text fill="#000000" font-family="sans-serif" font-size="11" lengthAdjust="spacingAndGlyphs" textLength="123" x="488.8235" y="866.9377">TestParameter finished</text><!--link #34853 to create TestParameter with edges--><path d="M630.4512,892.6349 C628.0535,909.099 623.3911,941.1148 620.2361,962.779 " fill="none" id="#34853-create TestParameter with edges" style="stroke: #A80036; stroke-width: 1.0;"/><polygon fill="#A80036" points="619.5083,967.7764,624.7636,959.4468,620.2289,962.8286,616.8471,958.2939,619.5083,967.7764" style="stroke: #A80036; stroke-width: 1.0;"/><text fill="#000000" font-family="sans-serif" font-size="11" lengthAdjust="spacingAndGlyphs" textLength="19" x="628" y="935.6348">Yes</text><!--link create TestParameter with edges to Reset parameters if needed--><path d="M561.3089,1002.0795 C537.6034,1009.0451 509.5739,1016.8818 484,1023 C453.413,1030.3175 419.8081,1037.2069 389.4272,1043.0114 " fill="none" id="create TestParameter with edges-Reset parameters if needed" style="stroke: #A80036; stroke-width: 1.0;"/><polygon fill="#A80036" points="384.1881,1044.0078,393.777,1046.2556,389.1,1043.0735,392.2821,1038.3965,384.1881,1044.0078" style="stroke: #A80036; stroke-width: 1.0;"/><!--link Reset parameters if needed to #34859--><path d="M293,1077.3034 C293,1088.1588 293,1102.0963 293,1112.9108 " fill="none" id="Reset parameters if needed-#34859" style="stroke: #A80036; stroke-width: 1.0;"/><polygon fill="#A80036" points="293,1117.9417,297,1108.9417,293,1112.9417,289,1108.9417,293,1117.9417" style="stroke: #A80036; stroke-width: 1.0;"/><text fill="#000000" font-family="sans-serif" font-size="11" lengthAdjust="spacingAndGlyphs" textLength="90" x="183.3125" y="1108.8849">Order is finished</text><!--link #34859 to Reset everything for new Order--><path d="M289.9075,1139.1335 C283.2,1158.9442 267.1487,1206.3516 257.5714,1234.638 " fill="none" id="#34859-Reset everything for new Order" style="stroke: #A80036; stroke-width: 1.0;"/><polygon fill="#A80036" points="255.8621,1239.6862,262.5372,1232.4444,257.4656,1234.9503,254.9597,1229.8788,255.8621,1239.6862" style="stroke: #A80036; stroke-width: 1.0;"/><text fill="#000000" font-family="sans-serif" font-size="11" lengthAdjust="spacingAndGlyphs" textLength="19" x="283" y="1173.6348">Yes</text><!--link Reset everything for new Order to end--><path d="M247.6574,1274.3088 C245.3384,1298.431 244.6353,1342.5088 265,1372 C309.9499,1437.0943 408.5265,1465.2558 446.0738,1473.9021 " fill="none" id="Reset everything for new Order-end" style="stroke: #A80036; stroke-width: 1.0;"/><polygon fill="#A80036" points="451.1571,1475.0383,443.2464,1469.1713,446.2775,1473.9476,441.5013,1476.9787,451.1571,1475.0383" style="stroke: #A80036; stroke-width: 1.0;"/><!--link #34859 to #34866--><path d="M299.1633,1135.8627 C313.1725,1149.1885 347.5253,1181.8655 364.7718,1198.2707 " fill="none" id="#34859-#34866" style="stroke: #A80036; stroke-width: 1.0;"/><polygon fill="#A80036" points="368.7652,1202.0693,365.001,1192.9681,365.1424,1198.6232,359.4873,1198.7646,368.7652,1202.0693" style="stroke: #A80036; stroke-width: 1.0;"/><text fill="#000000" font-family="sans-serif" font-size="11" lengthAdjust="spacingAndGlyphs" textLength="15" x="342" y="1173.6348">No</text><text fill="#000000" font-family="sans-serif" font-size="11" lengthAdjust="spacingAndGlyphs" textLength="100" x="255.058" y="1197.9124">Product is finished</text><!--link #34866 to Reset everything for new Product--><path d="M374.6794,1219.7811 C374.0135,1244.2547 372.4708,1300.9473 371.6095,1332.6024 " fill="none" id="#34866-Reset everything for new Product" style="stroke: #A80036; stroke-width: 1.0;"/><polygon fill="#A80036" points="371.4671,1337.8337,375.7104,1328.9458,371.6031,1332.8355,367.7134,1328.7282,371.4671,1337.8337" style="stroke: #A80036; stroke-width: 1.0;"/><text fill="#000000" font-family="sans-serif" font-size="11" lengthAdjust="spacingAndGlyphs" textLength="19" x="375" y="1261.6348">Yes</text><!--link Reset everything for new Product to end--><path d="M383.7039,1372.2209 C402.1468,1397.2212 435.8866,1442.9574 451.9871,1464.7825 " fill="none" id="Reset everything for new Product-end" style="stroke: #A80036; stroke-width: 1.0;"/><polygon fill="#A80036" points="454.9622,1468.8155,452.8381,1459.1984,451.9939,1464.7919,446.4004,1463.9477,454.9622,1468.8155" style="stroke: #A80036; stroke-width: 1.0;"/><!--link #34866 to #34872--><path d="M381.6257,1213.5497 C401.0123,1229.7881 457.7462,1277.3088 481.4265,1297.1436 " fill="none" id="#34866-#34872" style="stroke: #A80036; stroke-width: 1.0;"/><polygon fill="#A80036" points="485.447,1300.5112,481.1162,1291.6656,481.614,1297.3005,475.9791,1297.7983,485.447,1300.5112" style="stroke: #A80036; stroke-width: 1.0;"/><text fill="#000000" font-family="sans-serif" font-size="11" lengthAdjust="spacingAndGlyphs" textLength="15" x="451" y="1261.6348">No</text><text fill="#000000" font-family="sans-serif" font-size="11" lengthAdjust="spacingAndGlyphs" textLength="146" x="325.7738" y="1297.2534">All TestParameters finished</text><!--link #34872 to Reset everything for new Component--><path d="M499.3795,1310.9679 C519.9719,1324.8307 578.9239,1364.5174 615.1948,1388.9351 " fill="none" id="#34872-Reset everything for new Component" style="stroke: #A80036; stroke-width: 1.0;"/><polygon fill="#A80036" points="619.5016,1391.8344,614.2696,1383.4902,615.3539,1389.0421,609.802,1390.1265,619.5016,1391.8344" style="stroke: #A80036; stroke-width: 1.0;"/><text fill="#000000" font-family="sans-serif" font-size="11" lengthAdjust="spacingAndGlyphs" textLength="19" x="587" y="1359.6348">Yes</text><!--link Reset everything for new Component to end--><path d="M598.569,1426.1593 C558.047,1441.1348 501.7455,1461.9419 475.5204,1471.6338 " fill="none" id="Reset everything for new Component-end" style="stroke: #A80036; stroke-width: 1.0;"/><polygon fill="#A80036" points="470.69,1473.4189,480.5186,1474.051,475.38,1471.6856,477.7453,1466.547,470.69,1473.4189" style="stroke: #A80036; stroke-width: 1.0;"/><!--link #34872 to end--><path d="M490.1536,1316.1847 C484.9076,1345.1225 469.8948,1427.9351 463.7116,1462.0427 " fill="none" id="#34872-end" style="stroke: #A80036; stroke-width: 1.0;"/><polygon fill="#A80036" points="462.7978,1467.0828,468.3392,1458.9408,463.6898,1462.163,460.4675,1457.5136,462.7978,1467.0828" style="stroke: #A80036; stroke-width: 1.0;"/><text fill="#000000" font-family="sans-serif" font-size="11" lengthAdjust="spacingAndGlyphs" textLength="15" x="477" y="1413.6348">No</text><!--
@startuml
(*) -> [createGraph()] if "Factory present" then
    - -> [No] "create Factory"
    - -> "Reset parameters if needed"
else
    - -> [Yes] if "Machine present" then
        - -> [No] "create Machine with edges"
        - -> "Reset parameters if needed"
    else
        - -> [Yes] if "Orders present" then
            - -> [No] "create Orders with edges"
            - -> "Reset parameters if needed"
        else
            - -> [Yes] if "Design present" then
                - -> [No] "create Design with edges"
                - -> "Reset parameters if needed"
            else
                - -> [Yes] if "Order fulfilled" then
                    - -> [Yes] "create new Order with edges"
                    - -> "Reset parameters if needed"
                else
                    - -> [No] if "Product finished" then
                        - -> [Yes] "create Product with edges"
                        - -> "Reset parameters if needed"
                    else
                        - -> [No] if "Date added" then
                            - -> [No] "create Date with edges"
                            - -> "Reset parameters if needed"
                        else
                            - -> [Yes] if "Component tested" then
                                - -> [Yes] "create Component with edges"
                                - -> "Reset parameters if needed"
                            else
                                - -> [No] if "Tests added" then
                                    - -> [No] "create Tests with edges"
                                    - -> "Reset parameters if needed"
                                else
                                    - -> [Yes] if "TestParameter finished" then
                                        - -> [Yes] "create TestParameter with edges"

- -> "Reset parameters if needed"

if "Order is finished" then
    - -> [Yes] "Reset everything for new Order"
    - -> (*)
else
    - -> [No] if "Product is finished" then
        - -> [Yes] "Reset everything for new Product"
        - -> (*)
    else
        - -> [No] if "All TestParameters finished" then
            - -> [Yes] "Reset everything for new Component"
            - -> (*)
            else
                - -> [No] (*)
@enduml

PlantUML version 1.2018.01(Sun Jan 28 19:08:22 CET 2018)
(GPL source distribution)
Java Runtime: OpenJDK Runtime Environment
JVM: OpenJDK 64-Bit Server VM
Java Version: 1.8.0_152-release-1136-b20
Operating System: Mac OS X
OS Version: 10.13.4
Default Encoding: UTF-8
Language: en
Country: DE
--></g></svg>