<?xml version="1.0" encoding="UTF-8" standalone="no"?><svg xmlns="http://www.w3.org/2000/svg" xmlns:xlink="http://www.w3.org/1999/xlink" contentScriptType="application/ecmascript" contentStyleType="text/css" height="1668px" preserveAspectRatio="none" style="width:1202px;height:1668px;" version="1.1" viewBox="0 0 1202 1668" width="1202px" zoomAndPan="magnify"><defs><filter height="300%" id="f9i4tiubiqsup" width="300%" x="-1" y="-1"><feGaussianBlur result="blurOut" stdDeviation="2.0"/><feColorMatrix in="blurOut" result="blurOut2" type="matrix" values="0 0 0 0 0 0 0 0 0 0 0 0 0 0 0 0 0 0 .4 0"/><feOffset dx="4.0" dy="4.0" in="blurOut2" result="blurOut3"/><feBlend in="SourceGraphic" in2="blurOut3" mode="normal"/></filter></defs><g><ellipse cx="16" cy="28" fill="#000000" filter="url(#f9i4tiubiqsup)" rx="10" ry="10" style="stroke: none; stroke-width: 1.0;"/><polygon fill="#FEFECE" filter="url(#f9i4tiubiqsup)" points="199,16,211,28,199,40,187,28,199,16" style="stroke: #A80036; stroke-width: 1.5;"/><rect fill="#FEFECE" filter="url(#f9i4tiubiqsup)" height="43.5547" rx="12.5" ry="12.5" style="stroke: #A80036; stroke-width: 1.5;" width="153" x="55.5" y="149"/><text fill="#000000" font-family="sans-serif" font-size="20" lengthAdjust="spacingAndGlyphs" textLength="133" x="65.5" y="178.3359">create Factory</text><rect fill="#FEFECE" filter="url(#f9i4tiubiqsup)" height="43.5547" rx="12.5" ry="12.5" style="stroke: #A80036; stroke-width: 1.5;" width="283" x="310.5" y="1162"/><text fill="#000000" font-family="sans-serif" font-size="20" lengthAdjust="spacingAndGlyphs" textLength="263" x="320.5" y="1191.3359">Reset parameters if needed</text><polygon fill="#FEFECE" filter="url(#f9i4tiubiqsup)" points="265,105,277,117,265,129,253,117,265,105" style="stroke: #A80036; stroke-width: 1.5;"/><rect fill="#FEFECE" filter="url(#f9i4tiubiqsup)" height="43.5547" rx="12.5" ry="12.5" style="stroke: #A80036; stroke-width: 1.5;" width="272" x="129" y="257"/><text fill="#000000" font-family="sans-serif" font-size="20" lengthAdjust="spacingAndGlyphs" textLength="252" x="139" y="286.3359">create Machine with edges</text><polygon fill="#FEFECE" filter="url(#f9i4tiubiqsup)" points="435,213,447,225,435,237,423,225,435,213" style="stroke: #A80036; stroke-width: 1.5;"/><rect fill="#FEFECE" filter="url(#f9i4tiubiqsup)" height="43.5547" rx="12.5" ry="12.5" style="stroke: #A80036; stroke-width: 1.5;" width="259" x="264.5" y="365"/><text fill="#000000" font-family="sans-serif" font-size="20" lengthAdjust="spacingAndGlyphs" textLength="239" x="274.5" y="394.3359">create Orders with edges</text><polygon fill="#FEFECE" filter="url(#f9i4tiubiqsup)" points="558,321,570,333,558,345,546,333,558,321" style="stroke: #A80036; stroke-width: 1.5;"/><rect fill="#FEFECE" filter="url(#f9i4tiubiqsup)" height="43.5547" rx="12.5" ry="12.5" style="stroke: #A80036; stroke-width: 1.5;" width="259" x="326.5" y="473"/><text fill="#000000" font-family="sans-serif" font-size="20" lengthAdjust="spacingAndGlyphs" textLength="239" x="336.5" y="502.3359">create Design with edges</text><polygon fill="#FEFECE" filter="url(#f9i4tiubiqsup)" points="621,429,633,441,621,453,609,441,621,429" style="stroke: #A80036; stroke-width: 1.5;"/><rect fill="#FEFECE" filter="url(#f9i4tiubiqsup)" height="43.5547" rx="12.5" ry="12.5" style="stroke: #A80036; stroke-width: 1.5;" width="293" x="384.5" y="581"/><text fill="#000000" font-family="sans-serif" font-size="20" lengthAdjust="spacingAndGlyphs" textLength="273" x="394.5" y="610.3359">create new Order with edges</text><polygon fill="#FEFECE" filter="url(#f9i4tiubiqsup)" points="712,537,724,549,712,561,700,549,712,537" style="stroke: #A80036; stroke-width: 1.5;"/><rect fill="#FEFECE" filter="url(#f9i4tiubiqsup)" height="43.5547" rx="12.5" ry="12.5" style="stroke: #A80036; stroke-width: 1.5;" width="266" x="443" y="689"/><text fill="#000000" font-family="sans-serif" font-size="20" lengthAdjust="spacingAndGlyphs" textLength="246" x="453" y="718.3359">create Product with edges</text><polygon fill="#FEFECE" filter="url(#f9i4tiubiqsup)" points="781,645,793,657,781,669,769,657,781,645" style="stroke: #A80036; stroke-width: 1.5;"/><rect fill="#FEFECE" filter="url(#f9i4tiubiqsup)" height="43.5547" rx="12.5" ry="12.5" style="stroke: #A80036; stroke-width: 1.5;" width="237" x="510.5" y="797"/><text fill="#000000" font-family="sans-serif" font-size="20" lengthAdjust="spacingAndGlyphs" textLength="217" x="520.5" y="826.3359">create Date with edges</text><polygon fill="#FEFECE" filter="url(#f9i4tiubiqsup)" points="806,753,818,765,806,777,794,765,806,753" style="stroke: #A80036; stroke-width: 1.5;"/><rect fill="#FEFECE" filter="url(#f9i4tiubiqsup)" height="43.5547" rx="12.5" ry="12.5" style="stroke: #A80036; stroke-width: 1.5;" width="305" x="561.5" y="905"/><text fill="#000000" font-family="sans-serif" font-size="20" lengthAdjust="spacingAndGlyphs" textLength="285" x="571.5" y="934.3359">create Component with edges</text><polygon fill="#FEFECE" filter="url(#f9i4tiubiqsup)" points="901,861,913,873,901,885,889,873,901,861" style="stroke: #A80036; stroke-width: 1.5;"/><rect fill="#FEFECE" filter="url(#f9i4tiubiqsup)" height="43.5547" rx="12.5" ry="12.5" style="stroke: #A80036; stroke-width: 1.5;" width="244" x="659" y="1013"/><text fill="#000000" font-family="sans-serif" font-size="20" lengthAdjust="spacingAndGlyphs" textLength="224" x="669" y="1042.3359">create Tests with edges</text><polygon fill="#FEFECE" filter="url(#f9i4tiubiqsup)" points="961,969,973,981,961,993,949,981,961,969" style="stroke: #A80036; stroke-width: 1.5;"/><rect fill="#FEFECE" filter="url(#f9i4tiubiqsup)" height="43.5547" rx="12.5" ry="12.5" style="stroke: #A80036; stroke-width: 1.5;" width="331" x="768.5" y="1077"/><text fill="#000000" font-family="sans-serif" font-size="20" lengthAdjust="spacingAndGlyphs" textLength="311" x="778.5" y="1106.3359">create TestParameter with edges</text><polygon fill="#FEFECE" filter="url(#f9i4tiubiqsup)" points="452,1247,464,1259,452,1271,440,1259,452,1247" style="stroke: #A80036; stroke-width: 1.5;"/><rect fill="#FEFECE" filter="url(#f9i4tiubiqsup)" height="43.5547" rx="12.5" ry="12.5" style="stroke: #A80036; stroke-width: 1.5;" width="316" x="229" y="1380"/><text fill="#000000" font-family="sans-serif" font-size="20" lengthAdjust="spacingAndGlyphs" textLength="296" x="239" y="1409.3359">Reset everything for new Order</text><ellipse cx="714" cy="1647" fill="none" filter="url(#f9i4tiubiqsup)" rx="10" ry="10" style="stroke: #000000; stroke-width: 1.0;"/><ellipse cx="714.5" cy="1647.5" fill="#000000" rx="6" ry="6" style="stroke: none; stroke-width: 1.0;"/><polygon fill="#FEFECE" filter="url(#f9i4tiubiqsup)" points="579,1336,591,1348,579,1360,567,1348,579,1336" style="stroke: #A80036; stroke-width: 1.5;"/><rect fill="#FEFECE" filter="url(#f9i4tiubiqsup)" height="43.5547" rx="12.5" ry="12.5" style="stroke: #A80036; stroke-width: 1.5;" width="333" x="407.5" y="1488"/><text fill="#000000" font-family="sans-serif" font-size="20" lengthAdjust="spacingAndGlyphs" textLength="313" x="417.5" y="1517.3359">Reset everything for new Product</text><polygon fill="#FEFECE" filter="url(#f9i4tiubiqsup)" points="761,1444,773,1456,761,1468,749,1456,761,1444" style="stroke: #A80036; stroke-width: 1.5;"/><rect fill="#FEFECE" filter="url(#f9i4tiubiqsup)" height="43.5547" rx="12.5" ry="12.5" style="stroke: #A80036; stroke-width: 1.5;" width="372" x="819" y="1552"/><text fill="#000000" font-family="sans-serif" font-size="20" lengthAdjust="spacingAndGlyphs" textLength="352" x="829" y="1581.3359">Reset everything for new Component</text><!--link start to #40210--><path d="M26.0995,28 C55.9519,28 144.0366,28 181.6526,28 " fill="none" id="start-#40210" style="stroke: #A80036; stroke-width: 1.0;"/><polygon fill="#A80036" points="186.8234,28,177.8234,24,181.8234,28,177.8234,32,186.8234,28" style="stroke: #A80036; stroke-width: 1.0;"/><text fill="#000000" font-family="sans-serif" font-size="20" lengthAdjust="spacingAndGlyphs" textLength="130" x="41.5" y="20.3359">createGraph()</text><text fill="#000000" font-family="sans-serif" font-size="20" lengthAdjust="spacingAndGlyphs" textLength="147" x="31.9251" y="48.4217">Factory present</text><!--link #40210 to create Factory--><path d="M195.0095,36.5171 C185.2894,57.2629 160.0556,111.1202 144.6312,144.0409 " fill="none" id="#40210-create Factory" style="stroke: #A80036; stroke-width: 1.0;"/><polygon fill="#A80036" points="142.4297,148.7397,149.8703,142.287,144.5511,144.212,142.6261,138.8928,142.4297,148.7397" style="stroke: #A80036; stroke-width: 1.0;"/><text fill="#000000" font-family="sans-serif" font-size="20" lengthAdjust="spacingAndGlyphs" textLength="27" x="185" y="80.3359">No</text><!--link create Factory to Reset parameters if needed--><path d="M124.4689,193.0469 C117.7612,214.6703 109,248.7107 109,279 C109,279 109,279 109,1099 C109,1142.0187 211.9349,1163.4135 305.026,1173.9661 " fill="none" id="create Factory-Reset parameters if needed" style="stroke: #A80036; stroke-width: 1.0;"/><polygon fill="#A80036" points="310.0128,1174.5222,301.5116,1169.5494,305.0436,1173.9681,300.6249,1177.5001,310.0128,1174.5222" style="stroke: #A80036; stroke-width: 1.0;"/><!--link #40210 to #40217--><path d="M204.1789,34.9837 C215.4967,50.2456 242.5316,86.7017 256.4292,105.4423 " fill="none" id="#40210-#40217" style="stroke: #A80036; stroke-width: 1.0;"/><polygon fill="#A80036" points="259.6618,109.8015,257.5137,100.1897,256.6835,105.7853,251.0879,104.9551,259.6618,109.8015" style="stroke: #A80036; stroke-width: 1.0;"/><text fill="#000000" font-family="sans-serif" font-size="20" lengthAdjust="spacingAndGlyphs" textLength="33" x="240" y="80.3359">Yes</text><text fill="#000000" font-family="sans-serif" font-size="20" lengthAdjust="spacingAndGlyphs" textLength="157" x="88.2521" y="102.9713">Machine present</text><!--link #40217 to create Machine with edges--><path d="M265,129.1763 C265,155.056 265,216.0768 265,251.7489 " fill="none" id="#40217-create Machine with edges" style="stroke: #A80036; stroke-width: 1.0;"/><polygon fill="#A80036" points="265,256.8209,269,247.8209,265,251.8209,261,247.8209,265,256.8209" style="stroke: #A80036; stroke-width: 1.0;"/><text fill="#000000" font-family="sans-serif" font-size="20" lengthAdjust="spacingAndGlyphs" textLength="27" x="266" y="178.8359">No</text><!--link create Machine with edges to Reset parameters if needed--><path d="M258.1238,301.0951 C251.9993,322.7542 244,356.8202 244,387 C244,387 244,387 244,1099 C244,1124.131 296.6878,1145.4964 349.0283,1160.5208 " fill="none" id="create Machine with edges-Reset parameters if needed" style="stroke: #A80036; stroke-width: 1.0;"/><polygon fill="#A80036" points="354.0907,1161.9549,346.522,1155.653,349.2801,1160.5919,344.3411,1163.35,354.0907,1161.9549" style="stroke: #A80036; stroke-width: 1.0;"/><!--link #40217 to #40223--><path d="M272.7463,121.9212 C299.863,139.1482 390.63,196.812 423.2225,217.5178 " fill="none" id="#40217-#40223" style="stroke: #A80036; stroke-width: 1.0;"/><polygon fill="#A80036" points="427.5946,220.2954,422.1428,212.0931,423.3742,217.6143,417.853,218.8457,427.5946,220.2954" style="stroke: #A80036; stroke-width: 1.0;"/><text fill="#000000" font-family="sans-serif" font-size="20" lengthAdjust="spacingAndGlyphs" textLength="33" x="381" y="178.8359">Yes</text><text fill="#000000" font-family="sans-serif" font-size="20" lengthAdjust="spacingAndGlyphs" textLength="144" x="270.9394" y="214.0929">Orders present</text><!--link #40223 to create Orders with edges--><path d="M432.558,234.6487 C426.4456,258.8002 410.308,322.5637 400.9614,359.494 " fill="none" id="#40223-create Orders with edges" style="stroke: #A80036; stroke-width: 1.0;"/><polygon fill="#A80036" points="399.6337,364.7401,405.7195,356.9966,400.8604,359.8929,397.9641,355.0338,399.6337,364.7401" style="stroke: #A80036; stroke-width: 1.0;"/><text fill="#000000" font-family="sans-serif" font-size="20" lengthAdjust="spacingAndGlyphs" textLength="27" x="427" y="286.8359">No</text><!--link create Orders with edges to Reset parameters if needed--><path d="M360.099,409.0519 C334.9477,428.3575 305,458.9201 305,495 C305,495 305,495 305,1099 C305,1127.8434 326.4718,1147.0553 353.003,1159.7847 " fill="none" id="create Orders with edges-Reset parameters if needed" style="stroke: #A80036; stroke-width: 1.0;"/><polygon fill="#A80036" points="357.6552,1161.9295,351.1567,1154.5288,353.1145,1159.8361,347.8073,1161.7939,357.6552,1161.9295" style="stroke: #A80036; stroke-width: 1.0;"/><!--link #40223 to #40229--><path d="M441.613,230.8065 C461.8019,248.5334 522.7614,302.0587 547.4488,323.7355 " fill="none" id="#40223-#40229" style="stroke: #A80036; stroke-width: 1.0;"/><polygon fill="#A80036" points="551.3543,327.1647,547.2306,318.2207,547.5971,323.8657,541.9522,324.2322,551.3543,327.1647" style="stroke: #A80036; stroke-width: 1.0;"/><text fill="#000000" font-family="sans-serif" font-size="20" lengthAdjust="spacingAndGlyphs" textLength="33" x="519" y="286.8359">Yes</text><text fill="#000000" font-family="sans-serif" font-size="20" lengthAdjust="spacingAndGlyphs" textLength="144" x="393.8753" y="320.4899">Design present</text><!--link #40229 to create Design with edges--><path d="M554.8821,342.2758 C549.7394,356.9909 538.6738,386.338 525,409 C512.0543,430.4552 494.306,452.4555 480.0519,468.8332 " fill="none" id="#40229-create Design with edges" style="stroke: #A80036; stroke-width: 1.0;"/><polygon fill="#A80036" points="476.5082,472.8722,485.4505,468.7449,479.8057,469.1137,479.4369,463.4689,476.5082,472.8722" style="stroke: #A80036; stroke-width: 1.0;"/><text fill="#000000" font-family="sans-serif" font-size="20" lengthAdjust="spacingAndGlyphs" textLength="27" x="546" y="394.8359">No</text><!--link create Design with edges to Reset parameters if needed--><path d="M420.4304,517.1775 C394.5416,536.3511 364,566.6696 364,603 C364,603 364,603 364,1099 C364,1124.3829 383.1751,1144.59 403.6236,1158.9224 " fill="none" id="create Design with edges-Reset parameters if needed" style="stroke: #A80036; stroke-width: 1.0;"/><polygon fill="#A80036" points="408,1161.8913,402.7979,1153.5284,403.8623,1159.0842,398.3065,1160.1486,408,1161.8913" style="stroke: #A80036; stroke-width: 1.0;"/><!--link #40229 to #40235--><path d="M564.6692,338.8293 C571.2626,344.8632 581.3085,354.8177 588,365 C601.0596,384.8725 611.0135,410.7712 616.427,426.6266 " fill="none" id="#40229-#40235" style="stroke: #A80036; stroke-width: 1.0;"/><polygon fill="#A80036" points="618.0867,431.5954,619.0292,421.7917,616.5026,426.853,611.4413,424.3264,618.0867,431.5954" style="stroke: #A80036; stroke-width: 1.0;"/><text fill="#000000" font-family="sans-serif" font-size="20" lengthAdjust="spacingAndGlyphs" textLength="33" x="610" y="394.8359">Yes</text><text fill="#000000" font-family="sans-serif" font-size="20" lengthAdjust="spacingAndGlyphs" textLength="136" x="466.8248" y="416.7343">Order fulfilled</text><!--link #40235 to create new Order with edges--><path d="M617.6346,450.134 C612.1526,464.6548 600.6307,493.7405 588,517 C576.7314,537.7512 561.9533,559.9358 550.2683,576.5748 " fill="none" id="#40235-create new Order with edges" style="stroke: #A80036; stroke-width: 1.0;"/><polygon fill="#A80036" points="547.3683,580.6813,555.8275,575.6373,550.2527,576.5971,549.2928,571.0223,547.3683,580.6813" style="stroke: #A80036; stroke-width: 1.0;"/><text fill="#000000" font-family="sans-serif" font-size="20" lengthAdjust="spacingAndGlyphs" textLength="33" x="609" y="502.8359">Yes</text><!--link create new Order with edges to Reset parameters if needed--><path d="M487.0723,625.0019 C457.1719,643.4173 423,672.8162 423,711 C423,711 423,711 423,1099 C423,1119.2065 430.4317,1140.7374 437.7708,1157.0735 " fill="none" id="create new Order with edges-Reset parameters if needed" style="stroke: #A80036; stroke-width: 1.0;"/><polygon fill="#A80036" points="440.0372,1161.9694,439.8864,1152.1217,437.9368,1157.432,432.6265,1155.4824,440.0372,1161.9694" style="stroke: #A80036; stroke-width: 1.0;"/><!--link #40235 to #40241--><path d="M628.7706,445.7355 C637.7246,451.4444 652.5454,461.6918 663,473 C681.3505,492.8489 697.1833,520.3792 705.5834,536.2782 " fill="none" id="#40235-#40241" style="stroke: #A80036; stroke-width: 1.0;"/><polygon fill="#A80036" points="707.9463,540.8175,707.3387,530.9874,705.6376,536.3824,700.2426,534.6813,707.9463,540.8175" style="stroke: #A80036; stroke-width: 1.0;"/><text fill="#000000" font-family="sans-serif" font-size="20" lengthAdjust="spacingAndGlyphs" textLength="27" x="695" y="502.8359">No</text><text fill="#000000" font-family="sans-serif" font-size="20" lengthAdjust="spacingAndGlyphs" textLength="156" x="534.9872" y="530.7033">Product finished</text><!--link #40241 to create Product with edges--><path d="M709.4001,558.6246 C704.9673,573.8178 694.8567,603.808 679,625 C661.2056,648.7816 635.5869,670.2068 614.3515,685.7238 " fill="none" id="#40241-create Product with edges" style="stroke: #A80036; stroke-width: 1.0;"/><polygon fill="#A80036" points="610.1665,688.7474,619.8043,686.7192,614.2194,685.8193,615.1193,680.2345,610.1665,688.7474" style="stroke: #A80036; stroke-width: 1.0;"/><text fill="#000000" font-family="sans-serif" font-size="20" lengthAdjust="spacingAndGlyphs" textLength="33" x="702" y="610.8359">Yes</text><!--link create Product with edges to Reset parameters if needed--><path d="M539.388,733.1917 C512.9944,752.2731 482,782.4597 482,819 C482,819 482,819 482,1099 C482,1119.1384 474.4192,1140.5091 466.8792,1156.7844 " fill="none" id="create Product with edges-Reset parameters if needed" style="stroke: #A80036; stroke-width: 1.0;"/><polygon fill="#A80036" points="464.5489,1161.6648,472.0364,1155.2666,466.7033,1157.1527,464.8172,1151.8196,464.5489,1161.6648" style="stroke: #A80036; stroke-width: 1.0;"/><!--link #40241 to #40247--><path d="M719.2004,553.916 C727.1373,559.6406 739.8567,569.7582 748,581 C761.95,600.2579 771.6443,626.3358 776.7622,642.3952 " fill="none" id="#40241-#40247" style="stroke: #A80036; stroke-width: 1.0;"/><polygon fill="#A80036" points="778.3219,647.433,779.481,637.6526,776.843,642.6567,771.8389,640.0188,778.3219,647.433" style="stroke: #A80036; stroke-width: 1.0;"/><text fill="#000000" font-family="sans-serif" font-size="20" lengthAdjust="spacingAndGlyphs" textLength="27" x="771" y="610.8359">No</text><text fill="#000000" font-family="sans-serif" font-size="20" lengthAdjust="spacingAndGlyphs" textLength="111" x="652.6915" y="632.433">Date added</text><!--link #40247 to create Date with edges--><path d="M775.1178,663.3138 C762.9684,676.3509 734.2123,707.1881 710,733 C691.0841,753.1656 669.6294,775.9403 653.5548,792.9846 " fill="none" id="#40247-create Date with edges" style="stroke: #A80036; stroke-width: 1.0;"/><polygon fill="#A80036" points="650.0034,796.7499,659.0886,792.9473,653.4341,793.1126,653.2689,787.4582,650.0034,796.7499" style="stroke: #A80036; stroke-width: 1.0;"/><text fill="#000000" font-family="sans-serif" font-size="20" lengthAdjust="spacingAndGlyphs" textLength="27" x="750" y="718.8359">No</text><!--link create Date with edges to Reset parameters if needed--><path d="M595.4799,841.1383 C570.6112,860.4947 541,891.0835 541,927 C541,927 541,927 541,1099 C541,1124.4328 521.7582,1144.5915 501.1684,1158.8821 " fill="none" id="create Date with edges-Reset parameters if needed" style="stroke: #A80036; stroke-width: 1.0;"/><polygon fill="#A80036" points="496.7607,1161.8423,506.4622,1160.1451,500.9115,1159.0546,502.002,1153.5039,496.7607,1161.8423" style="stroke: #A80036; stroke-width: 1.0;"/><!--link #40247 to #40253--><path d="M783.3071,666.9668 C787.7163,686.0142 797.3606,727.6779 802.5431,750.066 " fill="none" id="#40247-#40253" style="stroke: #A80036; stroke-width: 1.0;"/><polygon fill="#A80036" points="803.6984,755.0573,805.5654,745.387,802.5707,750.1861,797.7716,747.1914,803.6984,755.0573" style="stroke: #A80036; stroke-width: 1.0;"/><text fill="#000000" font-family="sans-serif" font-size="20" lengthAdjust="spacingAndGlyphs" textLength="33" x="798" y="718.8359">Yes</text><text fill="#000000" font-family="sans-serif" font-size="20" lengthAdjust="spacingAndGlyphs" textLength="177" x="608.6143" y="747.4871">Component tested</text><!--link #40253 to create Component with edges--><path d="M801.5626,772.8136 C788.6285,795.589 750.5265,862.6816 729.0905,900.4276 " fill="none" id="#40253-create Component with edges" style="stroke: #A80036; stroke-width: 1.0;"/><polygon fill="#A80036" points="726.5618,904.8804,734.4846,899.0298,729.031,900.5327,727.5282,895.0791,726.5618,904.8804" style="stroke: #A80036; stroke-width: 1.0;"/><text fill="#000000" font-family="sans-serif" font-size="20" lengthAdjust="spacingAndGlyphs" textLength="33" x="788" y="826.8359">Yes</text><!--link create Component with edges to Reset parameters if needed--><path d="M695.1471,949.1083 C680.8695,966.1758 661.0428,990.5848 645,1013 C605.4609,1068.2446 615.6904,1099.1161 563,1142 C554.4773,1148.9365 544.6882,1154.8056 534.5302,1159.7511 " fill="none" id="create Component with edges-Reset parameters if needed" style="stroke: #A80036; stroke-width: 1.0;"/><polygon fill="#A80036" points="529.8403,1161.9589,539.6868,1161.7445,534.3641,1159.8292,536.2793,1154.5065,529.8403,1161.9589" style="stroke: #A80036; stroke-width: 1.0;"/><!--link #40253 to #40259--><path d="M812.5213,770.6453 C819.5613,776.8501 830.9772,787.2371 840,797 C860.1888,818.845 881.4182,846.5305 892.7369,861.7312 " fill="none" id="#40253-#40259" style="stroke: #A80036; stroke-width: 1.0;"/><polygon fill="#A80036" points="895.9193,866.0275,893.7766,856.4146,892.9432,862.0097,887.3481,861.1763,895.9193,866.0275" style="stroke: #A80036; stroke-width: 1.0;"/><text fill="#000000" font-family="sans-serif" font-size="20" lengthAdjust="spacingAndGlyphs" textLength="27" x="876" y="826.8359">No</text><text fill="#000000" font-family="sans-serif" font-size="20" lengthAdjust="spacingAndGlyphs" textLength="118" x="763.1006" y="858.1558">Tests added</text><!--link #40259 to create Tests with edges--><path d="M898.1859,882.4712 C893.4593,897.4541 882.9538,927.1615 868,949 C852.4939,971.6452 830.4736,993.3422 812.467,1009.278 " fill="none" id="#40259-create Tests with edges" style="stroke: #A80036; stroke-width: 1.0;"/><polygon fill="#A80036" points="808.4549,1012.7927,817.8604,1009.871,812.2159,1009.498,812.5889,1003.8535,808.4549,1012.7927" style="stroke: #A80036; stroke-width: 1.0;"/><text fill="#000000" font-family="sans-serif" font-size="20" lengthAdjust="spacingAndGlyphs" textLength="27" x="890" y="934.8359">No</text><!--link create Tests with edges to Reset parameters if needed--><path d="M756.4144,1057.0183 C727.9659,1081.3458 678.7569,1119.9864 630,1142 C613.8645,1149.2851 596.3137,1155.3892 578.7296,1160.4812 " fill="none" id="create Tests with edges-Reset parameters if needed" style="stroke: #A80036; stroke-width: 1.0;"/><polygon fill="#A80036" points="573.7702,1161.8906,583.5209,1163.2776,578.5797,1160.5236,581.3337,1155.5824,573.7702,1161.8906" style="stroke: #A80036; stroke-width: 1.0;"/><!--link #40259 to #40265--><path d="M907.7419,878.7824 C914.3919,884.7798 924.4809,894.7064 931,905 C943.4785,924.7034 952.3028,950.4462 957.0196,966.3437 " fill="none" id="#40259-#40265" style="stroke: #A80036; stroke-width: 1.0;"/><polygon fill="#A80036" points="958.4611,971.3347,959.8066,961.5782,957.0737,966.5311,952.1208,963.7981,958.4611,971.3347" style="stroke: #A80036; stroke-width: 1.0;"/><text fill="#000000" font-family="sans-serif" font-size="20" lengthAdjust="spacingAndGlyphs" textLength="33" x="952" y="934.8359">Yes</text><text fill="#000000" font-family="sans-serif" font-size="20" lengthAdjust="spacingAndGlyphs" textLength="221" x="720.8778" y="967.9789">TestParameter finished</text><!--link #40265 to create TestParameter with edges--><path d="M958.698,991.0606 C954.657,1008.7213 946.1578,1045.866 940.2665,1071.613 " fill="none" id="#40265-create TestParameter with edges" style="stroke: #A80036; stroke-width: 1.0;"/><polygon fill="#A80036" points="939.1251,1076.6012,945.032,1068.7203,940.2405,1071.7272,937.2336,1066.9357,939.1251,1076.6012" style="stroke: #A80036; stroke-width: 1.0;"/><text fill="#000000" font-family="sans-serif" font-size="20" lengthAdjust="spacingAndGlyphs" textLength="33" x="954" y="1042.8359">Yes</text><!--link create TestParameter with edges to Reset parameters if needed--><path d="M833.3981,1121.0204 C799.6544,1128.1066 761.7689,1135.7382 727,1142 C685.4355,1149.4856 640.1797,1156.7578 598.6041,1163.089 " fill="none" id="create TestParameter with edges-Reset parameters if needed" style="stroke: #A80036; stroke-width: 1.0;"/><polygon fill="#A80036" points="593.5527,1163.8564,603.0514,1166.4592,598.496,1163.1054,601.8498,1158.55,593.5527,1163.8564" style="stroke: #A80036; stroke-width: 1.0;"/><!--link Reset parameters if needed to #40271--><path d="M452,1206.0968 C452,1217.4298 452,1231.0345 452,1241.6095 " fill="none" id="Reset parameters if needed-#40271" style="stroke: #A80036; stroke-width: 1.0;"/><polygon fill="#A80036" points="452,1246.8353,456,1237.8353,452,1241.8353,448,1237.8353,452,1246.8353" style="stroke: #A80036; stroke-width: 1.0;"/><text fill="#000000" font-family="sans-serif" font-size="20" lengthAdjust="spacingAndGlyphs" textLength="161" x="271.3781" y="1237.4706">Order is finished</text><!--link #40271 to Reset everything for new Order--><path d="M448.1286,1267.5171 C438.6987,1288.2629 414.2181,1342.1202 399.2542,1375.0409 " fill="none" id="#40271-Reset everything for new Order" style="stroke: #A80036; stroke-width: 1.0;"/><polygon fill="#A80036" points="397.1183,1379.7397,404.4841,1373.2018,399.1874,1375.1879,397.2013,1369.8912,397.1183,1379.7397" style="stroke: #A80036; stroke-width: 1.0;"/><text fill="#000000" font-family="sans-serif" font-size="20" lengthAdjust="spacingAndGlyphs" textLength="33" x="437" y="1311.3359">Yes</text><!--link Reset everything for new Order to end--><path d="M383.8789,1424.4533 C381.2481,1452.7241 381.2097,1501.2994 406,1532 C483.1534,1627.5479 648.1844,1643.7203 698.8758,1646.4486 " fill="none" id="Reset everything for new Order-end" style="stroke: #A80036; stroke-width: 1.0;"/><polygon fill="#A80036" points="703.9518,1646.6965,695.1577,1642.2621,698.9578,1646.4525,694.7673,1650.2525,703.9518,1646.6965" style="stroke: #A80036; stroke-width: 1.0;"/><!--link #40271 to #40278--><path d="M459.192,1264.04 C480.2356,1278.7871 541.8186,1321.9437 567.5228,1339.9569 " fill="none" id="#40271-#40278" style="stroke: #A80036; stroke-width: 1.0;"/><polygon fill="#A80036" points="571.8869,1343.0152,566.8122,1334.5744,567.7923,1340.1457,562.221,1341.1258,571.8869,1343.0152" style="stroke: #A80036; stroke-width: 1.0;"/><text fill="#000000" font-family="sans-serif" font-size="20" lengthAdjust="spacingAndGlyphs" textLength="27" x="531" y="1311.3359">No</text><text fill="#000000" font-family="sans-serif" font-size="20" lengthAdjust="spacingAndGlyphs" textLength="178" x="380.9717" y="1337.1733">Product is finished</text><!--link #40278 to Reset everything for new Product--><path d="M578.6404,1359.6506 C577.8508,1385.2355 575.9474,1446.9044 574.8392,1482.8113 " fill="none" id="#40278-Reset everything for new Product" style="stroke: #A80036; stroke-width: 1.0;"/><polygon fill="#A80036" points="574.6816,1487.9147,578.9574,1479.0424,574.8359,1482.9171,570.9612,1478.7956,574.6816,1487.9147" style="stroke: #A80036; stroke-width: 1.0;"/><text fill="#000000" font-family="sans-serif" font-size="20" lengthAdjust="spacingAndGlyphs" textLength="33" x="579" y="1409.8359">Yes</text><!--link Reset everything for new Product to end--><path d="M596.4934,1532.0114 C627.0356,1561.8991 680.4237,1614.1432 703.2033,1636.4347 " fill="none" id="Reset everything for new Product-end" style="stroke: #A80036; stroke-width: 1.0;"/><polygon fill="#A80036" points="706.8392,1639.9926,703.2043,1630.839,703.2656,1636.4956,697.6091,1636.5568,706.8392,1639.9926" style="stroke: #A80036; stroke-width: 1.0;"/><!--link #40278 to #40284--><path d="M586.8203,1352.6406 C615.3541,1369.5728 714.0035,1428.1119 748.7625,1448.7382 " fill="none" id="#40278-#40284" style="stroke: #A80036; stroke-width: 1.0;"/><polygon fill="#A80036" points="753.4114,1451.4969,747.7127,1443.4642,749.1114,1448.9454,743.6302,1450.3441,753.4114,1451.4969" style="stroke: #A80036; stroke-width: 1.0;"/><text fill="#000000" font-family="sans-serif" font-size="20" lengthAdjust="spacingAndGlyphs" textLength="27" x="703" y="1409.8359">No</text><text fill="#000000" font-family="sans-serif" font-size="20" lengthAdjust="spacingAndGlyphs" textLength="263" x="478.2863" y="1447.6569">All TestParameters finished</text><!--link #40284 to Reset everything for new Component--><path d="M769.1183,1459.9261 C797.5671,1473.6841 894.2874,1520.4587 954.6845,1549.6671 " fill="none" id="#40284-Reset everything for new Component" style="stroke: #A80036; stroke-width: 1.0;"/><polygon fill="#A80036" points="959.3291,1551.9133,952.9683,1544.394,954.8278,1549.7365,949.4854,1551.596,959.3291,1551.9133" style="stroke: #A80036; stroke-width: 1.0;"/><text fill="#000000" font-family="sans-serif" font-size="20" lengthAdjust="spacingAndGlyphs" textLength="33" x="913" y="1517.8359">Yes</text><!--link Reset everything for new Component to end--><path d="M917.2958,1596.0014 C850.2606,1612.8178 763.6813,1634.537 729.1708,1643.1943 " fill="none" id="Reset everything for new Component-end" style="stroke: #A80036; stroke-width: 1.0;"/><polygon fill="#A80036" points="724.0901,1644.4688,733.7929,1646.1585,728.9398,1643.2521,731.8462,1638.399,724.0901,1644.4688" style="stroke: #A80036; stroke-width: 1.0;"/><!--link #40284 to end--><path d="M758.6046,1465.7343 C750.9379,1496.8905 726.9643,1594.3153 717.7029,1631.9521 " fill="none" id="#40284-end" style="stroke: #A80036; stroke-width: 1.0;"/><polygon fill="#A80036" points="716.4469,1637.0563,722.4817,1629.2729,717.6418,1632.2012,714.7135,1627.3612,716.4469,1637.0563" style="stroke: #A80036; stroke-width: 1.0;"/><text fill="#000000" font-family="sans-serif" font-size="20" lengthAdjust="spacingAndGlyphs" textLength="27" x="738" y="1581.8359">No</text><!--
@startuml

skinparam ActivityFontSize 20
skinparam ArrowFontSize 20

(*) -> [createGraph()] if "Factory present" then
    - -> [No] "create Factory"
    - -> "Reset parameters if needed"
else
    - -> [Yes] if "Machine present" then
        - -> [No] "create Machine with edges"
        - -> "Reset parameters if needed"
    else
        - -> [Yes] if "Orders present" then
            - -> [No] "create Orders with edges"
            - -> "Reset parameters if needed"
        else
            - -> [Yes] if "Design present" then
                - -> [No] "create Design with edges"
                - -> "Reset parameters if needed"
            else
                - -> [Yes] if "Order fulfilled" then
                    - -> [Yes] "create new Order with edges"
                    - -> "Reset parameters if needed"
                else
                    - -> [No] if "Product finished" then
                        - -> [Yes] "create Product with edges"
                        - -> "Reset parameters if needed"
                    else
                        - -> [No] if "Date added" then
                            - -> [No] "create Date with edges"
                            - -> "Reset parameters if needed"
                        else
                            - -> [Yes] if "Component tested" then
                                - -> [Yes] "create Component with edges"
                                - -> "Reset parameters if needed"
                            else
                                - -> [No] if "Tests added" then
                                    - -> [No] "create Tests with edges"
                                    - -> "Reset parameters if needed"
                                else
                                    - -> [Yes] if "TestParameter finished" then
                                        - -> [Yes] "create TestParameter with edges"

- -> "Reset parameters if needed"

if "Order is finished" then
    - -> [Yes] "Reset everything for new Order"
    - -> (*)
else
    - -> [No] if "Product is finished" then
        - -> [Yes] "Reset everything for new Product"
        - -> (*)
    else
        - -> [No] if "All TestParameters finished" then
            - -> [Yes] "Reset everything for new Component"
            - -> (*)
            else
                - -> [No] (*)
@enduml

PlantUML version 1.2018.01(Sun Jan 28 19:08:22 CET 2018)
(GPL source distribution)
Java Runtime: OpenJDK Runtime Environment
JVM: OpenJDK 64-Bit Server VM
Java Version: 1.8.0_152-release-1136-b20
Operating System: Mac OS X
OS Version: 10.13.4
Default Encoding: UTF-8
Language: en
Country: DE
--></g></svg>