<?xml version="1.0" encoding="UTF-8" standalone="no"?><svg xmlns="http://www.w3.org/2000/svg" xmlns:xlink="http://www.w3.org/1999/xlink" contentScriptType="application/ecmascript" contentStyleType="text/css" height="563px" preserveAspectRatio="none" style="width:645px;height:563px;" version="1.1" viewBox="0 0 645 563" width="645px" zoomAndPan="magnify"><defs><filter height="300%" id="ft0d92dhfg6zd" width="300%" x="-1" y="-1"><feGaussianBlur result="blurOut" stdDeviation="2.0"/><feColorMatrix in="blurOut" result="blurOut2" type="matrix" values="0 0 0 0 0 0 0 0 0 0 0 0 0 0 0 0 0 0 .4 0"/><feOffset dx="4.0" dy="4.0" in="blurOut2" result="blurOut3"/><feBlend in="SourceGraphic" in2="blurOut3" mode="normal"/></filter></defs><g><ellipse cx="159.5" cy="18" fill="#000000" filter="url(#ft0d92dhfg6zd)" rx="10" ry="10" style="stroke: none; stroke-width: 1.0;"/><rect fill="#FEFECE" filter="url(#ft0d92dhfg6zd)" height="34.1328" rx="12.5" ry="12.5" style="stroke: #A80036; stroke-width: 1.5;" width="116" x="101.5" y="82"/><text fill="#000000" font-family="sans-serif" font-size="12" lengthAdjust="spacingAndGlyphs" textLength="96" x="111.5" y="103.6016">load parameters</text><rect fill="#FEFECE" filter="url(#ft0d92dhfg6zd)" height="34.1328" rx="12.5" ry="12.5" style="stroke: #A80036; stroke-width: 1.5;" width="179" x="238" y="82"/><text fill="#000000" font-family="sans-serif" font-size="12" lengthAdjust="spacingAndGlyphs" textLength="159" x="248" y="103.6016">create graphDataGenerator</text><polygon fill="#FEFECE" filter="url(#ft0d92dhfg6zd)" points="327.5,162,339.5,174,327.5,186,315.5,174,327.5,162" style="stroke: #A80036; stroke-width: 1.5;"/><rect fill="#FEFECE" filter="url(#ft0d92dhfg6zd)" height="34.1328" rx="12.5" ry="12.5" style="stroke: #A80036; stroke-width: 1.5;" width="178" x="96.5" y="157"/><text fill="#000000" font-family="sans-serif" font-size="12" lengthAdjust="spacingAndGlyphs" textLength="158" x="106.5" y="178.6016">return GraphDataRecreator</text><rect fill="#FEFECE" filter="url(#ft0d92dhfg6zd)" height="34.1328" rx="12.5" ry="12.5" style="stroke: #A80036; stroke-width: 1.5;" width="265" x="191" y="232"/><text fill="#000000" font-family="sans-serif" font-size="12" lengthAdjust="spacingAndGlyphs" textLength="245" x="201" y="253.6016">create randomGraphComponentGenerator</text><rect fill="#FEFECE" filter="url(#ft0d92dhfg6zd)" height="34.1328" rx="12.5" ry="12.5" style="stroke: #A80036; stroke-width: 1.5;" width="175" x="376" y="157"/><text fill="#000000" font-family="sans-serif" font-size="12" lengthAdjust="spacingAndGlyphs" textLength="155" x="386" y="178.6016">return GraphDataRecorder</text><polygon fill="#FEFECE" filter="url(#ft0d92dhfg6zd)" points="323.5,312,335.5,324,323.5,336,311.5,324,323.5,312" style="stroke: #A80036; stroke-width: 1.5;"/><rect fill="#FEFECE" filter="url(#ft0d92dhfg6zd)" height="34.1328" rx="12.5" ry="12.5" style="stroke: #A80036; stroke-width: 1.5;" width="265" x="6" y="307"/><text fill="#000000" font-family="sans-serif" font-size="12" lengthAdjust="spacingAndGlyphs" textLength="245" x="16" y="328.6016">return RandomGraphComponentRecreator</text><rect fill="#FEFECE" filter="url(#ft0d92dhfg6zd)" height="34.1328" rx="12.5" ry="12.5" style="stroke: #A80036; stroke-width: 1.5;" width="207" x="217" y="382"/><text fill="#000000" font-family="sans-serif" font-size="12" lengthAdjust="spacingAndGlyphs" textLength="187" x="227" y="403.6016">create operationOrderGenerator</text><rect fill="#FEFECE" filter="url(#ft0d92dhfg6zd)" height="34.1328" rx="12.5" ry="12.5" style="stroke: #A80036; stroke-width: 1.5;" width="262" x="372.5" y="307"/><text fill="#000000" font-family="sans-serif" font-size="12" lengthAdjust="spacingAndGlyphs" textLength="242" x="382.5" y="328.6016">return RandomGraphComponentRecorder</text><polygon fill="#FEFECE" filter="url(#ft0d92dhfg6zd)" points="320.5,462,332.5,474,320.5,486,308.5,474,320.5,462" style="stroke: #A80036; stroke-width: 1.5;"/><rect fill="#FEFECE" filter="url(#ft0d92dhfg6zd)" height="34.1328" rx="12.5" ry="12.5" style="stroke: #A80036; stroke-width: 1.5;" width="206" x="61.5" y="457"/><text fill="#000000" font-family="sans-serif" font-size="12" lengthAdjust="spacingAndGlyphs" textLength="186" x="71.5" y="478.6016">return OperationOrderRecreator</text><ellipse cx="316.5" cy="542" fill="none" filter="url(#ft0d92dhfg6zd)" rx="10" ry="10" style="stroke: #000000; stroke-width: 1.0;"/><ellipse cx="317" cy="542.5" fill="#000000" rx="6" ry="6" style="stroke: none; stroke-width: 1.0;"/><rect fill="#FEFECE" filter="url(#ft0d92dhfg6zd)" height="34.1328" rx="12.5" ry="12.5" style="stroke: #A80036; stroke-width: 1.5;" width="203" x="369" y="457"/><text fill="#000000" font-family="sans-serif" font-size="12" lengthAdjust="spacingAndGlyphs" textLength="183" x="379" y="478.6016">return OperationOrderRecorder</text><!--link start to load parameters--><path d="M159.5,28.2587 C159.5,40.3447 159.5,60.7784 159.5,76.586 " fill="none" id="start-load parameters" style="stroke: #A80036; stroke-width: 1.0;"/><polygon fill="#A80036" points="159.5,81.7507,163.5,72.7507,159.5,76.7507,155.5,72.7507,159.5,81.7507" style="stroke: #A80036; stroke-width: 1.0;"/><text fill="#000000" font-family="sans-serif" font-size="11" lengthAdjust="spacingAndGlyphs" textLength="106" x="160.5" y="59.6348">GraphWorkload::init</text><!--link load parameters to create graphDataGenerator--><path d="M217.5781,99 C222.6234,99 227.6686,99 232.7139,99 " fill="none" id="load parameters-create graphDataGenerator" style="stroke: #A80036; stroke-width: 1.0;"/><polygon fill="#A80036" points="237.7591,99,228.7591,95,232.7591,99,228.7591,103,237.7591,99" style="stroke: #A80036; stroke-width: 1.0;"/><!--link create graphDataGenerator to #27873--><path d="M327.5,116.0187 C327.5,128.1619 327.5,144.4383 327.5,156.6547 " fill="none" id="create graphDataGenerator-#27873" style="stroke: #A80036; stroke-width: 1.0;"/><polygon fill="#A80036" points="327.5,161.9526,331.5,152.9526,327.5,156.9526,323.5,152.9526,327.5,161.9526" style="stroke: #A80036; stroke-width: 1.0;"/><text fill="#000000" font-family="sans-serif" font-size="11" lengthAdjust="spacingAndGlyphs" textLength="66" x="261.5661" y="146.6709">files present</text><!--link return GraphDataRecreator to #27873--><path d="M279.838,174 C293.8347,174 306.4699,174 315.2086,174 " fill="none" id="return GraphDataRecreator-#27873" style="stroke: #A80036; stroke-width: 1.0;"/><polygon fill="#A80036" points="274.6244,174,283.6244,178,279.6244,174,283.6244,170,274.6244,174" style="stroke: #A80036; stroke-width: 1.0;"/><text fill="#000000" font-family="sans-serif" font-size="11" lengthAdjust="spacingAndGlyphs" textLength="19" x="285.5" y="168.6348">Yes</text><!--link return GraphDataRecreator to create randomGraphComponentGenerator--><path d="M216.8143,191.0187 C237.7506,202.3971 265.3643,217.4045 287.2526,229.3003 " fill="none" id="return GraphDataRecreator-create randomGraphComponentGenerator" style="stroke: #A80036; stroke-width: 1.0;"/><polygon fill="#A80036" points="291.8319,231.7891,285.8343,223.977,287.4388,229.4015,282.0142,231.006,291.8319,231.7891" style="stroke: #A80036; stroke-width: 1.0;"/><!--link #27873 to return GraphDataRecorder--><path d="M339.5691,174 C347.362,174 358.2993,174 370.4815,174 " fill="none" id="#27873-return GraphDataRecorder" style="stroke: #A80036; stroke-width: 1.0;"/><polygon fill="#A80036" points="375.7731,174,366.7731,170,370.7731,174,366.7731,178,375.7731,174" style="stroke: #A80036; stroke-width: 1.0;"/><text fill="#000000" font-family="sans-serif" font-size="11" lengthAdjust="spacingAndGlyphs" textLength="15" x="350.25" y="168.6348">No</text><!--link return GraphDataRecorder to create randomGraphComponentGenerator--><path d="M431.7318,191.0187 C410.4921,202.3971 382.4782,217.4045 360.2728,229.3003 " fill="none" id="return GraphDataRecorder-create randomGraphComponentGenerator" style="stroke: #A80036; stroke-width: 1.0;"/><polygon fill="#A80036" points="355.6271,231.7891,365.4493,231.065,360.0345,229.428,361.6715,224.0132,355.6271,231.7891" style="stroke: #A80036; stroke-width: 1.0;"/><!--link create randomGraphComponentGenerator to #27884--><path d="M323.5,266.0187 C323.5,278.1619 323.5,294.4383 323.5,306.6547 " fill="none" id="create randomGraphComponentGenerator-#27884" style="stroke: #A80036; stroke-width: 1.0;"/><polygon fill="#A80036" points="323.5,311.9526,327.5,302.9526,323.5,306.9526,319.5,302.9526,323.5,311.9526" style="stroke: #A80036; stroke-width: 1.0;"/><text fill="#000000" font-family="sans-serif" font-size="11" lengthAdjust="spacingAndGlyphs" textLength="66" x="316.4276" y="296.6709">files present</text><!--link return RandomGraphComponentRecreator to #27884--><path d="M276.7496,324 C290.8439,324 303.0441,324 311.4441,324 " fill="none" id="return RandomGraphComponentRecreator-#27884" style="stroke: #A80036; stroke-width: 1.0;"/><polygon fill="#A80036" points="271.4749,324,280.4749,328,276.4749,324,280.4749,320,271.4749,324" style="stroke: #A80036; stroke-width: 1.0;"/><text fill="#000000" font-family="sans-serif" font-size="11" lengthAdjust="spacingAndGlyphs" textLength="19" x="281.75" y="318.6348">Yes</text><!--link return RandomGraphComponentRecreator to create operationOrderGenerator--><path d="M179.7986,341.0187 C207.856,352.5808 245.0064,367.89 274.0874,379.8739 " fill="none" id="return RandomGraphComponentRecreator-create operationOrderGenerator" style="stroke: #A80036; stroke-width: 1.0;"/><polygon fill="#A80036" points="279.0502,381.919,272.2531,374.7916,274.4274,380.0139,269.205,382.1881,279.0502,381.919" style="stroke: #A80036; stroke-width: 1.0;"/><!--link #27884 to return RandomGraphComponentRecorder--><path d="M335.5898,324 C343.3836,324 354.4291,324 367.1799,324 " fill="none" id="#27884-return RandomGraphComponentRecorder" style="stroke: #A80036; stroke-width: 1.0;"/><polygon fill="#A80036" points="372.3441,324,363.3441,320,367.3441,324,363.3441,328,372.3441,324" style="stroke: #A80036; stroke-width: 1.0;"/><text fill="#000000" font-family="sans-serif" font-size="11" lengthAdjust="spacingAndGlyphs" textLength="15" x="346.5" y="318.6348">No</text><!--link return RandomGraphComponentRecorder to create operationOrderGenerator--><path d="M461.9745,341.0187 C433.6464,352.6285 396.0996,368.0166 366.8055,380.0223 " fill="none" id="return RandomGraphComponentRecorder-create operationOrderGenerator" style="stroke: #A80036; stroke-width: 1.0;"/><polygon fill="#A80036" points="362.1775,381.919,372.0221,382.2071,366.804,380.0228,368.9883,374.8047,362.1775,381.919" style="stroke: #A80036; stroke-width: 1.0;"/><!--link create operationOrderGenerator to #27895--><path d="M320.5,416.0187 C320.5,428.1619 320.5,444.4383 320.5,456.6547 " fill="none" id="create operationOrderGenerator-#27895" style="stroke: #A80036; stroke-width: 1.0;"/><polygon fill="#A80036" points="320.5,461.9526,324.5,452.9526,320.5,456.9526,316.5,452.9526,320.5,461.9526" style="stroke: #A80036; stroke-width: 1.0;"/><text fill="#000000" font-family="sans-serif" font-size="11" lengthAdjust="spacingAndGlyphs" textLength="66" x="318.9589" y="446.6709">files present</text><!--link return OperationOrderRecreator to #27895--><path d="M272.9766,474 C287.1541,474 299.7375,474 308.3888,474 " fill="none" id="return OperationOrderRecreator-#27895" style="stroke: #A80036; stroke-width: 1.0;"/><polygon fill="#A80036" points="267.6855,474,276.6855,478,272.6855,474,276.6855,470,267.6855,474" style="stroke: #A80036; stroke-width: 1.0;"/><text fill="#000000" font-family="sans-serif" font-size="11" lengthAdjust="spacingAndGlyphs" textLength="19" x="278.5" y="468.6348">Yes</text><!--link return OperationOrderRecreator to end--><path d="M202.856,491.1593 C235.3977,505.7174 280.258,525.7865 302.6362,535.7978 " fill="none" id="return OperationOrderRecreator-end" style="stroke: #A80036; stroke-width: 1.0;"/><polygon fill="#A80036" points="307.3128,537.8899,300.7311,530.5632,302.7488,535.8479,297.464,537.8656,307.3128,537.8899" style="stroke: #A80036; stroke-width: 1.0;"/><!--link #27895 to return OperationOrderRecorder--><path d="M332.5216,474 C340.316,474 351.3131,474 363.7365,474 " fill="none" id="#27895-return OperationOrderRecorder" style="stroke: #A80036; stroke-width: 1.0;"/><polygon fill="#A80036" points="368.7551,474,359.7551,470,363.7551,474,359.7551,478,368.7551,474" style="stroke: #A80036; stroke-width: 1.0;"/><text fill="#000000" font-family="sans-serif" font-size="11" lengthAdjust="spacingAndGlyphs" textLength="15" x="343.25" y="468.6348">No</text><!--link return OperationOrderRecorder to end--><path d="M431.6393,491.1593 C398.6694,505.7174 353.2188,525.7865 330.5462,535.7978 " fill="none" id="return OperationOrderRecorder-end" style="stroke: #A80036; stroke-width: 1.0;"/><polygon fill="#A80036" points="325.8081,537.8899,335.6569,537.9136,330.382,535.8702,332.4254,530.5953,325.8081,537.8899" style="stroke: #A80036; stroke-width: 1.0;"/><!--
@startuml
(*) - -> [GraphWorkload::init] "load parameters"
-> "create graphDataGenerator"
if "files present"
-left-> [Yes] "return GraphDataRecreator"
- -> "create randomGraphComponentGenerator"
else
-right-> [No] "return GraphDataRecorder"
- -> "create randomGraphComponentGenerator"
endif

if "files present"
-left-> [Yes] "return RandomGraphComponentRecreator"
- -> "create operationOrderGenerator"
else
-right-> [No] "return RandomGraphComponentRecorder"
- -> "create operationOrderGenerator"
endif

if "files present"
-left-> [Yes] "return OperationOrderRecreator"
- -> (*)
else
-right-> [No] "return OperationOrderRecorder"
endif
- ->(*)
@enduml

PlantUML version 1.2018.01(Sun Jan 28 19:08:22 CET 2018)
(GPL source distribution)
Java Runtime: OpenJDK Runtime Environment
JVM: OpenJDK 64-Bit Server VM
Java Version: 1.8.0_152-release-1136-b20
Operating System: Mac OS X
OS Version: 10.13.4
Default Encoding: UTF-8
Language: en
Country: DE
--></g></svg>