<?xml version="1.0" encoding="UTF-8" standalone="no"?><svg xmlns="http://www.w3.org/2000/svg" xmlns:xlink="http://www.w3.org/1999/xlink" contentScriptType="application/ecmascript" contentStyleType="text/css" height="557px" preserveAspectRatio="none" style="width:566px;height:557px;" version="1.1" viewBox="0 0 566 557" width="566px" zoomAndPan="magnify"><defs><filter height="300%" id="fp1ye1r10oxau" width="300%" x="-1" y="-1"><feGaussianBlur result="blurOut" stdDeviation="2.0"/><feColorMatrix in="blurOut" result="blurOut2" type="matrix" values="0 0 0 0 0 0 0 0 0 0 0 0 0 0 0 0 0 0 .4 0"/><feOffset dx="4.0" dy="4.0" in="blurOut2" result="blurOut3"/><feBlend in="SourceGraphic" in2="blurOut3" mode="normal"/></filter></defs><g><ellipse cx="239" cy="18" fill="#000000" filter="url(#fp1ye1r10oxau)" rx="10" ry="10" style="stroke: none; stroke-width: 1.0;"/><rect fill="#FEFECE" filter="url(#fp1ye1r10oxau)" height="34.1328" rx="12.5" ry="12.5" style="stroke: #A80036; stroke-width: 1.5;" width="281" x="98.5" y="82"/><text fill="#000000" font-family="sans-serif" font-size="12" lengthAdjust="spacingAndGlyphs" textLength="261" x="108.5" y="103.6016">get operation from OperationOrderGenerator</text><polygon fill="#FEFECE" filter="url(#fp1ye1r10oxau)" points="239,157,251,169,239,181,227,169,239,157" style="stroke: #A80036; stroke-width: 1.5;"/><rect fill="#FEFECE" filter="url(#fp1ye1r10oxau)" height="34.1328" rx="12.5" ry="12.5" style="stroke: #A80036; stroke-width: 1.5;" width="253" x="14.5" y="235"/><text fill="#000000" font-family="sans-serif" font-size="12" lengthAdjust="spacingAndGlyphs" textLength="233" x="24.5" y="256.6016">get subgraph from GraphDataGenerator</text><rect fill="#FEFECE" filter="url(#fp1ye1r10oxau)" height="34.1328" rx="12.5" ry="12.5" style="stroke: #A80036; stroke-width: 1.5;" width="226" x="6" y="343"/><text fill="#000000" font-family="sans-serif" font-size="12" lengthAdjust="spacingAndGlyphs" textLength="206" x="16" y="364.6016">insert nodes from subgraph into db</text><rect fill="#FEFECE" filter="url(#fp1ye1r10oxau)" height="34.1328" rx="12.5" ry="12.5" style="stroke: #A80036; stroke-width: 1.5;" width="226" x="50" y="451"/><text fill="#000000" font-family="sans-serif" font-size="12" lengthAdjust="spacingAndGlyphs" textLength="206" x="60" y="472.6016">insert edges from subgraph into db</text><ellipse cx="240" cy="536" fill="none" filter="url(#fp1ye1r10oxau)" rx="10" ry="10" style="stroke: #000000; stroke-width: 1.0;"/><ellipse cx="240.5" cy="536.5" fill="#000000" rx="6" ry="6" style="stroke: none; stroke-width: 1.0;"/><rect fill="#FEFECE" filter="url(#fp1ye1r10oxau)" height="34.1328" rx="12.5" ry="12.5" style="stroke: #A80036; stroke-width: 1.5;" width="436" x="119" y="289"/><text fill="#000000" font-family="sans-serif" font-size="12" lengthAdjust="spacingAndGlyphs" textLength="416" x="129" y="310.6016">get random graph component from RandomGraphComponentGenerator</text><rect fill="#FEFECE" filter="url(#fp1ye1r10oxau)" height="34.1328" rx="12.5" ry="12.5" style="stroke: #A80036; stroke-width: 1.5;" width="305" x="175.5" y="397"/><text fill="#000000" font-family="sans-serif" font-size="12" lengthAdjust="spacingAndGlyphs" textLength="285" x="185.5" y="418.6016">execution operation on db with graph component</text><!--link start to get operation from OperationOrderGenerator--><path d="M239,28.2587 C239,40.3447 239,60.7784 239,76.586 " fill="none" id="start-get operation from OperationOrderGenerator" style="stroke: #A80036; stroke-width: 1.0;"/><polygon fill="#A80036" points="239,81.7507,243,72.7507,239,76.7507,235,72.7507,239,81.7507" style="stroke: #A80036; stroke-width: 1.0;"/><text fill="#000000" font-family="sans-serif" font-size="11" lengthAdjust="spacingAndGlyphs" textLength="117" x="240" y="59.6348">doTransaction(DB db)</text><!--link get operation from OperationOrderGenerator to #46139--><path d="M239,116.3034 C239,127.1588 239,141.0963 239,151.9108 " fill="none" id="get operation from OperationOrderGenerator-#46139" style="stroke: #A80036; stroke-width: 1.0;"/><polygon fill="#A80036" points="239,156.9417,243,147.9417,239,151.9417,235,147.9417,239,156.9417" style="stroke: #A80036; stroke-width: 1.0;"/><text fill="#000000" font-family="sans-serif" font-size="11" lengthAdjust="spacingAndGlyphs" textLength="98" x="120.7875" y="148.3244">operation is insert</text><!--link #46139 to get subgraph from GraphDataGenerator--><path d="M232.2641,174.7049 C218.6668,186.2209 187.3506,212.7439 165.2067,231.4984 " fill="none" id="#46139-get subgraph from GraphDataGenerator" style="stroke: #A80036; stroke-width: 1.0;"/><polygon fill="#A80036" points="161.185,234.9046,170.638,232.1403,165.0004,231.6731,165.4676,226.0356,161.185,234.9046" style="stroke: #A80036; stroke-width: 1.0;"/><text fill="#000000" font-family="sans-serif" font-size="11" lengthAdjust="spacingAndGlyphs" textLength="19" x="200" y="212.6348">Yes</text><!--link get subgraph from GraphDataGenerator to insert nodes from subgraph into db--><path d="M127.6132,269.1109 C123.7259,275.0693 119.9932,282.0179 118,289 C113.4489,304.9418 113.9555,323.7282 115.4617,337.9709 " fill="none" id="get subgraph from GraphDataGenerator-insert nodes from subgraph into db" style="stroke: #A80036; stroke-width: 1.0;"/><polygon fill="#A80036" points="116.0544,342.999,118.9731,333.5926,115.469,338.0334,111.0282,334.5292,116.0544,342.999" style="stroke: #A80036; stroke-width: 1.0;"/><!--link insert nodes from subgraph into db to insert edges from subgraph into db--><path d="M126.0694,377.3521 C133.6708,396.0102 145.7751,425.7207 154.039,446.0048 " fill="none" id="insert nodes from subgraph into db-insert edges from subgraph into db" style="stroke: #A80036; stroke-width: 1.0;"/><polygon fill="#A80036" points="155.9482,450.691,156.2567,440.847,154.0616,446.0606,148.848,443.8655,155.9482,450.691" style="stroke: #A80036; stroke-width: 1.0;"/><!--link insert edges from subgraph into db to end--><path d="M182.4304,485.1593 C197.0002,498.0262 216.4448,515.198 228.5927,525.926 " fill="none" id="insert edges from subgraph into db-end" style="stroke: #A80036; stroke-width: 1.0;"/><polygon fill="#A80036" points="232.415,529.3016,228.3169,520.3459,228.6673,525.9918,223.0213,526.3422,232.415,529.3016" style="stroke: #A80036; stroke-width: 1.0;"/><!--link #46139 to get random graph component from RandomGraphComponentGenerator--><path d="M244.2689,176.3657 C258.6684,196.4956 299.0992,253.0163 321.5267,284.369 " fill="none" id="#46139-get random graph component from RandomGraphComponentGenerator" style="stroke: #A80036; stroke-width: 1.0;"/><polygon fill="#A80036" points="324.6998,288.8049,322.7166,279.1578,321.7907,284.7383,316.2101,283.8124,324.6998,288.8049" style="stroke: #A80036; stroke-width: 1.0;"/><text fill="#000000" font-family="sans-serif" font-size="11" lengthAdjust="spacingAndGlyphs" textLength="15" x="273" y="212.6348">No</text><!--link get random graph component from RandomGraphComponentGenerator to execution operation on db with graph component--><path d="M335.554,323.3521 C334.0123,341.8528 331.565,371.22 329.8759,391.4893 " fill="none" id="get random graph component from RandomGraphComponentGenerator-execution operation on db with graph component" style="stroke: #A80036; stroke-width: 1.0;"/><polygon fill="#A80036" points="329.4424,396.691,334.1761,388.0543,329.8577,391.7083,326.2037,387.3899,329.4424,396.691" style="stroke: #A80036; stroke-width: 1.0;"/><!--link execution operation on db with graph component to end--><path d="M319.0648,431.2418 C311.1216,446.0061 298.8111,467.5775 286,485 C275.1496,499.756 260.7584,515.166 250.9823,525.1323 " fill="none" id="execution operation on db with graph component-end" style="stroke: #A80036; stroke-width: 1.0;"/><polygon fill="#A80036" points="247.3522,528.7991,256.5267,525.2174,250.8699,525.2458,250.8414,519.589,247.3522,528.7991" style="stroke: #A80036; stroke-width: 1.0;"/><!--
@startuml
(*)  - -> [doTransaction(DB db)] "get operation from OperationOrderGenerator"
if operation is insert
- -> [Yes] get subgraph from GraphDataGenerator
- -> insert nodes from subgraph into db
- -> insert edges from subgraph into db
- -> (*)
else
- -> [No] get random graph component from RandomGraphComponentGenerator
- -> execution operation on db with graph component
- ->(*)
@enduml

PlantUML version 1.2018.01(Sun Jan 28 19:08:22 CET 2018)
(GPL source distribution)
Java Runtime: OpenJDK Runtime Environment
JVM: OpenJDK 64-Bit Server VM
Java Version: 1.8.0_152-release-1136-b20
Operating System: Mac OS X
OS Version: 10.13.4
Default Encoding: UTF-8
Language: en
Country: DE
--></g></svg>