<?xml version="1.0" encoding="UTF-8" standalone="no"?><svg xmlns="http://www.w3.org/2000/svg" xmlns:xlink="http://www.w3.org/1999/xlink" contentScriptType="application/ecmascript" contentStyleType="text/css" height="338px" preserveAspectRatio="none" style="width:537px;height:338px;" version="1.1" viewBox="0 0 537 338" width="537px" zoomAndPan="magnify"><defs><filter height="300%" id="f17cn5ya63vggv" width="300%" x="-1" y="-1"><feGaussianBlur result="blurOut" stdDeviation="2.0"/><feColorMatrix in="blurOut" result="blurOut2" type="matrix" values="0 0 0 0 0 0 0 0 0 0 0 0 0 0 0 0 0 0 .4 0"/><feOffset dx="4.0" dy="4.0" in="blurOut2" result="blurOut3"/><feBlend in="SourceGraphic" in2="blurOut3" mode="normal"/></filter></defs><g><ellipse cx="211" cy="18" fill="#000000" filter="url(#f17cn5ya63vggv)" rx="10" ry="10" style="stroke: none; stroke-width: 1.0;"/><polygon fill="#FEFECE" filter="url(#f17cn5ya63vggv)" points="211,87,223,99,211,111,199,99,211,87" style="stroke: #A80036; stroke-width: 1.5;"/><rect fill="#FEFECE" filter="url(#f17cn5ya63vggv)" height="34.1328" rx="12.5" ry="12.5" style="stroke: #A80036; stroke-width: 1.5;" width="152" x="6" y="82"/><text fill="#000000" font-family="sans-serif" font-size="12" lengthAdjust="spacingAndGlyphs" textLength="132" x="16" y="103.6016">read next line from file</text><rect fill="#FEFECE" filter="url(#f17cn5ya63vggv)" height="34.1328" rx="12.5" ry="12.5" style="stroke: #A80036; stroke-width: 1.5;" width="114" x="142" y="232"/><text fill="#000000" font-family="sans-serif" font-size="12" lengthAdjust="spacingAndGlyphs" textLength="94" x="152" y="253.6016">return operation</text><rect fill="#FEFECE" filter="url(#f17cn5ya63vggv)" height="34.1328" rx="12.5" ry="12.5" style="stroke: #A80036; stroke-width: 1.5;" width="266" x="260" y="82"/><text fill="#000000" font-family="sans-serif" font-size="12" lengthAdjust="spacingAndGlyphs" textLength="246" x="270" y="103.6016">get next operation from DiscreteGenerator</text><rect fill="#FEFECE" filter="url(#f17cn5ya63vggv)" height="34.1328" rx="12.5" ry="12.5" style="stroke: #A80036; stroke-width: 1.5;" width="141" x="269.5" y="157"/><text fill="#000000" font-family="sans-serif" font-size="12" lengthAdjust="spacingAndGlyphs" textLength="121" x="279.5" y="178.6016">save operation to file</text><ellipse cx="199" cy="317" fill="none" filter="url(#f17cn5ya63vggv)" rx="10" ry="10" style="stroke: #000000; stroke-width: 1.0;"/><ellipse cx="199.5" cy="317.5" fill="#000000" rx="6" ry="6" style="stroke: none; stroke-width: 1.0;"/><!--link start to #27199--><path d="M211,28.2587 C211,41.7215 211,65.5425 211,81.7893 " fill="none" id="start-#27199" style="stroke: #A80036; stroke-width: 1.0;"/><polygon fill="#A80036" points="211,86.9828,215,77.9828,211,81.9828,207,77.9828,211,86.9828" style="stroke: #A80036; stroke-width: 1.0;"/><text fill="#000000" font-family="sans-serif" font-size="11" lengthAdjust="spacingAndGlyphs" textLength="104" x="212" y="59.6348">getNextOperation()</text><text fill="#000000" font-family="sans-serif" font-size="11" lengthAdjust="spacingAndGlyphs" textLength="66" x="142.6693" y="71.725">files present</text><!--link read next line from file to #27199--><path d="M163.3445,99 C177.2962,99 190.1172,99 198.9383,99 " fill="none" id="read next line from file-#27199" style="stroke: #A80036; stroke-width: 1.0;"/><polygon fill="#A80036" points="158.1586,99,167.1586,103,163.1586,99,167.1586,95,158.1586,99" style="stroke: #A80036; stroke-width: 1.0;"/><text fill="#000000" font-family="sans-serif" font-size="11" lengthAdjust="spacingAndGlyphs" textLength="19" x="169" y="93.6348">Yes</text><!--link read next line from file to return operation--><path d="M95.4214,116.2069 C116.9324,143.7851 159.0765,197.816 182.4305,227.7571 " fill="none" id="read next line from file-return operation" style="stroke: #A80036; stroke-width: 1.0;"/><polygon fill="#A80036" points="185.7351,231.9938,183.3535,222.4372,182.6598,228.0514,177.0457,227.3577,185.7351,231.9938" style="stroke: #A80036; stroke-width: 1.0;"/><!--link #27199 to get next operation from DiscreteGenerator--><path d="M223.2241,99 C231.0342,99 242.0736,99 254.8203,99 " fill="none" id="#27199-get next operation from DiscreteGenerator" style="stroke: #A80036; stroke-width: 1.0;"/><polygon fill="#A80036" points="259.9831,99,250.9831,95,254.9831,99,250.9831,103,259.9831,99" style="stroke: #A80036; stroke-width: 1.0;"/><text fill="#000000" font-family="sans-serif" font-size="11" lengthAdjust="spacingAndGlyphs" textLength="15" x="234" y="93.6348">No</text><!--link get next operation from DiscreteGenerator to save operation to file--><path d="M380.9735,116.0187 C373.3028,126.8734 363.2983,141.0308 355.0953,152.6387 " fill="none" id="get next operation from DiscreteGenerator-save operation to file" style="stroke: #A80036; stroke-width: 1.0;"/><polygon fill="#A80036" points="352.1624,156.7891,360.623,151.7475,355.0479,152.7057,354.0897,147.1306,352.1624,156.7891" style="stroke: #A80036; stroke-width: 1.0;"/><!--link save operation to file to return operation--><path d="M308.0049,191.0187 C286.6135,202.3971 258.3995,217.4045 236.0354,229.3003 " fill="none" id="save operation to file-return operation" style="stroke: #A80036; stroke-width: 1.0;"/><polygon fill="#A80036" points="231.3565,231.7891,241.1808,231.094,235.7708,229.441,237.4238,224.031,231.3565,231.7891" style="stroke: #A80036; stroke-width: 1.0;"/><!--link return operation to end--><path d="M199,266.1593 C199,277.0147 199,290.9343 199,301.4633 " fill="none" id="return operation-end" style="stroke: #A80036; stroke-width: 1.0;"/><polygon fill="#A80036" points="199,306.626,203,297.626,199,301.626,195,297.626,199,306.626" style="stroke: #A80036; stroke-width: 1.0;"/><!--
@startuml
(*)  - -> [getNextOperation()] if files present then
-left-> [Yes] read next line from file
- -> return operation
else
-right-> [No] get next operation from DiscreteGenerator
- -> save operation to file
- -> return operation
- ->(*)
@enduml

PlantUML version 1.2018.01(Sun Jan 28 19:08:22 CET 2018)
(GPL source distribution)
Java Runtime: OpenJDK Runtime Environment
JVM: OpenJDK 64-Bit Server VM
Java Version: 1.8.0_152-release-1136-b20
Operating System: Mac OS X
OS Version: 10.13.4
Default Encoding: UTF-8
Language: en
Country: DE
--></g></svg>