<?xml version="1.0" encoding="UTF-8" standalone="no"?><svg xmlns="http://www.w3.org/2000/svg" xmlns:xlink="http://www.w3.org/1999/xlink" contentScriptType="application/ecmascript" contentStyleType="text/css" height="766px" preserveAspectRatio="none" style="width:1531px;height:766px;" version="1.1" viewBox="0 0 1531 766" width="1531px" zoomAndPan="magnify"><defs><filter height="300%" id="foeg6midsvdk7" width="300%" x="-1" y="-1"><feGaussianBlur result="blurOut" stdDeviation="2.0"/><feColorMatrix in="blurOut" result="blurOut2" type="matrix" values="0 0 0 0 0 0 0 0 0 0 0 0 0 0 0 0 0 0 .4 0"/><feOffset dx="4.0" dy="4.0" in="blurOut2" result="blurOut3"/><feBlend in="SourceGraphic" in2="blurOut3" mode="normal"/></filter></defs><g><ellipse cx="762" cy="18" fill="#000000" filter="url(#foeg6midsvdk7)" rx="10" ry="10" style="stroke: none; stroke-width: 1.0;"/><rect fill="#FEFECE" filter="url(#foeg6midsvdk7)" height="43.5547" rx="12.5" ry="12.5" style="stroke: #A80036; stroke-width: 1.5;" width="217" x="653.5" y="93"/><text fill="#000000" font-family="sans-serif" font-size="20" lengthAdjust="spacingAndGlyphs" textLength="197" x="663.5" y="122.3359">randomNodeOrEdge</text><polygon fill="#FEFECE" filter="url(#foeg6midsvdk7)" points="762,188,774,200,762,212,750,200,762,188" style="stroke: #A80036; stroke-width: 1.5;"/><rect fill="#FEFECE" filter="url(#foeg6midsvdk7)" height="43.5547" rx="12.5" ry="12.5" style="stroke: #A80036; stroke-width: 1.5;" width="265" x="421.5" y="178"/><text fill="#000000" font-family="sans-serif" font-size="20" lengthAdjust="spacingAndGlyphs" textLength="245" x="431.5" y="207.3359">read component from file</text><rect fill="#FEFECE" filter="url(#foeg6midsvdk7)" height="43.5547" rx="12.5" ry="12.5" style="stroke: #A80036; stroke-width: 1.5;" width="238" x="646" y="263"/><text fill="#000000" font-family="sans-serif" font-size="20" lengthAdjust="spacingAndGlyphs" textLength="218" x="656" y="292.3359">get kind of component</text><polygon fill="#FEFECE" filter="url(#foeg6midsvdk7)" points="765,348,777,360,765,372,753,360,765,348" style="stroke: #A80036; stroke-width: 1.5;"/><polygon fill="#FEFECE" filter="url(#foeg6midsvdk7)" points="471,348,483,360,471,372,459,360,471,348" style="stroke: #A80036; stroke-width: 1.5;"/><rect fill="#FEFECE" filter="url(#foeg6midsvdk7)" height="43.5547" rx="12.5" ry="12.5" style="stroke: #A80036; stroke-width: 1.5;" width="298" x="6" y="501"/><text fill="#000000" font-family="sans-serif" font-size="20" lengthAdjust="spacingAndGlyphs" textLength="278" x="16" y="530.3359">read node identifier from file</text><rect fill="#FEFECE" filter="url(#foeg6midsvdk7)" height="43.5547" rx="12.5" ry="12.5" style="stroke: #A80036; stroke-width: 1.5;" width="192" x="616" y="650"/><text fill="#000000" font-family="sans-serif" font-size="20" lengthAdjust="spacingAndGlyphs" textLength="172" x="626" y="679.3359">return component</text><rect fill="#FEFECE" filter="url(#foeg6midsvdk7)" height="43.5547" rx="12.5" ry="12.5" style="stroke: #A80036; stroke-width: 1.5;" width="555" x="193.5" y="437"/><text fill="#000000" font-family="sans-serif" font-size="20" lengthAdjust="spacingAndGlyphs" textLength="535" x="203.5" y="466.3359">get maximum node identifier from GraphDataGenerator</text><rect fill="#FEFECE" filter="url(#foeg6midsvdk7)" height="43.5547" rx="12.5" ry="12.5" style="stroke: #A80036; stroke-width: 1.5;" width="530" x="222" y="565"/><text fill="#000000" font-family="sans-serif" font-size="20" lengthAdjust="spacingAndGlyphs" textLength="510" x="232" y="594.3359">pick random node identifier in range [1..maxNodeId]</text><polygon fill="#FEFECE" filter="url(#foeg6midsvdk7)" points="1055,348,1067,360,1055,372,1043,360,1055,348" style="stroke: #A80036; stroke-width: 1.5;"/><rect fill="#FEFECE" filter="url(#foeg6midsvdk7)" height="43.5547" rx="12.5" ry="12.5" style="stroke: #A80036; stroke-width: 1.5;" width="554" x="778" y="437"/><text fill="#000000" font-family="sans-serif" font-size="20" lengthAdjust="spacingAndGlyphs" textLength="534" x="788" y="466.3359">get maximum edge identifier from GraphDataGenerator</text><rect fill="#FEFECE" filter="url(#foeg6midsvdk7)" height="43.5547" rx="12.5" ry="12.5" style="stroke: #A80036; stroke-width: 1.5;" width="525" x="788.5" y="565"/><text fill="#000000" font-family="sans-serif" font-size="20" lengthAdjust="spacingAndGlyphs" textLength="505" x="798.5" y="594.3359">pick random edge identifier in range [1..maxEdgeId]</text><rect fill="#FEFECE" filter="url(#foeg6midsvdk7)" height="43.5547" rx="12.5" ry="12.5" style="stroke: #A80036; stroke-width: 1.5;" width="297" x="1223.5" y="501"/><text fill="#000000" font-family="sans-serif" font-size="20" lengthAdjust="spacingAndGlyphs" textLength="277" x="1233.5" y="530.3359">read edge identifier from file</text><rect fill="#FEFECE" filter="url(#foeg6midsvdk7)" height="43.5547" rx="12.5" ry="12.5" style="stroke: #A80036; stroke-width: 1.5;" width="291" x="831.5" y="178"/><text fill="#000000" font-family="sans-serif" font-size="20" lengthAdjust="spacingAndGlyphs" textLength="271" x="841.5" y="207.3359">pick node or edge randomly</text><ellipse cx="712" cy="745" fill="none" filter="url(#foeg6midsvdk7)" rx="10" ry="10" style="stroke: #000000; stroke-width: 1.0;"/><ellipse cx="712.5" cy="745.5" fill="#000000" rx="6" ry="6" style="stroke: none; stroke-width: 1.0;"/><!--link start to randomNodeOrEdge--><path d="M762,28.0154 C762,41.9677 762,67.7793 762,87.6751 " fill="none" id="start-randomNodeOrEdge" style="stroke: #A80036; stroke-width: 1.0;"/><polygon fill="#A80036" points="762,92.8545,766,83.8545,762,87.8545,758,83.8545,762,92.8545" style="stroke: #A80036; stroke-width: 1.0;"/><text fill="#000000" font-family="sans-serif" font-size="20" lengthAdjust="spacingAndGlyphs" textLength="109" x="763" y="68.3359">nextValue()</text><!--link randomNodeOrEdge to #41082--><path d="M762,137.3327 C762,151.4496 762,169.431 762,182.5087 " fill="none" id="randomNodeOrEdge-#41082" style="stroke: #A80036; stroke-width: 1.0;"/><polygon fill="#A80036" points="762,187.7877,766,178.7877,762,182.7877,758,178.7877,762,187.7877" style="stroke: #A80036; stroke-width: 1.0;"/><text fill="#000000" font-family="sans-serif" font-size="20" lengthAdjust="spacingAndGlyphs" textLength="277" x="492.3091" y="165.6886">file for component is present</text><!--link read component from file to #41082--><path d="M691.7952,200 C715.8969,200 737.2817,200 749.9394,200 " fill="none" id="read component from file-#41082" style="stroke: #A80036; stroke-width: 1.0;"/><polygon fill="#A80036" points="686.6131,200,695.6131,204,691.6131,200,695.6131,196,686.6131,200" style="stroke: #A80036; stroke-width: 1.0;"/><text fill="#000000" font-family="sans-serif" font-size="20" lengthAdjust="spacingAndGlyphs" textLength="33" x="701.75" y="192.3359">Yes</text><!--link read component from file to get kind of component--><path d="M608.6121,222.0002 C638.284,233.9533 675.0178,248.7512 705.4265,261.0012 " fill="none" id="read component from file-get kind of component" style="stroke: #A80036; stroke-width: 1.0;"/><polygon fill="#A80036" points="710.2505,262.9445,703.3972,255.8711,705.6127,261.0761,700.4078,263.2916,710.2505,262.9445" style="stroke: #A80036; stroke-width: 1.0;"/><!--link get kind of component to #41090--><path d="M765,307.0968 C765,318.4298 765,332.0345 765,342.6095 " fill="none" id="get kind of component-#41090" style="stroke: #A80036; stroke-width: 1.0;"/><polygon fill="#A80036" points="765,347.8353,769,338.8353,765,342.8353,761,338.8353,765,347.8353" style="stroke: #A80036; stroke-width: 1.0;"/><text fill="#000000" font-family="sans-serif" font-size="20" lengthAdjust="spacingAndGlyphs" textLength="130" x="615.0938" y="337.0089">component is</text><!--link #41093 to #41090--><path d="M488.4287,360 C542.472,360 706.371,360 752.6892,360 " fill="none" id="#41093-#41090" style="stroke: #A80036; stroke-width: 1.0;"/><polygon fill="#A80036" points="483.2585,360,492.2585,364,488.2585,360,492.2585,356,483.2585,360" style="stroke: #A80036; stroke-width: 1.0;"/><text fill="#000000" font-family="sans-serif" font-size="20" lengthAdjust="spacingAndGlyphs" textLength="51" x="592.5" y="352.3359">Node</text><text fill="#000000" font-family="sans-serif" font-size="20" lengthAdjust="spacingAndGlyphs" textLength="227" x="490.9219" y="380.0536">file for nodes is present</text><!--link #41093 to read node identifier from file--><path d="M460.0937,361.4193 C412.1593,367.8666 220.7232,395.8699 179,437 C163.4608,452.3183 157.7541,476.7929 155.7651,495.7228 " fill="none" id="#41093-read node identifier from file" style="stroke: #A80036; stroke-width: 1.0;"/><polygon fill="#A80036" points="155.2976,500.9027,160.0904,492.2987,155.747,495.9229,152.1228,491.5796,155.2976,500.9027" style="stroke: #A80036; stroke-width: 1.0;"/><text fill="#000000" font-family="sans-serif" font-size="20" lengthAdjust="spacingAndGlyphs" textLength="33" x="292" y="412.3359">Yes</text><!--link read node identifier from file to return component--><path d="M162.1525,545.3341 C169.8517,565.491 184.1665,594.1854 207,609 C271.6532,650.9476 482.7117,664.9804 610.6081,669.6641 " fill="none" id="read node identifier from file-return component" style="stroke: #A80036; stroke-width: 1.0;"/><polygon fill="#A80036" points="615.878,669.8535,607.0275,665.5328,610.8812,669.6739,606.7401,673.5277,615.878,669.8535" style="stroke: #A80036; stroke-width: 1.0;"/><!--link #41093 to get maximum node identifier from GraphDataGenerator--><path d="M471,372.1393 C471,386.8643 471,412.1345 471,431.634 " fill="none" id="#41093-get maximum node identifier from GraphDataGenerator" style="stroke: #A80036; stroke-width: 1.0;"/><polygon fill="#A80036" points="471,436.9672,475,427.9672,471,431.9672,467,427.9672,471,436.9672" style="stroke: #A80036; stroke-width: 1.0;"/><text fill="#000000" font-family="sans-serif" font-size="20" lengthAdjust="spacingAndGlyphs" textLength="27" x="472" y="412.3359">No</text><!--link get maximum node identifier from GraphDataGenerator to pick random node identifier in range [1..maxNodeId]--><path d="M473.7505,481.004 C476.4751,502.8005 480.6541,536.2324 483.5886,559.7085 " fill="none" id="get maximum node identifier from GraphDataGenerator-pick random node identifier in range [1..maxNodeId]" style="stroke: #A80036; stroke-width: 1.0;"/><polygon fill="#A80036" points="484.2318,564.8548,487.0844,555.4281,483.6115,559.8934,479.1462,556.4205,484.2318,564.8548" style="stroke: #A80036; stroke-width: 1.0;"/><!--link pick random node identifier in range [1..maxNodeId] to return component--><path d="M545.2357,609.0002 C577.0065,621.0025 616.3699,635.8731 648.8737,648.1523 " fill="none" id="pick random node identifier in range [1..maxNodeId]-return component" style="stroke: #A80036; stroke-width: 1.0;"/><polygon fill="#A80036" points="653.6178,649.9445,646.6122,643.022,648.9404,648.1775,643.7849,650.5057,653.6178,649.9445" style="stroke: #A80036; stroke-width: 1.0;"/><!--link #41090 to #41106--><path d="M777.0917,360 C822.6922,360 984.3584,360 1037.7481,360 " fill="none" id="#41090-#41106" style="stroke: #A80036; stroke-width: 1.0;"/><polygon fill="#A80036" points="1042.8567,360,1033.8567,356,1037.8567,360,1033.8567,364,1042.8567,360" style="stroke: #A80036; stroke-width: 1.0;"/><text fill="#000000" font-family="sans-serif" font-size="20" lengthAdjust="spacingAndGlyphs" textLength="47" x="886.5" y="352.3359">Edge</text><text fill="#000000" font-family="sans-serif" font-size="20" lengthAdjust="spacingAndGlyphs" textLength="226" x="808.8397" y="380.0904">file for edges is present</text><!--link #41106 to get maximum edge identifier from GraphDataGenerator--><path d="M1055,372.1393 C1055,386.8643 1055,412.1345 1055,431.634 " fill="none" id="#41106-get maximum edge identifier from GraphDataGenerator" style="stroke: #A80036; stroke-width: 1.0;"/><polygon fill="#A80036" points="1055,436.9672,1059,427.9672,1055,431.9672,1051,427.9672,1055,436.9672" style="stroke: #A80036; stroke-width: 1.0;"/><text fill="#000000" font-family="sans-serif" font-size="20" lengthAdjust="spacingAndGlyphs" textLength="27" x="1056" y="412.3359">No</text><!--link get maximum edge identifier from GraphDataGenerator to pick random edge identifier in range [1..maxEdgeId]--><path d="M1054.3124,481.004 C1053.6312,502.8005 1052.5865,536.2324 1051.8529,559.7085 " fill="none" id="get maximum edge identifier from GraphDataGenerator-pick random edge identifier in range [1..maxEdgeId]" style="stroke: #A80036; stroke-width: 1.0;"/><polygon fill="#A80036" points="1051.692,564.8548,1055.9714,555.9842,1051.8483,559.8572,1047.9753,555.7342,1051.692,564.8548" style="stroke: #A80036; stroke-width: 1.0;"/><!--link pick random edge identifier in range [1..maxEdgeId] to return component--><path d="M963.2582,609.0002 C914.7036,621.1746 854.3789,636.3003 805.0093,648.6791 " fill="none" id="pick random edge identifier in range [1..maxEdgeId]-return component" style="stroke: #A80036; stroke-width: 1.0;"/><polygon fill="#A80036" points="799.9625,649.9445,809.6651,651.6354,804.8124,648.7284,807.7194,643.8756,799.9625,649.9445" style="stroke: #A80036; stroke-width: 1.0;"/><!--link #41106 to read edge identifier from file--><path d="M1065.8956,361.4301 C1113.7847,367.9237 1305.0562,396.0949 1347,437 C1362.6693,452.2813 1368.6654,476.7596 1370.8886,495.7003 " fill="none" id="#41106-read edge identifier from file" style="stroke: #A80036; stroke-width: 1.0;"/><polygon fill="#A80036" points="1371.4205,500.8834,1374.4808,491.5221,1370.9101,495.9095,1366.5226,492.3388,1371.4205,500.8834" style="stroke: #A80036; stroke-width: 1.0;"/><text fill="#000000" font-family="sans-serif" font-size="20" lengthAdjust="spacingAndGlyphs" textLength="33" x="1312" y="412.3359">Yes</text><!--link read edge identifier from file to return component--><path d="M1366.9889,545.3542 C1361.2098,565.5253 1349.5948,594.2293 1328,609 C1286.5523,637.3501 977.46,657.8771 813.4928,666.8983 " fill="none" id="read edge identifier from file-return component" style="stroke: #A80036; stroke-width: 1.0;"/><polygon fill="#A80036" points="808.2032,667.1881,817.4087,670.6894,813.1957,666.9144,816.9707,662.7014,808.2032,667.1881" style="stroke: #A80036; stroke-width: 1.0;"/><!--link #41082 to pick node or edge randomly--><path d="M774.1754,200 C785.7299,200 804.504,200 826.0836,200 " fill="none" id="#41082-pick node or edge randomly" style="stroke: #A80036; stroke-width: 1.0;"/><polygon fill="#A80036" points="831.3255,200,822.3255,196,826.3255,200,822.3255,204,831.3255,200" style="stroke: #A80036; stroke-width: 1.0;"/><text fill="#000000" font-family="sans-serif" font-size="20" lengthAdjust="spacingAndGlyphs" textLength="27" x="789.25" y="192.3359">No</text><!--link pick node or edge randomly to get kind of component--><path d="M922.129,222.0002 C892.3165,233.9533 855.4087,248.7512 824.8559,261.0012 " fill="none" id="pick node or edge randomly-get kind of component" style="stroke: #A80036; stroke-width: 1.0;"/><polygon fill="#A80036" points="820.009,262.9445,829.8512,263.3079,824.6499,261.0838,826.874,255.8825,820.009,262.9445" style="stroke: #A80036; stroke-width: 1.0;"/><!--link return component to end--><path d="M712,694.2991 C712,705.7249 712,719.3503 712,729.5973 " fill="none" id="return component-end" style="stroke: #A80036; stroke-width: 1.0;"/><polygon fill="#A80036" points="712,734.6184,716,725.6184,712,729.6184,708,725.6184,712,734.6184" style="stroke: #A80036; stroke-width: 1.0;"/><!--
@startuml

skinparam ActivityFontSize 20
skinparam ArrowFontSize 20

(*)  - -> [nextValue()] "randomNodeOrEdge"
if file for component is present
-left-> [Yes] read component from file
- -> get kind of component
- -> if component is
    -left-> [Node] if file for nodes is present
        - -> [Yes] read node identifier from file
        - -> return component
        else
        - -> [No] get maximum node identifier from GraphDataGenerator
        - -> pick random node identifier in range [1..maxNodeId]
        - -> return component
        endif
    else
    -right-> [Edge] if file for edges is present
        - -> [No] get maximum edge identifier from GraphDataGenerator
        - -> pick random edge identifier in range [1..maxEdgeId]
        - -> return component
        else
        - -> [Yes] read edge identifier from file
        - -> return component
        endif
    endif
else
-right-> [No] pick node or edge randomly
- -> get kind of component

"return component" - -> (*)
@enduml

PlantUML version 1.2018.01(Sun Jan 28 19:08:22 CET 2018)
(GPL source distribution)
Java Runtime: OpenJDK Runtime Environment
JVM: OpenJDK 64-Bit Server VM
Java Version: 1.8.0_152-release-1136-b20
Operating System: Mac OS X
OS Version: 10.13.4
Default Encoding: UTF-8
Language: en
Country: DE
--></g></svg>