<?xml version="1.0" encoding="UTF-8" standalone="no"?><svg xmlns="http://www.w3.org/2000/svg" xmlns:xlink="http://www.w3.org/1999/xlink" contentScriptType="application/ecmascript" contentStyleType="text/css" height="674px" preserveAspectRatio="none" style="width:966px;height:674px;" version="1.1" viewBox="0 0 966 674" width="966px" zoomAndPan="magnify"><defs><filter height="300%" id="fvusccec0tmxb" width="300%" x="-1" y="-1"><feGaussianBlur result="blurOut" stdDeviation="2.0"/><feColorMatrix in="blurOut" result="blurOut2" type="matrix" values="0 0 0 0 0 0 0 0 0 0 0 0 0 0 0 0 0 0 .4 0"/><feOffset dx="4.0" dy="4.0" in="blurOut2" result="blurOut3"/><feBlend in="SourceGraphic" in2="blurOut3" mode="normal"/></filter></defs><g><ellipse cx="479.5" cy="18" fill="#000000" filter="url(#fvusccec0tmxb)" rx="10" ry="10" style="stroke: none; stroke-width: 1.0;"/><rect fill="#FEFECE" filter="url(#fvusccec0tmxb)" height="34.1328" rx="12.5" ry="12.5" style="stroke: #A80036; stroke-width: 1.5;" width="139" x="410" y="82"/><text fill="#000000" font-family="sans-serif" font-size="12" lengthAdjust="spacingAndGlyphs" textLength="119" x="420" y="103.6016">randomNodeOrEdge</text><polygon fill="#FEFECE" filter="url(#fvusccec0tmxb)" points="479.5,162,491.5,174,479.5,186,467.5,174,479.5,162" style="stroke: #A80036; stroke-width: 1.5;"/><rect fill="#FEFECE" filter="url(#fvusccec0tmxb)" height="34.1328" rx="12.5" ry="12.5" style="stroke: #A80036; stroke-width: 1.5;" width="167" x="260" y="157"/><text fill="#000000" font-family="sans-serif" font-size="12" lengthAdjust="spacingAndGlyphs" textLength="147" x="270" y="178.6016">read component from file</text><rect fill="#FEFECE" filter="url(#fvusccec0tmxb)" height="34.1328" rx="12.5" ry="12.5" style="stroke: #A80036; stroke-width: 1.5;" width="150" x="406.5" y="232"/><text fill="#000000" font-family="sans-serif" font-size="12" lengthAdjust="spacingAndGlyphs" textLength="130" x="416.5" y="253.6016">get kind of component</text><polygon fill="#FEFECE" filter="url(#fvusccec0tmxb)" points="481.5,307,493.5,319,481.5,331,469.5,319,481.5,307" style="stroke: #A80036; stroke-width: 1.5;"/><polygon fill="#FEFECE" filter="url(#fvusccec0tmxb)" points="298.5,307,310.5,319,298.5,331,286.5,319,298.5,307" style="stroke: #A80036; stroke-width: 1.5;"/><rect fill="#FEFECE" filter="url(#fvusccec0tmxb)" height="34.1328" rx="12.5" ry="12.5" style="stroke: #A80036; stroke-width: 1.5;" width="187" x="6" y="439"/><text fill="#000000" font-family="sans-serif" font-size="12" lengthAdjust="spacingAndGlyphs" textLength="167" x="16" y="460.6016">read node identifier from file</text><rect fill="#FEFECE" filter="url(#fvusccec0tmxb)" height="34.1328" rx="12.5" ry="12.5" style="stroke: #A80036; stroke-width: 1.5;" width="123" x="388" y="568"/><text fill="#000000" font-family="sans-serif" font-size="12" lengthAdjust="spacingAndGlyphs" textLength="103" x="398" y="589.6016">return component</text><rect fill="#FEFECE" filter="url(#fvusccec0tmxb)" height="34.1328" rx="12.5" ry="12.5" style="stroke: #A80036; stroke-width: 1.5;" width="343" x="127" y="385"/><text fill="#000000" font-family="sans-serif" font-size="12" lengthAdjust="spacingAndGlyphs" textLength="323" x="137" y="406.6016">get maximum node identifier from GraphDataGenerator</text><rect fill="#FEFECE" filter="url(#fvusccec0tmxb)" height="34.1328" rx="12.5" ry="12.5" style="stroke: #A80036; stroke-width: 1.5;" width="327" x="145" y="493"/><text fill="#000000" font-family="sans-serif" font-size="12" lengthAdjust="spacingAndGlyphs" textLength="307" x="155" y="514.6016">pick random node identifier in range [1..maxNodeId]</text><polygon fill="#FEFECE" filter="url(#fvusccec0tmxb)" points="661.5,307,673.5,319,661.5,331,649.5,319,661.5,307" style="stroke: #A80036; stroke-width: 1.5;"/><rect fill="#FEFECE" filter="url(#fvusccec0tmxb)" height="34.1328" rx="12.5" ry="12.5" style="stroke: #A80036; stroke-width: 1.5;" width="343" x="490" y="385"/><text fill="#000000" font-family="sans-serif" font-size="12" lengthAdjust="spacingAndGlyphs" textLength="323" x="500" y="406.6016">get maximum edge identifier from GraphDataGenerator</text><rect fill="#FEFECE" filter="url(#fvusccec0tmxb)" height="34.1328" rx="12.5" ry="12.5" style="stroke: #A80036; stroke-width: 1.5;" width="325" x="496" y="493"/><text fill="#000000" font-family="sans-serif" font-size="12" lengthAdjust="spacingAndGlyphs" textLength="305" x="506" y="514.6016">pick random edge identifier in range [1..maxEdgeId]</text><rect fill="#FEFECE" filter="url(#fvusccec0tmxb)" height="34.1328" rx="12.5" ry="12.5" style="stroke: #A80036; stroke-width: 1.5;" width="187" x="768" y="439"/><text fill="#000000" font-family="sans-serif" font-size="12" lengthAdjust="spacingAndGlyphs" textLength="167" x="778" y="460.6016">read edge identifier from file</text><rect fill="#FEFECE" filter="url(#fvusccec0tmxb)" height="34.1328" rx="12.5" ry="12.5" style="stroke: #A80036; stroke-width: 1.5;" width="184" x="528.5" y="157"/><text fill="#000000" font-family="sans-serif" font-size="12" lengthAdjust="spacingAndGlyphs" textLength="164" x="538.5" y="178.6016">pick node or edge randomly</text><ellipse cx="449.5" cy="653" fill="none" filter="url(#fvusccec0tmxb)" rx="10" ry="10" style="stroke: #000000; stroke-width: 1.0;"/><ellipse cx="450" cy="653.5" fill="#000000" rx="6" ry="6" style="stroke: none; stroke-width: 1.0;"/><!--link start to randomNodeOrEdge--><path d="M479.5,28.2587 C479.5,40.3447 479.5,60.7784 479.5,76.586 " fill="none" id="start-randomNodeOrEdge" style="stroke: #A80036; stroke-width: 1.0;"/><polygon fill="#A80036" points="479.5,81.7507,483.5,72.7507,479.5,76.7507,475.5,72.7507,479.5,81.7507" style="stroke: #A80036; stroke-width: 1.0;"/><text fill="#000000" font-family="sans-serif" font-size="11" lengthAdjust="spacingAndGlyphs" textLength="61" x="480.5" y="59.6348">nextValue()</text><!--link randomNodeOrEdge to #27032--><path d="M479.5,116.0187 C479.5,128.1619 479.5,144.4383 479.5,156.6547 " fill="none" id="randomNodeOrEdge-#27032" style="stroke: #A80036; stroke-width: 1.0;"/><polygon fill="#A80036" points="479.5,161.9526,483.5,152.9526,479.5,156.9526,475.5,152.9526,479.5,161.9526" style="stroke: #A80036; stroke-width: 1.0;"/><text fill="#000000" font-family="sans-serif" font-size="11" lengthAdjust="spacingAndGlyphs" textLength="155" x="481.3576" y="146.9529">file for component is present</text><!--link read component from file to #27032--><path d="M432.4257,174 C446.1747,174 458.6592,174 467.3112,174 " fill="none" id="read component from file-#27032" style="stroke: #A80036; stroke-width: 1.0;"/><polygon fill="#A80036" points="427.3078,174,436.3078,178,432.3078,174,436.3078,170,427.3078,174" style="stroke: #A80036; stroke-width: 1.0;"/><text fill="#000000" font-family="sans-serif" font-size="11" lengthAdjust="spacingAndGlyphs" textLength="19" x="437.75" y="168.6348">Yes</text><!--link read component from file to get kind of component--><path d="M374.8143,191.0187 C395.7506,202.3971 423.3643,217.4045 445.2526,229.3003 " fill="none" id="read component from file-get kind of component" style="stroke: #A80036; stroke-width: 1.0;"/><polygon fill="#A80036" points="449.8319,231.7891,443.8343,223.977,445.4388,229.4015,440.0142,231.006,449.8319,231.7891" style="stroke: #A80036; stroke-width: 1.0;"/><!--link get kind of component to #27040--><path d="M481.5,266.3034 C481.5,277.1588 481.5,291.0963 481.5,301.9108 " fill="none" id="get kind of component-#27040" style="stroke: #A80036; stroke-width: 1.0;"/><polygon fill="#A80036" points="481.5,306.9417,485.5,297.9417,481.5,301.9417,477.5,297.9417,481.5,306.9417" style="stroke: #A80036; stroke-width: 1.0;"/><text fill="#000000" font-family="sans-serif" font-size="11" lengthAdjust="spacingAndGlyphs" textLength="73" x="389.7938" y="296.5663">component is</text><!--link #27043 to #27040--><path d="M315.5365,319 C352.1014,319 437.3601,319 469.2087,319 " fill="none" id="#27043-#27040" style="stroke: #A80036; stroke-width: 1.0;"/><polygon fill="#A80036" points="310.5071,319,319.5071,323,315.5071,319,319.5071,315,310.5071,319" style="stroke: #A80036; stroke-width: 1.0;"/><text fill="#000000" font-family="sans-serif" font-size="11" lengthAdjust="spacingAndGlyphs" textLength="28" x="376" y="313.6348">Node</text><text fill="#000000" font-family="sans-serif" font-size="11" lengthAdjust="spacingAndGlyphs" textLength="127" x="318.2938" y="330.3028">file for nodes is present</text><!--link #27043 to read node identifier from file--><path d="M286.6154,319.5913 C254.111,321.8758 163.0668,332.8562 116.5,385 C104.6672,398.25 100.6953,418.2732 99.5237,433.6816 " fill="none" id="#27043-read node identifier from file" style="stroke: #A80036; stroke-width: 1.0;"/><polygon fill="#A80036" points="99.2265,438.7136,103.7505,429.9653,99.5215,433.7223,95.7645,429.4933,99.2265,438.7136" style="stroke: #A80036; stroke-width: 1.0;"/><text fill="#000000" font-family="sans-serif" font-size="11" lengthAdjust="spacingAndGlyphs" textLength="19" x="162.5" y="362.6348">Yes</text><!--link read node identifier from file to return component--><path d="M103.2601,473.1792 C107.7906,489.6237 117.0711,513.8206 134.5,527 C172.6926,555.8804 302.0566,572.1522 382.64,579.7094 " fill="none" id="read node identifier from file-return component" style="stroke: #A80036; stroke-width: 1.0;"/><polygon fill="#A80036" points="387.8758,580.1947,379.2835,575.3809,382.8972,579.7331,378.545,583.3468,387.8758,580.1947" style="stroke: #A80036; stroke-width: 1.0;"/><!--link #27043 to get maximum node identifier from GraphDataGenerator--><path d="M298.5,331.2469 C298.5,343.9682 298.5,364.1511 298.5,379.7108 " fill="none" id="#27043-get maximum node identifier from GraphDataGenerator" style="stroke: #A80036; stroke-width: 1.0;"/><polygon fill="#A80036" points="298.5,384.7929,302.5,375.7929,298.5,379.7929,294.5,375.7929,298.5,384.7929" style="stroke: #A80036; stroke-width: 1.0;"/><text fill="#000000" font-family="sans-serif" font-size="11" lengthAdjust="spacingAndGlyphs" textLength="15" x="299.5" y="362.6348">No</text><!--link get maximum node identifier from GraphDataGenerator to pick random node identifier in range [1..maxNodeId]--><path d="M300.1067,419.3521 C301.8197,437.8528 304.5389,467.22 306.4157,487.4893 " fill="none" id="get maximum node identifier from GraphDataGenerator-pick random node identifier in range [1..maxNodeId]" style="stroke: #A80036; stroke-width: 1.0;"/><polygon fill="#A80036" points="306.8973,492.691,310.0502,483.3604,306.4362,487.7123,302.0843,484.0983,306.8973,492.691" style="stroke: #A80036; stroke-width: 1.0;"/><!--link pick random node identifier in range [1..maxNodeId] to return component--><path d="M340.4951,527.0187 C361.8865,538.3971 390.1005,553.4045 412.4646,565.3003 " fill="none" id="pick random node identifier in range [1..maxNodeId]-return component" style="stroke: #A80036; stroke-width: 1.0;"/><polygon fill="#A80036" points="417.1435,567.7891,411.0762,560.031,412.7292,565.441,407.3192,567.094,417.1435,567.7891" style="stroke: #A80036; stroke-width: 1.0;"/><!--link #27040 to #27056--><path d="M493.5898,319 C524.7157,319 607.7054,319 644.046,319 " fill="none" id="#27040-#27056" style="stroke: #A80036; stroke-width: 1.0;"/><polygon fill="#A80036" points="649.4628,319,640.4628,315,644.4628,319,640.4628,323,649.4628,319" style="stroke: #A80036; stroke-width: 1.0;"/><text fill="#000000" font-family="sans-serif" font-size="11" lengthAdjust="spacingAndGlyphs" textLength="26" x="558.5" y="313.6348">Edge</text><text fill="#000000" font-family="sans-serif" font-size="11" lengthAdjust="spacingAndGlyphs" textLength="126" x="515.7246" y="330.3028">file for edges is present</text><!--link #27056 to get maximum edge identifier from GraphDataGenerator--><path d="M661.5,331.2469 C661.5,343.9682 661.5,364.1511 661.5,379.7108 " fill="none" id="#27056-get maximum edge identifier from GraphDataGenerator" style="stroke: #A80036; stroke-width: 1.0;"/><polygon fill="#A80036" points="661.5,384.7929,665.5,375.7929,661.5,379.7929,657.5,375.7929,661.5,384.7929" style="stroke: #A80036; stroke-width: 1.0;"/><text fill="#000000" font-family="sans-serif" font-size="11" lengthAdjust="spacingAndGlyphs" textLength="15" x="662.5" y="362.6348">No</text><!--link get maximum edge identifier from GraphDataGenerator to pick random edge identifier in range [1..maxEdgeId]--><path d="M661.018,419.3521 C660.5041,437.8528 659.6883,467.22 659.1253,487.4893 " fill="none" id="get maximum edge identifier from GraphDataGenerator-pick random edge identifier in range [1..maxEdgeId]" style="stroke: #A80036; stroke-width: 1.0;"/><polygon fill="#A80036" points="658.9808,492.691,663.2292,483.8056,659.1197,487.6929,655.2323,483.5834,658.9808,492.691" style="stroke: #A80036; stroke-width: 1.0;"/><!--link pick random edge identifier in range [1..maxEdgeId] to return component--><path d="M611.0747,527.0187 C578.5887,538.6763 535.4874,554.1433 501.9719,566.1704 " fill="none" id="pick random edge identifier in range [1..maxEdgeId]-return component" style="stroke: #A80036; stroke-width: 1.0;"/><polygon fill="#A80036" points="497.0989,567.919,506.921,568.644,501.805,566.2301,504.2189,561.1141,497.0989,567.919" style="stroke: #A80036; stroke-width: 1.0;"/><!--link #27056 to read edge identifier from file--><path d="M673.3482,319.624 C705.7596,321.9921 796.5881,333.1665 843.5,385 C855.5363,398.299 859.7734,418.4979 861.1518,433.9556 " fill="none" id="#27056-read edge identifier from file" style="stroke: #A80036; stroke-width: 1.0;"/><polygon fill="#A80036" points="861.5168,438.9992,864.8566,429.7339,861.1558,434.0122,856.8774,430.3115,861.5168,438.9992" style="stroke: #A80036; stroke-width: 1.0;"/><text fill="#000000" font-family="sans-serif" font-size="11" lengthAdjust="spacingAndGlyphs" textLength="19" x="818.5" y="362.6348">Yes</text><!--link read edge identifier from file to return component--><path d="M859.0775,473.2309 C855.802,489.7147 848.2974,513.9406 831.5,527 C783.5706,564.2635 612.4377,577.8282 516.2921,582.5777 " fill="none" id="read edge identifier from file-return component" style="stroke: #A80036; stroke-width: 1.0;"/><polygon fill="#A80036" points="511.2043,582.8243,520.3875,586.3838,516.1984,582.5822,520,578.3931,511.2043,582.8243" style="stroke: #A80036; stroke-width: 1.0;"/><!--link #27032 to pick node or edge randomly--><path d="M491.5216,174 C499.4586,174 510.689,174 523.2496,174 " fill="none" id="#27032-pick node or edge randomly" style="stroke: #A80036; stroke-width: 1.0;"/><polygon fill="#A80036" points="528.3173,174,519.3173,170,523.3173,174,519.3173,178,528.3173,174" style="stroke: #A80036; stroke-width: 1.0;"/><text fill="#000000" font-family="sans-serif" font-size="11" lengthAdjust="spacingAndGlyphs" textLength="15" x="502.5" y="168.6348">No</text><!--link pick node or edge randomly to get kind of component--><path d="M588.9587,191.0187 C567.8707,202.3971 540.057,217.4045 518.0101,229.3003 " fill="none" id="pick node or edge randomly-get kind of component" style="stroke: #A80036; stroke-width: 1.0;"/><polygon fill="#A80036" points="513.3976,231.7891,523.2176,231.0357,517.7979,229.4149,519.4188,223.9952,513.3976,231.7891" style="stroke: #A80036; stroke-width: 1.0;"/><!--link return component to end--><path d="M449.5,602.1593 C449.5,613.0147 449.5,626.9343 449.5,637.4633 " fill="none" id="return component-end" style="stroke: #A80036; stroke-width: 1.0;"/><polygon fill="#A80036" points="449.5,642.626,453.5,633.626,449.5,637.626,445.5,633.626,449.5,642.626" style="stroke: #A80036; stroke-width: 1.0;"/><!--
@startuml
(*)  - -> [nextValue()] "randomNodeOrEdge"
if file for component is present
-left-> [Yes] read component from file
- -> get kind of component
- -> if component is
    -left-> [Node] if file for nodes is present
        - -> [Yes] read node identifier from file
        - -> return component
        else
        - -> [No] get maximum node identifier from GraphDataGenerator
        - -> pick random node identifier in range [1..maxNodeId]
        - -> return component
        endif
    else
    -right-> [Edge] if file for edges is present
        - -> [No] get maximum edge identifier from GraphDataGenerator
        - -> pick random edge identifier in range [1..maxEdgeId]
        - -> return component
        else
        - -> [Yes] read edge identifier from file
        - -> return component
        endif
    endif
else
-right-> [No] pick node or edge randomly
- -> get kind of component

"return component" - -> (*)
@enduml

PlantUML version 1.2018.01(Sun Jan 28 19:08:22 CET 2018)
(GPL source distribution)
Java Runtime: OpenJDK Runtime Environment
JVM: OpenJDK 64-Bit Server VM
Java Version: 1.8.0_152-release-1136-b20
Operating System: Mac OS X
OS Version: 10.13.4
Default Encoding: UTF-8
Language: en
Country: DE
--></g></svg>