<?xml version="1.0" encoding="UTF-8" standalone="no"?><svg xmlns="http://www.w3.org/2000/svg" xmlns:xlink="http://www.w3.org/1999/xlink" contentScriptType="application/ecmascript" contentStyleType="text/css" height="1634px" preserveAspectRatio="none" style="width:745px;height:1634px;" version="1.1" viewBox="0 0 745 1634" width="745px" zoomAndPan="magnify"><defs><filter height="300%" id="f1xpttctfov6wt" width="300%" x="-1" y="-1"><feGaussianBlur result="blurOut" stdDeviation="2.0"/><feColorMatrix in="blurOut" result="blurOut2" type="matrix" values="0 0 0 0 0 0 0 0 0 0 0 0 0 0 0 0 0 0 .4 0"/><feOffset dx="4.0" dy="4.0" in="blurOut2" result="blurOut3"/><feBlend in="SourceGraphic" in2="blurOut3" mode="normal"/></filter></defs><g><ellipse cx="107.5" cy="18" fill="#000000" filter="url(#f1xpttctfov6wt)" rx="10" ry="10" style="stroke: none; stroke-width: 1.0;"/><rect fill="#FEFECE" filter="url(#f1xpttctfov6wt)" height="34.1328" rx="12.5" ry="12.5" style="stroke: #A80036; stroke-width: 1.5;" width="100" x="57.5" y="69"/><text fill="#000000" font-family="sans-serif" font-size="12" lengthAdjust="spacingAndGlyphs" textLength="80" x="67.5" y="90.6016">createGraph()</text><polygon fill="#FEFECE" filter="url(#f1xpttctfov6wt)" points="107.5,144,119.5,156,107.5,168,95.5,156,107.5,144" style="stroke: #A80036; stroke-width: 1.5;"/><rect fill="#FEFECE" filter="url(#f1xpttctfov6wt)" height="34.1328" rx="12.5" ry="12.5" style="stroke: #A80036; stroke-width: 1.5;" width="101" x="6" y="266"/><text fill="#000000" font-family="sans-serif" font-size="12" lengthAdjust="spacingAndGlyphs" textLength="81" x="16" y="287.6016">create Factory</text><rect fill="#FEFECE" filter="url(#f1xpttctfov6wt)" height="34.1328" rx="12.5" ry="12.5" style="stroke: #A80036; stroke-width: 1.5;" width="182" x="175.5" y="1179"/><text fill="#000000" font-family="sans-serif" font-size="12" lengthAdjust="spacingAndGlyphs" textLength="162" x="185.5" y="1200.6016">Reset parameters if needed</text><polygon fill="#FEFECE" filter="url(#f1xpttctfov6wt)" points="145.5,222,157.5,234,145.5,246,133.5,234,145.5,222" style="stroke: #A80036; stroke-width: 1.5;"/><rect fill="#FEFECE" filter="url(#f1xpttctfov6wt)" height="34.1328" rx="12.5" ry="12.5" style="stroke: #A80036; stroke-width: 1.5;" width="173" x="59" y="364"/><text fill="#000000" font-family="sans-serif" font-size="12" lengthAdjust="spacingAndGlyphs" textLength="153" x="69" y="385.6016">create Machine with edges</text><polygon fill="#FEFECE" filter="url(#f1xpttctfov6wt)" points="257.5,320,269.5,332,257.5,344,245.5,332,257.5,320" style="stroke: #A80036; stroke-width: 1.5;"/><rect fill="#FEFECE" filter="url(#f1xpttctfov6wt)" height="34.1328" rx="12.5" ry="12.5" style="stroke: #A80036; stroke-width: 1.5;" width="166" x="135.5" y="462"/><text fill="#000000" font-family="sans-serif" font-size="12" lengthAdjust="spacingAndGlyphs" textLength="146" x="145.5" y="483.6016">create Orders with edges</text><polygon fill="#FEFECE" filter="url(#f1xpttctfov6wt)" points="326.5,418,338.5,430,326.5,442,314.5,430,326.5,418" style="stroke: #A80036; stroke-width: 1.5;"/><rect fill="#FEFECE" filter="url(#f1xpttctfov6wt)" height="34.1328" rx="12.5" ry="12.5" style="stroke: #A80036; stroke-width: 1.5;" width="165" x="179" y="560"/><text fill="#000000" font-family="sans-serif" font-size="12" lengthAdjust="spacingAndGlyphs" textLength="145" x="189" y="581.6016">create Design with edges</text><polygon fill="#FEFECE" filter="url(#f1xpttctfov6wt)" points="369.5,516,381.5,528,369.5,540,357.5,528,369.5,516" style="stroke: #A80036; stroke-width: 1.5;"/><rect fill="#FEFECE" filter="url(#f1xpttctfov6wt)" height="34.1328" rx="12.5" ry="12.5" style="stroke: #A80036; stroke-width: 1.5;" width="187" x="220" y="658"/><text fill="#000000" font-family="sans-serif" font-size="12" lengthAdjust="spacingAndGlyphs" textLength="167" x="230" y="679.6016">create new Order with edges</text><polygon fill="#FEFECE" filter="url(#f1xpttctfov6wt)" points="432.5,614,444.5,626,432.5,638,420.5,626,432.5,614" style="stroke: #A80036; stroke-width: 1.5;"/><rect fill="#FEFECE" filter="url(#f1xpttctfov6wt)" height="34.1328" rx="12.5" ry="12.5" style="stroke: #A80036; stroke-width: 1.5;" width="170" x="261.5" y="756"/><text fill="#000000" font-family="sans-serif" font-size="12" lengthAdjust="spacingAndGlyphs" textLength="150" x="271.5" y="777.6016">create Product with edges</text><polygon fill="#FEFECE" filter="url(#f1xpttctfov6wt)" points="478.5,712,490.5,724,478.5,736,466.5,724,478.5,712" style="stroke: #A80036; stroke-width: 1.5;"/><rect fill="#FEFECE" filter="url(#f1xpttctfov6wt)" height="34.1328" rx="12.5" ry="12.5" style="stroke: #A80036; stroke-width: 1.5;" width="153" x="309" y="854"/><text fill="#000000" font-family="sans-serif" font-size="12" lengthAdjust="spacingAndGlyphs" textLength="133" x="319" y="875.6016">create Date with edges</text><polygon fill="#FEFECE" filter="url(#f1xpttctfov6wt)" points="499.5,810,511.5,822,499.5,834,487.5,822,499.5,810" style="stroke: #A80036; stroke-width: 1.5;"/><rect fill="#FEFECE" filter="url(#f1xpttctfov6wt)" height="34.1328" rx="12.5" ry="12.5" style="stroke: #A80036; stroke-width: 1.5;" width="192" x="345.5" y="952"/><text fill="#000000" font-family="sans-serif" font-size="12" lengthAdjust="spacingAndGlyphs" textLength="172" x="355.5" y="973.6016">create Component with edges</text><polygon fill="#FEFECE" filter="url(#f1xpttctfov6wt)" points="562.5,908,574.5,920,562.5,932,550.5,920,562.5,908" style="stroke: #A80036; stroke-width: 1.5;"/><rect fill="#FEFECE" filter="url(#f1xpttctfov6wt)" height="34.1328" rx="12.5" ry="12.5" style="stroke: #A80036; stroke-width: 1.5;" width="157" x="410" y="1050"/><text fill="#000000" font-family="sans-serif" font-size="12" lengthAdjust="spacingAndGlyphs" textLength="137" x="420" y="1071.6016">create Tests with edges</text><polygon fill="#FEFECE" filter="url(#f1xpttctfov6wt)" points="605.5,1006,617.5,1018,605.5,1030,593.5,1018,605.5,1006" style="stroke: #A80036; stroke-width: 1.5;"/><rect fill="#FEFECE" filter="url(#f1xpttctfov6wt)" height="34.1328" rx="12.5" ry="12.5" style="stroke: #A80036; stroke-width: 1.5;" width="211" x="485" y="1104"/><text fill="#000000" font-family="sans-serif" font-size="12" lengthAdjust="spacingAndGlyphs" textLength="191" x="495" y="1125.6016">create TestParameter with edges</text><polygon fill="#FEFECE" filter="url(#f1xpttctfov6wt)" points="266.5,1254,278.5,1266,266.5,1278,254.5,1266,266.5,1254" style="stroke: #A80036; stroke-width: 1.5;"/><rect fill="#FEFECE" filter="url(#f1xpttctfov6wt)" height="34.1328" rx="12.5" ry="12.5" style="stroke: #A80036; stroke-width: 1.5;" width="200" x="123.5" y="1376"/><text fill="#000000" font-family="sans-serif" font-size="12" lengthAdjust="spacingAndGlyphs" textLength="180" x="133.5" y="1397.6016">Reset everything for new Order</text><ellipse cx="434.5" cy="1613" fill="none" filter="url(#f1xpttctfov6wt)" rx="10" ry="10" style="stroke: #000000; stroke-width: 1.0;"/><ellipse cx="435" cy="1613.5" fill="#000000" rx="6" ry="6" style="stroke: none; stroke-width: 1.0;"/><polygon fill="#FEFECE" filter="url(#f1xpttctfov6wt)" points="348.5,1332,360.5,1344,348.5,1356,336.5,1344,348.5,1332" style="stroke: #A80036; stroke-width: 1.5;"/><rect fill="#FEFECE" filter="url(#f1xpttctfov6wt)" height="34.1328" rx="12.5" ry="12.5" style="stroke: #A80036; stroke-width: 1.5;" width="210" x="239.5" y="1474"/><text fill="#000000" font-family="sans-serif" font-size="12" lengthAdjust="spacingAndGlyphs" textLength="190" x="249.5" y="1495.6016">Reset everything for new Product</text><polygon fill="#FEFECE" filter="url(#f1xpttctfov6wt)" points="465.5,1430,477.5,1442,465.5,1454,453.5,1442,465.5,1430" style="stroke: #A80036; stroke-width: 1.5;"/><rect fill="#FEFECE" filter="url(#f1xpttctfov6wt)" height="34.1328" rx="12.5" ry="12.5" style="stroke: #A80036; stroke-width: 1.5;" width="232" x="502.5" y="1528"/><text fill="#000000" font-family="sans-serif" font-size="12" lengthAdjust="spacingAndGlyphs" textLength="212" x="512.5" y="1549.6016">Reset everything for new Component</text><!--link start to createGraph()--><path d="M107.5,28.0336 C107.5,37.4082 107.5,51.7285 107.5,63.7898 " fill="none" id="start-createGraph()" style="stroke: #A80036; stroke-width: 1.0;"/><polygon fill="#A80036" points="107.5,68.7995,111.5,59.7995,107.5,63.7995,103.5,59.7995,107.5,68.7995" style="stroke: #A80036; stroke-width: 1.0;"/><!--link createGraph() to #121006--><path d="M107.5,103.3034 C107.5,114.1588 107.5,128.0963 107.5,138.9108 " fill="none" id="createGraph()-#121006" style="stroke: #A80036; stroke-width: 1.0;"/><polygon fill="#A80036" points="107.5,143.9417,111.5,134.9417,107.5,138.9417,103.5,134.9417,107.5,143.9417" style="stroke: #A80036; stroke-width: 1.0;"/><text fill="#000000" font-family="sans-serif" font-size="11" lengthAdjust="spacingAndGlyphs" textLength="84" x="3.025" y="134.0058">Factory present</text><!--link #121006 to create Factory--><path d="M103.9946,164.7292 C96.0807,184.4363 76.633,232.8649 65.2282,261.265 " fill="none" id="#121006-create Factory" style="stroke: #A80036; stroke-width: 1.0;"/><polygon fill="#A80036" points="63.3334,265.9834,70.3992,259.1223,65.1967,261.3436,62.9754,256.141,63.3334,265.9834" style="stroke: #A80036; stroke-width: 1.0;"/><text fill="#000000" font-family="sans-serif" font-size="11" lengthAdjust="spacingAndGlyphs" textLength="15" x="95.5" y="199.6348">No</text><!--link create Factory to Reset parameters if needed--><path d="M52.5256,300.2422 C48.3866,319.7338 42.5,352.4702 42.5,381 C42.5,381 42.5,381 42.5,1121 C42.5,1149.7204 109.552,1169.4643 170.2852,1181.457 " fill="none" id="create Factory-Reset parameters if needed" style="stroke: #A80036; stroke-width: 1.0;"/><polygon fill="#A80036" points="175.3906,1182.45,167.3201,1176.8049,170.4826,1181.4951,165.7924,1184.6576,175.3906,1182.45" style="stroke: #A80036; stroke-width: 1.0;"/><!--link #121006 to #121013--><path d="M111.5667,164.3474 C118.1602,177.8815 131.2355,204.7202 139.0902,220.8431 " fill="none" id="#121006-#121013" style="stroke: #A80036; stroke-width: 1.0;"/><polygon fill="#A80036" points="141.3474,225.4762,141.0017,215.6334,139.1576,220.9812,133.8097,219.1371,141.3474,225.4762" style="stroke: #A80036; stroke-width: 1.0;"/><text fill="#000000" font-family="sans-serif" font-size="11" lengthAdjust="spacingAndGlyphs" textLength="19" x="130.5" y="199.6348">Yes</text><text fill="#000000" font-family="sans-serif" font-size="11" lengthAdjust="spacingAndGlyphs" textLength="88" x="37.3969" y="219.4581">Machine present</text><!--link #121013 to create Machine with edges--><path d="M145.5,246.0296 C145.5,270.6613 145.5,327.1678 145.5,358.6978 " fill="none" id="#121013-create Machine with edges" style="stroke: #A80036; stroke-width: 1.0;"/><polygon fill="#A80036" points="145.5,363.9081,149.5,354.9081,145.5,358.9081,141.5,354.9081,145.5,363.9081" style="stroke: #A80036; stroke-width: 1.0;"/><text fill="#000000" font-family="sans-serif" font-size="11" lengthAdjust="spacingAndGlyphs" textLength="15" x="146.5" y="287.6348">No</text><!--link create Machine with edges to Reset parameters if needed--><path d="M137.9797,398.3358 C130.3009,417.6402 119.5,449.9559 119.5,479 C119.5,479 119.5,479 119.5,1121 C119.5,1150.115 142.6636,1167.9333 170.6008,1178.8358 " fill="none" id="create Machine with edges-Reset parameters if needed" style="stroke: #A80036; stroke-width: 1.0;"/><polygon fill="#A80036" points="175.4937,1180.6593,168.4572,1173.7681,170.8085,1178.9132,165.6635,1181.2645,175.4937,1180.6593" style="stroke: #A80036; stroke-width: 1.0;"/><!--link #121013 to #121019--><path d="M152.1707,239.8369 C170.9681,256.2846 224.4735,303.1018 247.1454,322.9397 " fill="none" id="#121013-#121019" style="stroke: #A80036; stroke-width: 1.0;"/><polygon fill="#A80036" points="251.0046,326.3165,246.8653,317.3797,247.2417,323.024,241.5974,323.4004,251.0046,326.3165" style="stroke: #A80036; stroke-width: 1.0;"/><text fill="#000000" font-family="sans-serif" font-size="11" lengthAdjust="spacingAndGlyphs" textLength="19" x="218.5" y="287.6348">Yes</text><text fill="#000000" font-family="sans-serif" font-size="11" lengthAdjust="spacingAndGlyphs" textLength="82" x="155.6465" y="321.7996">Orders present</text><!--link #121019 to create Orders with edges--><path d="M254.9411,341.6451 C248.7964,364.8059 233.0779,424.0527 224.4279,456.6563 " fill="none" id="#121019-create Orders with edges" style="stroke: #A80036; stroke-width: 1.0;"/><polygon fill="#A80036" points="223.1029,461.6506,229.2773,453.9774,224.3852,456.8178,221.5448,451.9258,223.1029,461.6506" style="stroke: #A80036; stroke-width: 1.0;"/><text fill="#000000" font-family="sans-serif" font-size="11" lengthAdjust="spacingAndGlyphs" textLength="15" x="248.5" y="385.6348">No</text><!--link create Orders with edges to Reset parameters if needed--><path d="M201.0884,496.0386 C184.3257,514.3397 161.5,545.1144 161.5,577 C161.5,577 161.5,577 161.5,1121 C161.5,1147.0422 183.1519,1164.8984 206.7913,1176.6331 " fill="none" id="create Orders with edges-Reset parameters if needed" style="stroke: #A80036; stroke-width: 1.0;"/><polygon fill="#A80036" points="211.5399,1178.899,205.1401,1171.4129,207.0274,1176.7456,201.6946,1178.6329,211.5399,1178.899" style="stroke: #A80036; stroke-width: 1.0;"/><!--link #121019 to #121025--><path d="M262.4623,339.0479 C274.2407,355.7767 303.9742,398.0068 318.4004,418.4962 " fill="none" id="#121019-#121025" style="stroke: #A80036; stroke-width: 1.0;"/><polygon fill="#A80036" points="321.3965,422.7515,319.4859,413.0897,318.518,418.6632,312.9446,417.6953,321.3965,422.7515" style="stroke: #A80036; stroke-width: 1.0;"/><text fill="#000000" font-family="sans-serif" font-size="11" lengthAdjust="spacingAndGlyphs" textLength="19" x="302.5" y="385.6348">Yes</text><text fill="#000000" font-family="sans-serif" font-size="11" lengthAdjust="spacingAndGlyphs" textLength="81" x="225.2903" y="417.1559">Design present</text><!--link #121025 to create Design with edges--><path d="M323.5755,439.1011 C319.3585,451.9558 311.1244,476.0848 302.5,496 C293.6451,516.4476 282.0663,539.0141 273.4728,555.123 " fill="none" id="#121025-create Design with edges" style="stroke: #A80036; stroke-width: 1.0;"/><polygon fill="#A80036" points="270.9079,559.9056,278.6865,553.8647,273.271,555.4993,271.6364,550.0837,270.9079,559.9056" style="stroke: #A80036; stroke-width: 1.0;"/><text fill="#000000" font-family="sans-serif" font-size="11" lengthAdjust="spacingAndGlyphs" textLength="15" x="315.5" y="483.6348">No</text><!--link create Design with edges to Reset parameters if needed--><path d="M243.4664,594.3205 C226.4403,612.6147 203.5,643.1698 203.5,675 C203.5,675 203.5,675 203.5,1121 C203.5,1143.2606 219.9733,1162.3663 236.0726,1175.7229 " fill="none" id="create Design with edges-Reset parameters if needed" style="stroke: #A80036; stroke-width: 1.0;"/><polygon fill="#A80036" points="240.1474,1178.9932,235.6323,1170.2403,236.248,1175.8635,230.6248,1176.4793,240.1474,1178.9932" style="stroke: #A80036; stroke-width: 1.0;"/><!--link #121025 to #121031--><path d="M331.4414,437.4105 C335.5417,443.7601 341.3519,453.241 345.5,462 C353.6082,479.121 360.715,499.7717 365.0491,513.3607 " fill="none" id="#121025-#121031" style="stroke: #A80036; stroke-width: 1.0;"/><polygon fill="#A80036" points="366.6244,518.3741,367.7425,508.5889,365.1255,513.604,360.1104,510.9871,366.6244,518.3741" style="stroke: #A80036; stroke-width: 1.0;"/><text fill="#000000" font-family="sans-serif" font-size="11" lengthAdjust="spacingAndGlyphs" textLength="19" x="359.5" y="483.6348">Yes</text><text fill="#000000" font-family="sans-serif" font-size="11" lengthAdjust="spacingAndGlyphs" textLength="75" x="274.9695" y="510.7602">Order fulfilled</text><!--link #121031 to create new Order with edges--><path d="M366.317,536.9961 C361.7928,549.7262 353.1961,573.708 345.5,594 C337.871,614.115 328.8375,636.8915 322.3172,653.1575 " fill="none" id="#121031-create new Order with edges" style="stroke: #A80036; stroke-width: 1.0;"/><polygon fill="#A80036" points="320.3787,657.9864,327.4436,651.1244,322.2414,653.3463,320.0195,648.1441,320.3787,657.9864" style="stroke: #A80036; stroke-width: 1.0;"/><text fill="#000000" font-family="sans-serif" font-size="11" lengthAdjust="spacingAndGlyphs" textLength="19" x="358.5" y="581.6348">Yes</text><!--link create new Order with edges to Reset parameters if needed--><path d="M291.9844,692.0295 C272.0625,709.8685 245.5,739.8663 245.5,773 C245.5,773 245.5,773 245.5,1121 C245.5,1139.344 251.3975,1159.3082 256.9419,1174.0237 " fill="none" id="create new Order with edges-Reset parameters if needed" style="stroke: #A80036; stroke-width: 1.0;"/><polygon fill="#A80036" points="258.7996,1178.8031,259.267,1168.9653,256.988,1174.1428,251.8106,1171.8639,258.7996,1178.8031" style="stroke: #A80036; stroke-width: 1.0;"/><!--link #121031 to #121037--><path d="M375.4303,534.6052 C380.9435,540.9004 389.2258,550.7625 395.5,560 C407.4635,577.614 419.1108,599.3828 426.046,612.9832 " fill="none" id="#121031-#121037" style="stroke: #A80036; stroke-width: 1.0;"/><polygon fill="#A80036" points="428.3797,617.6015,427.8905,607.7648,426.1246,613.1389,420.7504,611.373,428.3797,617.6015" style="stroke: #A80036; stroke-width: 1.0;"/><text fill="#000000" font-family="sans-serif" font-size="11" lengthAdjust="spacingAndGlyphs" textLength="15" x="416.5" y="581.6348">No</text><text fill="#000000" font-family="sans-serif" font-size="11" lengthAdjust="spacingAndGlyphs" textLength="88" x="324.4399" y="611.6249">Product finished</text><!--link #121037 to create Product with edges--><path d="M429.9533,635.7936 C426.2858,649.0415 418.8073,673.179 408.5,692 C396.502,713.908 378.9042,736.2635 365.5192,751.9229 " fill="none" id="#121037-create Product with edges" style="stroke: #A80036; stroke-width: 1.0;"/><polygon fill="#A80036" points="362.213,755.7555,371.1205,751.5535,365.479,751.9695,365.063,746.328,362.213,755.7555" style="stroke: #A80036; stroke-width: 1.0;"/><text fill="#000000" font-family="sans-serif" font-size="11" lengthAdjust="spacingAndGlyphs" textLength="19" x="423.5" y="679.6348">Yes</text><!--link create Product with edges to Reset parameters if needed--><path d="M328.1554,790.2613 C310.8359,808.5084 287.5,839.0265 287.5,871 C287.5,871 287.5,871 287.5,1121 C287.5,1139.344 281.6025,1159.3082 276.0581,1174.0237 " fill="none" id="create Product with edges-Reset parameters if needed" style="stroke: #A80036; stroke-width: 1.0;"/><polygon fill="#A80036" points="274.2004,1178.8031,281.1894,1171.8639,276.012,1174.1428,273.733,1168.9653,274.2004,1178.8031" style="stroke: #A80036; stroke-width: 1.0;"/><!--link #121037 to #121043--><path d="M438.1197,633.0419 C442.9323,639.3164 449.8086,648.8894 454.5,658 C463.1727,674.8421 470.1587,695.5525 474.3107,709.2314 " fill="none" id="#121037-#121043" style="stroke: #A80036; stroke-width: 1.0;"/><polygon fill="#A80036" points="475.8117,714.2816,477.0817,704.515,474.3872,709.4888,469.4133,706.7942,475.8117,714.2816" style="stroke: #A80036; stroke-width: 1.0;"/><text fill="#000000" font-family="sans-serif" font-size="11" lengthAdjust="spacingAndGlyphs" textLength="15" x="469.5" y="679.6348">No</text><text fill="#000000" font-family="sans-serif" font-size="11" lengthAdjust="spacingAndGlyphs" textLength="60" x="398.2417" y="704.7244">Date added</text><!--link #121043 to create Date with edges--><path d="M473.7603,731.4918 C460.0865,753.1053 420.1978,816.1551 399.0413,849.5961 " fill="none" id="#121043-create Date with edges" style="stroke: #A80036; stroke-width: 1.0;"/><polygon fill="#A80036" points="396.3089,853.9149,404.501,848.4478,398.9821,849.6895,397.7405,844.1706,396.3089,853.9149" style="stroke: #A80036; stroke-width: 1.0;"/><text fill="#000000" font-family="sans-serif" font-size="11" lengthAdjust="spacingAndGlyphs" textLength="15" x="457.5" y="777.6348">No</text><!--link create Date with edges to Reset parameters if needed--><path d="M368.3939,888.0955 C351.9253,906.4429 329.5,937.2549 329.5,969 C329.5,969 329.5,969 329.5,1121 C329.5,1143.2606 313.0267,1162.3663 296.9274,1175.7229 " fill="none" id="create Date with edges-Reset parameters if needed" style="stroke: #A80036; stroke-width: 1.0;"/><polygon fill="#A80036" points="292.8526,1178.9932,302.3752,1176.4793,296.752,1175.8635,297.3677,1170.2403,292.8526,1178.9932" style="stroke: #A80036; stroke-width: 1.0;"/><!--link #121043 to #121049--><path d="M480.6683,734.1186 C484.3815,751.447 491.9746,786.8816 496.2989,807.0617 " fill="none" id="#121043-#121049" style="stroke: #A80036; stroke-width: 1.0;"/><polygon fill="#A80036" points="497.3748,812.0824,499.4001,802.444,496.3271,807.1934,491.5777,804.1204,497.3748,812.0824" style="stroke: #A80036; stroke-width: 1.0;"/><text fill="#000000" font-family="sans-serif" font-size="11" lengthAdjust="spacingAndGlyphs" textLength="19" x="492.5" y="777.6348">Yes</text><text fill="#000000" font-family="sans-serif" font-size="11" lengthAdjust="spacingAndGlyphs" textLength="99" x="380.6286" y="805.4096">Component tested</text><!--link #121049 to create Component with edges--><path d="M496.0455,830.7553 C487.1563,853.2848 463.279,913.8016 450.2593,946.7998 " fill="none" id="#121049-create Component with edges" style="stroke: #A80036; stroke-width: 1.0;"/><polygon fill="#A80036" points="448.2668,951.8495,455.2908,944.9457,450.1019,947.1984,447.8492,942.0095,448.2668,951.8495" style="stroke: #A80036; stroke-width: 1.0;"/><text fill="#000000" font-family="sans-serif" font-size="11" lengthAdjust="spacingAndGlyphs" textLength="19" x="486.5" y="875.6348">Yes</text><!--link create Component with edges to Reset parameters if needed--><path d="M432.8552,986.0632 C424.5533,1002.4533 411.6614,1027.9148 400.5,1050 C376.025,1098.429 384.4272,1121.1969 345.5,1159 C338.3105,1165.9819 329.5595,1171.8265 320.5345,1176.6552 " fill="none" id="create Component with edges-Reset parameters if needed" style="stroke: #A80036; stroke-width: 1.0;"/><polygon fill="#A80036" points="316.0877,1178.9446,325.9204,1178.381,320.5331,1176.6558,322.2583,1171.2684,316.0877,1178.9446" style="stroke: #A80036; stroke-width: 1.0;"/><!--link #121049 to #121055--><path d="M504.4885,829.0535 C509.011,835.4953 515.8182,845.3103 521.5,854 C533.5973,872.5016 547.0075,894.3612 555.0926,907.6982 " fill="none" id="#121049-#121055" style="stroke: #A80036; stroke-width: 1.0;"/><polygon fill="#A80036" points="557.8181,912.2042,556.5826,902.4331,555.2303,907.926,549.7374,906.5737,557.8181,912.2042" style="stroke: #A80036; stroke-width: 1.0;"/><text fill="#000000" font-family="sans-serif" font-size="11" lengthAdjust="spacingAndGlyphs" textLength="15" x="542.5" y="875.6348">No</text><text fill="#000000" font-family="sans-serif" font-size="11" lengthAdjust="spacingAndGlyphs" textLength="65" x="477.4806" y="905.3452">Tests added</text><!--link #121055 to create Tests with edges--><path d="M559.6732,929.6492 C555.6882,942.7335 547.8512,966.6861 538.5,986 C528.2968,1007.0738 514.0726,1029.6312 503.4034,1045.5753 " fill="none" id="#121055-create Tests with edges" style="stroke: #A80036; stroke-width: 1.0;"/><polygon fill="#A80036" points="500.4947,1049.8903,508.8422,1044.6634,503.2895,1045.7443,502.2086,1040.1917,500.4947,1049.8903" style="stroke: #A80036; stroke-width: 1.0;"/><text fill="#000000" font-family="sans-serif" font-size="11" lengthAdjust="spacingAndGlyphs" textLength="15" x="552.5" y="973.6348">No</text><!--link create Tests with edges to Reset parameters if needed--><path d="M475.0757,1084.1501 C458.0183,1104.8156 426.6606,1139.2193 392.5,1159 C379.6487,1166.4415 365.18,1172.4916 350.7489,1177.3765 " fill="none" id="create Tests with edges-Reset parameters if needed" style="stroke: #A80036; stroke-width: 1.0;"/><polygon fill="#A80036" points="345.8587,1178.9888,355.6586,1179.9694,350.6072,1177.4231,353.1535,1172.3717,345.8587,1178.9888" style="stroke: #A80036; stroke-width: 1.0;"/><!--link #121055 to #121061--><path d="M567.4414,927.4105 C571.5417,933.7601 577.3519,943.241 581.5,952 C589.6082,969.121 596.715,989.7717 601.0491,1003.3607 " fill="none" id="#121055-#121061" style="stroke: #A80036; stroke-width: 1.0;"/><polygon fill="#A80036" points="602.6244,1008.3741,603.7425,998.5889,601.1255,1003.604,596.1104,1000.9871,602.6244,1008.3741" style="stroke: #A80036; stroke-width: 1.0;"/><text fill="#000000" font-family="sans-serif" font-size="11" lengthAdjust="spacingAndGlyphs" textLength="19" x="595.5" y="973.6348">Yes</text><text fill="#000000" font-family="sans-serif" font-size="11" lengthAdjust="spacingAndGlyphs" textLength="123" x="462.3235" y="1002.9377">TestParameter finished</text><!--link #121061 to create TestParameter with edges--><path d="M603.9512,1028.6349 C601.5535,1045.099 596.8911,1077.1148 593.7361,1098.779 " fill="none" id="#121061-create TestParameter with edges" style="stroke: #A80036; stroke-width: 1.0;"/><polygon fill="#A80036" points="593.0083,1103.7764,598.2636,1095.4468,593.7289,1098.8286,590.3471,1094.2939,593.0083,1103.7764" style="stroke: #A80036; stroke-width: 1.0;"/><text fill="#000000" font-family="sans-serif" font-size="11" lengthAdjust="spacingAndGlyphs" textLength="19" x="601.5" y="1071.6348">Yes</text><!--link create TestParameter with edges to Reset parameters if needed--><path d="M534.8089,1138.0795 C511.1034,1145.0451 483.0739,1152.8818 457.5,1159 C426.913,1166.3175 393.3081,1173.2069 362.9272,1179.0114 " fill="none" id="create TestParameter with edges-Reset parameters if needed" style="stroke: #A80036; stroke-width: 1.0;"/><polygon fill="#A80036" points="357.6881,1180.0078,367.277,1182.2556,362.6,1179.0735,365.7821,1174.3965,357.6881,1180.0078" style="stroke: #A80036; stroke-width: 1.0;"/><!--link Reset parameters if needed to #121067--><path d="M266.5,1213.3034 C266.5,1224.1588 266.5,1238.0963 266.5,1248.9108 " fill="none" id="Reset parameters if needed-#121067" style="stroke: #A80036; stroke-width: 1.0;"/><polygon fill="#A80036" points="266.5,1253.9417,270.5,1244.9417,266.5,1248.9417,262.5,1244.9417,266.5,1253.9417" style="stroke: #A80036; stroke-width: 1.0;"/><text fill="#000000" font-family="sans-serif" font-size="11" lengthAdjust="spacingAndGlyphs" textLength="90" x="156.8125" y="1244.8849">Order is finished</text><!--link #121067 to Reset everything for new Order--><path d="M263.4075,1275.1335 C256.7,1294.9442 240.6487,1342.3516 231.0714,1370.638 " fill="none" id="#121067-Reset everything for new Order" style="stroke: #A80036; stroke-width: 1.0;"/><polygon fill="#A80036" points="229.3621,1375.6862,236.0372,1368.4444,230.9656,1370.9503,228.4597,1365.8788,229.3621,1375.6862" style="stroke: #A80036; stroke-width: 1.0;"/><text fill="#000000" font-family="sans-serif" font-size="11" lengthAdjust="spacingAndGlyphs" textLength="19" x="256.5" y="1309.6348">Yes</text><!--link Reset everything for new Order to end--><path d="M221.1574,1410.3088 C218.8384,1434.431 218.1353,1478.5088 238.5,1508 C283.4499,1573.0943 382.0265,1601.2558 419.5738,1609.9021 " fill="none" id="Reset everything for new Order-end" style="stroke: #A80036; stroke-width: 1.0;"/><polygon fill="#A80036" points="424.6571,1611.0383,416.7464,1605.1713,419.7775,1609.9476,415.0013,1612.9787,424.6571,1611.0383" style="stroke: #A80036; stroke-width: 1.0;"/><!--link #121067 to #121074--><path d="M272.6633,1271.8627 C286.6725,1285.1885 321.0253,1317.8655 338.2718,1334.2707 " fill="none" id="#121067-#121074" style="stroke: #A80036; stroke-width: 1.0;"/><polygon fill="#A80036" points="342.2652,1338.0693,338.501,1328.9681,338.6424,1334.6232,332.9873,1334.7646,342.2652,1338.0693" style="stroke: #A80036; stroke-width: 1.0;"/><text fill="#000000" font-family="sans-serif" font-size="11" lengthAdjust="spacingAndGlyphs" textLength="15" x="315.5" y="1309.6348">No</text><text fill="#000000" font-family="sans-serif" font-size="11" lengthAdjust="spacingAndGlyphs" textLength="100" x="228.558" y="1333.9124">Product is finished</text><!--link #121074 to Reset everything for new Product--><path d="M348.1794,1355.7811 C347.5135,1380.2547 345.9708,1436.9473 345.1095,1468.6024 " fill="none" id="#121074-Reset everything for new Product" style="stroke: #A80036; stroke-width: 1.0;"/><polygon fill="#A80036" points="344.9671,1473.8337,349.2104,1464.9458,345.1031,1468.8355,341.2134,1464.7282,344.9671,1473.8337" style="stroke: #A80036; stroke-width: 1.0;"/><text fill="#000000" font-family="sans-serif" font-size="11" lengthAdjust="spacingAndGlyphs" textLength="19" x="348.5" y="1397.6348">Yes</text><!--link Reset everything for new Product to end--><path d="M357.2039,1508.2209 C375.6468,1533.2212 409.3866,1578.9574 425.4871,1600.7825 " fill="none" id="Reset everything for new Product-end" style="stroke: #A80036; stroke-width: 1.0;"/><polygon fill="#A80036" points="428.4622,1604.8155,426.3381,1595.1984,425.4939,1600.7919,419.9004,1599.9477,428.4622,1604.8155" style="stroke: #A80036; stroke-width: 1.0;"/><!--link #121074 to #121080--><path d="M355.1257,1349.5497 C374.5123,1365.7881 431.2462,1413.3088 454.9265,1433.1436 " fill="none" id="#121074-#121080" style="stroke: #A80036; stroke-width: 1.0;"/><polygon fill="#A80036" points="458.947,1436.5112,454.6162,1427.6656,455.114,1433.3005,449.4791,1433.7983,458.947,1436.5112" style="stroke: #A80036; stroke-width: 1.0;"/><text fill="#000000" font-family="sans-serif" font-size="11" lengthAdjust="spacingAndGlyphs" textLength="15" x="424.5" y="1397.6348">No</text><text fill="#000000" font-family="sans-serif" font-size="11" lengthAdjust="spacingAndGlyphs" textLength="146" x="299.2738" y="1433.2534">All TestParameters finished</text><!--link #121080 to Reset everything for new Component--><path d="M472.8795,1446.9679 C493.4719,1460.8307 552.4239,1500.5174 588.6948,1524.9351 " fill="none" id="#121080-Reset everything for new Component" style="stroke: #A80036; stroke-width: 1.0;"/><polygon fill="#A80036" points="593.0016,1527.8344,587.7696,1519.4902,588.8539,1525.0421,583.302,1526.1265,593.0016,1527.8344" style="stroke: #A80036; stroke-width: 1.0;"/><text fill="#000000" font-family="sans-serif" font-size="11" lengthAdjust="spacingAndGlyphs" textLength="19" x="560.5" y="1495.6348">Yes</text><!--link Reset everything for new Component to end--><path d="M572.069,1562.1593 C531.547,1577.1348 475.2455,1597.9419 449.0204,1607.6338 " fill="none" id="Reset everything for new Component-end" style="stroke: #A80036; stroke-width: 1.0;"/><polygon fill="#A80036" points="444.19,1609.4189,454.0186,1610.051,448.88,1607.6856,451.2453,1602.547,444.19,1609.4189" style="stroke: #A80036; stroke-width: 1.0;"/><!--link #121080 to end--><path d="M463.6536,1452.1847 C458.4076,1481.1225 443.3948,1563.9351 437.2116,1598.0427 " fill="none" id="#121080-end" style="stroke: #A80036; stroke-width: 1.0;"/><polygon fill="#A80036" points="436.2978,1603.0828,441.8392,1594.9408,437.1898,1598.163,433.9675,1593.5136,436.2978,1603.0828" style="stroke: #A80036; stroke-width: 1.0;"/><text fill="#000000" font-family="sans-serif" font-size="11" lengthAdjust="spacingAndGlyphs" textLength="15" x="450.5" y="1549.6348">No</text><!--
@startuml
(*)  - -> "createGraph()"
if "Factory present" then
    - -> [No] "create Factory"
    - -> "Reset parameters if needed"
else
    - -> [Yes] if "Machine present" then
        - -> [No] "create Machine with edges"
        - -> "Reset parameters if needed"
    else
        - -> [Yes] if "Orders present" then
            - -> [No] "create Orders with edges"
            - -> "Reset parameters if needed"
        else
            - -> [Yes] if "Design present" then
                - -> [No] "create Design with edges"
                - -> "Reset parameters if needed"
            else
                - -> [Yes] if "Order fulfilled" then
                    - -> [Yes] "create new Order with edges"
                    - -> "Reset parameters if needed"
                else
                    - -> [No] if "Product finished" then
                        - -> [Yes] "create Product with edges"
                        - -> "Reset parameters if needed"
                    else
                        - -> [No] if "Date added" then
                            - -> [No] "create Date with edges"
                            - -> "Reset parameters if needed"
                        else
                            - -> [Yes] if "Component tested" then
                                - -> [Yes] "create Component with edges"
                                - -> "Reset parameters if needed"
                            else
                                - -> [No] if "Tests added" then
                                    - -> [No] "create Tests with edges"
                                    - -> "Reset parameters if needed"
                                else
                                    - -> [Yes] if "TestParameter finished" then
                                        - -> [Yes] "create TestParameter with edges"

- -> "Reset parameters if needed"

if "Order is finished" then
    - -> [Yes] "Reset everything for new Order"
    - -> (*)
else
    - -> [No] if "Product is finished" then
        - -> [Yes] "Reset everything for new Product"
        - -> (*)
    else
        - -> [No] if "All TestParameters finished" then
            - -> [Yes] "Reset everything for new Component"
            - -> (*)
            else
                - -> [No] (*)
@enduml

PlantUML version 1.2018.01(Sun Jan 28 19:08:22 CET 2018)
(GPL source distribution)
Java Runtime: OpenJDK Runtime Environment
JVM: OpenJDK 64-Bit Server VM
Java Version: 1.8.0_152-release-1136-b20
Operating System: Mac OS X
OS Version: 10.13.4
Default Encoding: UTF-8
Language: en
Country: DE
--></g></svg>