<?xml version="1.0" encoding="UTF-8" standalone="no"?><svg xmlns="http://www.w3.org/2000/svg" xmlns:xlink="http://www.w3.org/1999/xlink" contentScriptType="application/ecmascript" contentStyleType="text/css" height="387.6px" preserveAspectRatio="none" style="width:489px;height:387px;" version="1.1" viewBox="0 0 489 387" width="489.6px" zoomAndPan="magnify"><defs><filter height="300%" id="ffakwle2j2zj" width="300%" x="-1" y="-1"><feGaussianBlur result="blurOut" stdDeviation="2.4000000953674316"/><feColorMatrix in="blurOut" result="blurOut2" type="matrix" values="0 0 0 0 0 0 0 0 0 0 0 0 0 0 0 0 0 0 .4 0"/><feOffset dx="4.800000190734863" dy="4.800000190734863" in="blurOut2" result="blurOut3"/><feBlend in="SourceGraphic" in2="blurOut3" mode="normal"/></filter></defs><g><ellipse cx="156" cy="21.6" fill="#000000" filter="url(#ffakwle2j2zj)" rx="12" ry="12" style="stroke: none; stroke-width: 1.2000000476837158;"/><polygon fill="#FEFECE" filter="url(#ffakwle2j2zj)" points="156,104.4,170.4,118.8,156,133.2,141.6,118.8,156,104.4" style="stroke: #A80036; stroke-width: 1.8000000715255737;"/><rect fill="#FEFECE" filter="url(#ffakwle2j2zj)" height="40.9594" rx="15" ry="15" style="stroke: #A80036; stroke-width: 1.8000000715255737;" width="258" x="219" y="98.4"/><text fill="#000000" font-family="sans-serif" font-size="14.4" lengthAdjust="spacingAndGlyphs" textLength="234" x="231" y="124.3219">Create value according to schema</text><rect fill="#FEFECE" filter="url(#ffakwle2j2zj)" height="40.9594" rx="15" ry="15" style="stroke: #A80036; stroke-width: 1.8000000715255737;" width="141.6" x="268.8" y="204"/><text fill="#000000" font-family="sans-serif" font-size="14.4" lengthAdjust="spacingAndGlyphs" textLength="117.6" x="280.8" y="229.9219">Store value in file</text><rect fill="#FEFECE" filter="url(#ffakwle2j2zj)" height="40.9594" rx="15" ry="15" style="stroke: #A80036; stroke-width: 1.8000000715255737;" width="106.8" x="216.6" y="333.6"/><text fill="#000000" font-family="sans-serif" font-size="14.4" lengthAdjust="spacingAndGlyphs" textLength="82.8" x="228.6" y="359.5219">return value</text><rect fill="#FEFECE" filter="url(#ffakwle2j2zj)" height="40.9594" rx="15" ry="15" style="stroke: #A80036; stroke-width: 1.8000000715255737;" width="188.4" x="119.4" y="268.8"/><text fill="#000000" font-family="sans-serif" font-size="14.4" lengthAdjust="spacingAndGlyphs" textLength="164.4" x="131.4" y="294.7219">Recreate value from file</text><ellipse cx="360" cy="354" fill="none" filter="url(#ffakwle2j2zj)" rx="12" ry="12" style="stroke: #000000; stroke-width: 1.2000000476837158;"/><ellipse cx="360.6" cy="354.6" fill="#000000" rx="7.2" ry="7.2" style="stroke: none; stroke-width: 1.2000000476837158;"/><!--link start to #13268--><path d="M156,33.9104 C156,50.0658 156,78.651 156,98.1472 " fill="none" id="start-#13268" style="stroke: #A80036; stroke-width: 1.2000000476837158;"/><polygon fill="#A80036" points="156,104.3794,160.8,93.5794,156,98.3794,151.2,93.5794,156,104.3794" style="stroke: #A80036; stroke-width: 1.2000000476837158;"/><text fill="#000000" font-family="sans-serif" font-size="13.2" lengthAdjust="spacingAndGlyphs" textLength="63.6" x="157.2" y="71.5617">nextValue</text><text fill="#000000" font-family="sans-serif" font-size="13.2" lengthAdjust="spacingAndGlyphs" textLength="130.8" x="1.0838" y="94.9798">instance is Recorder</text><!--link #13268 to Create value according to schema--><path d="M170.4312,118.8 C180.6839,118.8 195.5902,118.8 212.4724,118.8 " fill="none" id="#13268-Create value according to schema" style="stroke: #A80036; stroke-width: 1.2000000476837158;"/><polygon fill="#A80036" points="218.7767,118.8,207.9767,114,212.7767,118.8,207.9767,123.6,218.7767,118.8" style="stroke: #A80036; stroke-width: 1.2000000476837158;"/><text fill="#000000" font-family="sans-serif" font-size="13.2" lengthAdjust="spacingAndGlyphs" textLength="22.8" x="183.3" y="112.3617">Yes</text><!--link Create value according to schema to Store value in file--><path d="M346.3404,139.6632 C345.0204,156.2585 343.164,179.5962 341.7335,197.5789 " fill="none" id="Create value according to schema-Store value in file" style="stroke: #A80036; stroke-width: 1.2000000476837158;"/><polygon fill="#A80036" points="341.2276,203.9395,346.8691,193.5543,341.7035,197.9584,337.2993,192.7928,341.2276,203.9395" style="stroke: #A80036; stroke-width: 1.2000000476837158;"/><!--link Store value in file to return value--><path d="M338.1202,244.9608 C336.0472,263.0658 331.081,289.5905 319.2,309.6 C314.9872,316.6951 309.2733,323.2997 303.2302,329.1315 " fill="none" id="Store value in file-return value" style="stroke: #A80036; stroke-width: 1.2000000476837158;"/><polygon fill="#A80036" points="298.5641,333.4359,309.7569,329.641,302.9742,329.3676,303.2477,322.5849,298.5641,333.4359" style="stroke: #A80036; stroke-width: 1.2000000476837158;"/><!--link #13268 to Recreate value from file--><path d="M159.7793,129.9804 C168.807,156.6876 191.827,224.788 204.6434,262.7034 " fill="none" id="#13268-Recreate value from file" style="stroke: #A80036; stroke-width: 1.2000000476837158;"/><polygon fill="#A80036" points="206.609,268.5185,207.6978,256.7501,204.6877,262.8344,198.6034,259.8243,206.609,268.5185" style="stroke: #A80036; stroke-width: 1.2000000476837158;"/><text fill="#000000" font-family="sans-serif" font-size="13.2" lengthAdjust="spacingAndGlyphs" textLength="18" x="177.6" y="177.1617">No</text><!--link Recreate value from file to return value--><path d="M231.4453,309.7031 C236.6916,315.7308 242.4931,322.3963 247.9684,328.6871 " fill="none" id="Recreate value from file-return value" style="stroke: #A80036; stroke-width: 1.2000000476837158;"/><polygon fill="#A80036" points="252.0772,333.4079,248.6075,322.11,248.1381,328.882,241.3661,328.4126,252.0772,333.4079" style="stroke: #A80036; stroke-width: 1.2000000476837158;"/><!--link return value to end--><path d="M323.4376,354 C329.3111,354 335.1846,354 341.0583,354 " fill="none" id="return value-end" style="stroke: #A80036; stroke-width: 1.2000000476837158;"/><polygon fill="#A80036" points="347.4317,354,336.6317,349.2,341.4317,354,336.6317,358.8,347.4317,354" style="stroke: #A80036; stroke-width: 1.2000000476837158;"/><!--
@startuml
(*)  - -> [nextValue] if "instance is Recorder"
-> [Yes] "Create value according to schema"
- -> "Store value in file"
- -> "return value"
else
- -> [No] "Recreate value from file"
-> "return value"
endif
->(*)
@enduml

PlantUML version 1.2018.01(Sun Jan 28 19:08:22 CET 2018)
(GPL source distribution)
Java Runtime: OpenJDK Runtime Environment
JVM: OpenJDK 64-Bit Server VM
Java Version: 1.8.0_152-release-1136-b20
Operating System: Mac OS X
OS Version: 10.13.4
Default Encoding: UTF-8
Language: en
Country: DE
--></g></svg>