<?xml version="1.0" encoding="UTF-8" standalone="no"?><svg xmlns="http://www.w3.org/2000/svg" xmlns:xlink="http://www.w3.org/1999/xlink" contentScriptType="application/ecmascript" contentStyleType="text/css" height="1046.4px" preserveAspectRatio="none" style="width:676px;height:1046px;" version="1.1" viewBox="0 0 676 1046" width="676.8px" zoomAndPan="magnify"><defs><filter height="300%" id="fhgtsa6g5nygp" width="300%" x="-1" y="-1"><feGaussianBlur result="blurOut" stdDeviation="2.4000000953674316"/><feColorMatrix in="blurOut" result="blurOut2" type="matrix" values="0 0 0 0 0 0 0 0 0 0 0 0 0 0 0 0 0 0 .4 0"/><feOffset dx="4.800000190734863" dy="4.800000190734863" in="blurOut2" result="blurOut3"/><feBlend in="SourceGraphic" in2="blurOut3" mode="normal"/></filter></defs><g><ellipse cx="336.6" cy="21.6" fill="#000000" filter="url(#fhgtsa6g5nygp)" rx="12" ry="12" style="stroke: none; stroke-width: 1.2000000476837158;"/><rect fill="#FEFECE" filter="url(#fhgtsa6g5nygp)" height="40.9594" rx="15" ry="15" style="stroke: #A80036; stroke-width: 1.8000000715255737;" width="139.2" x="267" y="98.4"/><text fill="#000000" font-family="sans-serif" font-size="14.4" lengthAdjust="spacingAndGlyphs" textLength="115.2" x="279" y="124.3219">load parameters</text><rect fill="#FEFECE" filter="url(#fhgtsa6g5nygp)" height="40.9594" rx="15" ry="15" style="stroke: #A80036; stroke-width: 1.8000000715255737;" width="214.8" x="229.2" y="188.4"/><text fill="#000000" font-family="sans-serif" font-size="14.4" lengthAdjust="spacingAndGlyphs" textLength="190.8" x="241.2" y="214.3219">create graphDataGenerator</text><polygon fill="#FEFECE" filter="url(#fhgtsa6g5nygp)" points="336.6,278.4,351,292.8,336.6,307.2,322.2,292.8,336.6,278.4" style="stroke: #A80036; stroke-width: 1.8000000715255737;"/><rect fill="#FEFECE" filter="url(#fhgtsa6g5nygp)" height="40.9594" rx="15" ry="15" style="stroke: #A80036; stroke-width: 1.8000000715255737;" width="213.6" x="112.2" y="372"/><text fill="#000000" font-family="sans-serif" font-size="14.4" lengthAdjust="spacingAndGlyphs" textLength="189.6" x="124.2" y="397.9219">return GraphDataRecreator</text><rect fill="#FEFECE" filter="url(#fhgtsa6g5nygp)" height="40.9594" rx="15" ry="15" style="stroke: #A80036; stroke-width: 1.8000000715255737;" width="318" x="177.6" y="462"/><text fill="#000000" font-family="sans-serif" font-size="14.4" lengthAdjust="spacingAndGlyphs" textLength="294" x="189.6" y="487.9219">create randomGraphComponentGenerator</text><rect fill="#FEFECE" filter="url(#fhgtsa6g5nygp)" height="40.9594" rx="15" ry="15" style="stroke: #A80036; stroke-width: 1.8000000715255737;" width="210" x="350.4" y="372"/><text fill="#000000" font-family="sans-serif" font-size="14.4" lengthAdjust="spacingAndGlyphs" textLength="186" x="362.4" y="397.9219">return GraphDataRecorder</text><polygon fill="#FEFECE" filter="url(#fhgtsa6g5nygp)" points="336.6,552,351,566.4,336.6,580.8,322.2,566.4,336.6,552" style="stroke: #A80036; stroke-width: 1.8000000715255737;"/><rect fill="#FEFECE" filter="url(#fhgtsa6g5nygp)" height="40.9594" rx="15" ry="15" style="stroke: #A80036; stroke-width: 1.8000000715255737;" width="318" x="7.2" y="645.6"/><text fill="#000000" font-family="sans-serif" font-size="14.4" lengthAdjust="spacingAndGlyphs" textLength="294" x="19.2" y="671.5219">return RandomGraphComponentRecreator</text><rect fill="#FEFECE" filter="url(#fhgtsa6g5nygp)" height="40.9594" rx="15" ry="15" style="stroke: #A80036; stroke-width: 1.8000000715255737;" width="248.4" x="211.2" y="735.6"/><text fill="#000000" font-family="sans-serif" font-size="14.4" lengthAdjust="spacingAndGlyphs" textLength="224.4" x="223.2" y="761.5219">create operationOrderGenerator</text><rect fill="#FEFECE" filter="url(#fhgtsa6g5nygp)" height="40.9594" rx="15" ry="15" style="stroke: #A80036; stroke-width: 1.8000000715255737;" width="314.4" x="349.8" y="645.6"/><text fill="#000000" font-family="sans-serif" font-size="14.4" lengthAdjust="spacingAndGlyphs" textLength="290.4" x="361.8" y="671.5219">return RandomGraphComponentRecorder</text><polygon fill="#FEFECE" filter="url(#fhgtsa6g5nygp)" points="335.4,825.6,349.8,840,335.4,854.4,321,840,335.4,825.6" style="stroke: #A80036; stroke-width: 1.8000000715255737;"/><rect fill="#FEFECE" filter="url(#fhgtsa6g5nygp)" height="40.9594" rx="15" ry="15" style="stroke: #A80036; stroke-width: 1.8000000715255737;" width="247.2" x="77.4" y="919.2"/><text fill="#000000" font-family="sans-serif" font-size="14.4" lengthAdjust="spacingAndGlyphs" textLength="223.2" x="89.4" y="945.1219">return OperationOrderRecreator</text><ellipse cx="335.4" cy="1021.2" fill="none" filter="url(#fhgtsa6g5nygp)" rx="12" ry="12" style="stroke: #000000; stroke-width: 1.2000000476837158;"/><ellipse cx="336" cy="1021.8" fill="#000000" rx="7.2" ry="7.2" style="stroke: none; stroke-width: 1.2000000476837158;"/><rect fill="#FEFECE" filter="url(#fhgtsa6g5nygp)" height="40.9594" rx="15" ry="15" style="stroke: #A80036; stroke-width: 1.8000000715255737;" width="243.6" x="349.2" y="919.2"/><text fill="#000000" font-family="sans-serif" font-size="14.4" lengthAdjust="spacingAndGlyphs" textLength="219.6" x="361.2" y="945.1219">return OperationOrderRecorder</text><!--link start to load parameters--><path d="M336.6,33.9104 C336.6,48.4136 336.6,72.9341 336.6,91.9032 " fill="none" id="start-load parameters" style="stroke: #A80036; stroke-width: 1.2000000476837158;"/><polygon fill="#A80036" points="336.6,98.1008,341.4,87.3008,336.6,92.1008,331.8,87.3008,336.6,98.1008" style="stroke: #A80036; stroke-width: 1.2000000476837158;"/><text fill="#000000" font-family="sans-serif" font-size="13.2" lengthAdjust="spacingAndGlyphs" textLength="20.4" x="337.8" y="71.5617">init</text><!--link load parameters to create graphDataGenerator--><path d="M336.6,139.2224 C336.6,151.9052 336.6,168.3455 336.6,182.0605 " fill="none" id="load parameters-create graphDataGenerator" style="stroke: #A80036; stroke-width: 1.2000000476837158;"/><polygon fill="#A80036" points="336.6,188.1469,341.4,177.3469,336.6,182.1469,331.8,177.3469,336.6,188.1469" style="stroke: #A80036; stroke-width: 1.2000000476837158;"/><!--link create graphDataGenerator to #8781--><path d="M336.6,229.5641 C336.6,242.5906 336.6,259.3156 336.6,272.293 " fill="none" id="create graphDataGenerator-#8781" style="stroke: #A80036; stroke-width: 1.2000000476837158;"/><polygon fill="#A80036" points="336.6,278.3301,341.4,267.5301,336.6,272.3301,331.8,267.5301,336.6,278.3301" style="stroke: #A80036; stroke-width: 1.2000000476837158;"/><text fill="#000000" font-family="sans-serif" font-size="13.2" lengthAdjust="spacingAndGlyphs" textLength="79.2" x="237.105" y="265.8796">files present</text><!--link #8781 to return GraphDataRecreator--><path d="M328.5169,299.6459 C312.2002,313.4651 274.6207,345.2927 248.048,367.7981 " fill="none" id="#8781-return GraphDataRecreator" style="stroke: #A80036; stroke-width: 1.2000000476837158;"/><polygon fill="#A80036" points="243.222,371.8855,254.5656,368.5684,247.8005,368.0078,248.3612,361.2427,243.222,371.8855" style="stroke: #A80036; stroke-width: 1.2000000476837158;"/><text fill="#000000" font-family="sans-serif" font-size="13.2" lengthAdjust="spacingAndGlyphs" textLength="22.8" x="289.8" y="345.1617">Yes</text><!--link return GraphDataRecreator to create randomGraphComponentGenerator--><path d="M245.6852,412.8225 C263.1534,426.1908 286.0762,443.7339 304.5339,457.8597 " fill="none" id="return GraphDataRecreator-create randomGraphComponentGenerator" style="stroke: #A80036; stroke-width: 1.2000000476837158;"/><polygon fill="#A80036" points="309.6133,461.7469,303.9542,451.3713,304.8487,458.1003,298.1196,458.9948,309.6133,461.7469" style="stroke: #A80036; stroke-width: 1.2000000476837158;"/><!--link #8781 to return GraphDataRecorder--><path d="M344.7657,299.6459 C361.2489,313.4651 399.2117,345.2927 426.0556,367.7981 " fill="none" id="#8781-return GraphDataRecorder" style="stroke: #A80036; stroke-width: 1.2000000476837158;"/><polygon fill="#A80036" points="430.9308,371.8855,425.7384,361.2686,426.3329,368.0308,419.5708,368.6252,430.9308,371.8855" style="stroke: #A80036; stroke-width: 1.2000000476837158;"/><text fill="#000000" font-family="sans-serif" font-size="13.2" lengthAdjust="spacingAndGlyphs" textLength="18" x="400.2" y="345.1617">No</text><!--link return GraphDataRecorder to create randomGraphComponentGenerator--><path d="M428.4425,412.8225 C410.7961,426.1908 387.6394,443.7339 368.9933,457.8597 " fill="none" id="return GraphDataRecorder-create randomGraphComponentGenerator" style="stroke: #A80036; stroke-width: 1.2000000476837158;"/><polygon fill="#A80036" points="363.8621,461.7469,375.3692,459.0512,368.6446,458.1237,369.5721,451.3992,363.8621,461.7469" style="stroke: #A80036; stroke-width: 1.2000000476837158;"/><!--link create randomGraphComponentGenerator to #8791--><path d="M336.6,503.1641 C336.6,516.1906 336.6,532.9156 336.6,545.893 " fill="none" id="create randomGraphComponentGenerator-#8791" style="stroke: #A80036; stroke-width: 1.2000000476837158;"/><polygon fill="#A80036" points="336.6,551.9301,341.4,541.1301,336.6,545.9301,331.8,541.1301,336.6,551.9301" style="stroke: #A80036; stroke-width: 1.2000000476837158;"/><text fill="#000000" font-family="sans-serif" font-size="13.2" lengthAdjust="spacingAndGlyphs" textLength="79.2" x="237.105" y="539.4796">files present</text><!--link #8791 to return RandomGraphComponentRecreator--><path d="M327.4386,571.7549 C305.0771,584.8254 246.6113,618.999 206.5878,642.3931 " fill="none" id="#8791-return RandomGraphComponentRecreator" style="stroke: #A80036; stroke-width: 1.2000000476837158;"/><polygon fill="#A80036" points="201.3133,645.4761,213.0596,644.1701,206.4934,642.4483,208.2152,635.8821,201.3133,645.4761" style="stroke: #A80036; stroke-width: 1.2000000476837158;"/><text fill="#000000" font-family="sans-serif" font-size="13.2" lengthAdjust="spacingAndGlyphs" textLength="22.8" x="268.2" y="618.7617">Yes</text><!--link return RandomGraphComponentRecreator to create operationOrderGenerator--><path d="M204.5941,686.4225 C230.2638,700.0765 264.1206,718.0854 290.9575,732.3604 " fill="none" id="return RandomGraphComponentRecreator-create operationOrderGenerator" style="stroke: #A80036; stroke-width: 1.2000000476837158;"/><polygon fill="#A80036" points="296.5722,735.3469,289.2914,726.0373,291.275,732.5292,284.7831,734.5128,296.5722,735.3469" style="stroke: #A80036; stroke-width: 1.2000000476837158;"/><!--link #8791 to return RandomGraphComponentRecorder--><path d="M345.7614,571.7549 C368.1229,584.8254 426.5887,618.999 466.6122,642.3931 " fill="none" id="#8791-return RandomGraphComponentRecorder" style="stroke: #A80036; stroke-width: 1.2000000476837158;"/><polygon fill="#A80036" points="471.8867,645.4761,464.9849,635.8821,466.7067,642.4483,460.1404,644.1701,471.8867,645.4761" style="stroke: #A80036; stroke-width: 1.2000000476837158;"/><text fill="#000000" font-family="sans-serif" font-size="13.2" lengthAdjust="spacingAndGlyphs" textLength="18" x="427.8" y="618.7617">No</text><!--link return RandomGraphComponentRecorder to create operationOrderGenerator--><path d="M468.0613,686.4225 C441.9186,700.1337 407.403,718.2363 380.1317,732.5394 " fill="none" id="return RandomGraphComponentRecorder-create operationOrderGenerator" style="stroke: #A80036; stroke-width: 1.2000000476837158;"/><polygon fill="#A80036" points="374.7786,735.3469,386.5724,734.5814,380.0921,732.5601,382.1134,726.0798,374.7786,735.3469" style="stroke: #A80036; stroke-width: 1.2000000476837158;"/><!--link create operationOrderGenerator to #8801--><path d="M335.4,776.7641 C335.4,789.7906 335.4,806.5156 335.4,819.493 " fill="none" id="create operationOrderGenerator-#8801" style="stroke: #A80036; stroke-width: 1.2000000476837158;"/><polygon fill="#A80036" points="335.4,825.5301,340.2,814.7301,335.4,819.5301,330.6,814.7301,335.4,825.5301" style="stroke: #A80036; stroke-width: 1.2000000476837158;"/><text fill="#000000" font-family="sans-serif" font-size="13.2" lengthAdjust="spacingAndGlyphs" textLength="79.2" x="235.905" y="813.0796">files present</text><!--link #8801 to return OperationOrderRecreator--><path d="M326.9927,846.2304 C308.6641,859.8132 264.2806,892.7046 233.4148,915.5784 " fill="none" id="#8801-return OperationOrderRecreator" style="stroke: #A80036; stroke-width: 1.2000000476837158;"/><polygon fill="#A80036" points="228.5831,919.159,240.118,916.5851,233.4036,915.5866,234.4021,908.8722,228.5831,919.159" style="stroke: #A80036; stroke-width: 1.2000000476837158;"/><text fill="#000000" font-family="sans-serif" font-size="13.2" lengthAdjust="spacingAndGlyphs" textLength="22.8" x="282.6" y="892.3618">Yes</text><!--link return OperationOrderRecreator to end--><path d="M234.9148,960.1912 C262.0677,976.6768 298.9201,999.0515 319.6139,1011.6155 " fill="none" id="return OperationOrderRecreator-end" style="stroke: #A80036; stroke-width: 1.2000000476837158;"/><polygon fill="#A80036" points="325.0006,1014.8861,318.2601,1005.1781,319.8719,1011.7722,313.2778,1013.384,325.0006,1014.8861" style="stroke: #A80036; stroke-width: 1.2000000476837158;"/><!--link #8801 to return OperationOrderRecorder--><path d="M343.8825,846.2304 C362.3747,859.8132 407.1545,892.7046 438.2958,915.5784 " fill="none" id="#8801-return OperationOrderRecorder" style="stroke: #A80036; stroke-width: 1.2000000476837158;"/><polygon fill="#A80036" points="443.1706,919.159,437.3076,908.8971,438.3348,915.6072,431.6247,916.6344,443.1706,919.159" style="stroke: #A80036; stroke-width: 1.2000000476837158;"/><text fill="#000000" font-family="sans-serif" font-size="13.2" lengthAdjust="spacingAndGlyphs" textLength="18" x="407.4" y="892.3618">No</text><!--link return OperationOrderRecorder to end--><path d="M436.7824,960.1912 C409.3872,976.6768 372.2056,999.0515 351.3271,1011.6155 " fill="none" id="return OperationOrderRecorder-end" style="stroke: #A80036; stroke-width: 1.2000000476837158;"/><polygon fill="#A80036" points="345.8923,1014.8861,357.6209,1013.4301,351.0332,1011.7924,352.671,1005.2047,345.8923,1014.8861" style="stroke: #A80036; stroke-width: 1.2000000476837158;"/><!--
@startuml
(*) - -> [init] "load parameters"
- -> "create graphDataGenerator"
If "files present" then
- -> [Yes] "return GraphDataRecreator"
- -> "create randomGraphComponentGenerator"
else
- -> [No] "return GraphDataRecorder"
- -> "create randomGraphComponentGenerator"
endif

If "files present" then
- -> [Yes] "return RandomGraphComponentRecreator"
- -> "create operationOrderGenerator"
else
- -> [No] "return RandomGraphComponentRecorder"
- -> "create operationOrderGenerator"
endif

If "files present" then
- -> [Yes] "return OperationOrderRecreator"
- -> (*)
else
- -> [No] "return OperationOrderRecorder"
endif
- ->(*)
@enduml

PlantUML version 1.2018.01(Sun Jan 28 19:08:22 CET 2018)
(GPL source distribution)
Java Runtime: OpenJDK Runtime Environment
JVM: OpenJDK 64-Bit Server VM
Java Version: 1.8.0_152-release-1136-b20
Operating System: Mac OS X
OS Version: 10.13.4
Default Encoding: UTF-8
Language: en
Country: DE
--></g></svg>