<?xml version="1.0" encoding="UTF-8" standalone="no"?><svg xmlns="http://www.w3.org/2000/svg" xmlns:xlink="http://www.w3.org/1999/xlink" contentScriptType="application/ecmascript" contentStyleType="text/css" height="341px" preserveAspectRatio="none" style="width:281px;height:341px;" version="1.1" viewBox="0 0 281 341" width="281px" zoomAndPan="magnify"><defs><filter height="300%" id="f1c2qukd077p05" width="300%" x="-1" y="-1"><feGaussianBlur result="blurOut" stdDeviation="2.0"/><feColorMatrix in="blurOut" result="blurOut2" type="matrix" values="0 0 0 0 0 0 0 0 0 0 0 0 0 0 0 0 0 0 .4 0"/><feOffset dx="4.0" dy="4.0" in="blurOut2" result="blurOut3"/><feBlend in="SourceGraphic" in2="blurOut3" mode="normal"/></filter></defs><g><ellipse cx="138.5" cy="18" fill="#000000" filter="url(#f1c2qukd077p05)" rx="10" ry="10" style="stroke: none; stroke-width: 1.0;"/><rect fill="#FEFECE" filter="url(#f1c2qukd077p05)" height="34.1328" rx="12.5" ry="12.5" style="stroke: #A80036; stroke-width: 1.5;" width="139" x="69" y="82"/><text fill="#000000" font-family="sans-serif" font-size="12" lengthAdjust="spacingAndGlyphs" textLength="119" x="79" y="103.6016">randomNodeOrEdge</text><polygon fill="#FEFECE" filter="url(#f1c2qukd077p05)" points="138.5,157,150.5,169,138.5,181,126.5,169,138.5,157" style="stroke: #A80036; stroke-width: 1.5;"/><rect fill="#FEFECE" filter="url(#f1c2qukd077p05)" height="34.1328" rx="12.5" ry="12.5" style="stroke: #A80036; stroke-width: 1.5;" width="123" x="6" y="235"/><text fill="#000000" font-family="sans-serif" font-size="12" lengthAdjust="spacingAndGlyphs" textLength="103" x="16" y="256.6016">pickRandomNode</text><rect fill="#FEFECE" filter="url(#f1c2qukd077p05)" height="34.1328" rx="12.5" ry="12.5" style="stroke: #A80036; stroke-width: 1.5;" width="121" x="149" y="235"/><text fill="#000000" font-family="sans-serif" font-size="12" lengthAdjust="spacingAndGlyphs" textLength="101" x="159" y="256.6016">pickRandomEdge</text><ellipse cx="137.5" cy="320" fill="none" filter="url(#f1c2qukd077p05)" rx="10" ry="10" style="stroke: #000000; stroke-width: 1.0;"/><ellipse cx="138" cy="320.5" fill="#000000" rx="6" ry="6" style="stroke: none; stroke-width: 1.0;"/><!--link start to randomNodeOrEdge--><path d="M138.5,28.2587 C138.5,40.3447 138.5,60.7784 138.5,76.586 " fill="none" id="start-randomNodeOrEdge" style="stroke: #A80036; stroke-width: 1.0;"/><polygon fill="#A80036" points="138.5,81.7507,142.5,72.7507,138.5,76.7507,134.5,72.7507,138.5,81.7507" style="stroke: #A80036; stroke-width: 1.0;"/><text fill="#000000" font-family="sans-serif" font-size="11" lengthAdjust="spacingAndGlyphs" textLength="61" x="139.5" y="59.6348">nextValue()</text><!--link randomNodeOrEdge to #1698--><path d="M138.5,116.3034 C138.5,127.1588 138.5,141.0963 138.5,151.9108 " fill="none" id="randomNodeOrEdge-#1698" style="stroke: #A80036; stroke-width: 1.0;"/><polygon fill="#A80036" points="138.5,156.9417,142.5,147.9417,138.5,151.9417,134.5,147.9417,138.5,156.9417" style="stroke: #A80036; stroke-width: 1.0;"/><text fill="#000000" font-family="sans-serif" font-size="11" lengthAdjust="spacingAndGlyphs" textLength="0" x="137.7313" y="146.5663"/><!--link #1698 to pickRandomNode--><path d="M132.9287,175.5129 C122.8386,187.3084 101.1358,212.6792 85.4886,230.971 " fill="none" id="#1698-pickRandomNode" style="stroke: #A80036; stroke-width: 1.0;"/><polygon fill="#A80036" points="82.05,234.9909,90.9399,230.7518,85.3001,231.1913,84.8606,225.5516,82.05,234.9909" style="stroke: #A80036; stroke-width: 1.0;"/><text fill="#000000" font-family="sans-serif" font-size="11" lengthAdjust="spacingAndGlyphs" textLength="28" x="110.5" y="212.6348">Node</text><!--link #1698 to pickRandomEdge--><path d="M144.0713,175.5129 C154.1614,187.3084 175.8642,212.6792 191.5114,230.971 " fill="none" id="#1698-pickRandomEdge" style="stroke: #A80036; stroke-width: 1.0;"/><polygon fill="#A80036" points="194.95,234.9909,192.1394,225.5516,191.6999,231.1913,186.0601,230.7518,194.95,234.9909" style="stroke: #A80036; stroke-width: 1.0;"/><text fill="#000000" font-family="sans-serif" font-size="11" lengthAdjust="spacingAndGlyphs" textLength="26" x="176.5" y="212.6348">Edge</text><!--link pickRandomEdge to end--><path d="M191.3314,269.1593 C177.9744,281.7741 160.2362,298.5269 148.8419,309.2882 " fill="none" id="pickRandomEdge-end" style="stroke: #A80036; stroke-width: 1.0;"/><polygon fill="#A80036" points="144.9509,312.963,154.2405,309.6915,148.586,309.5299,148.7476,303.8754,144.9509,312.963" style="stroke: #A80036; stroke-width: 1.0;"/><!--link pickRandomNode to end--><path d="M85.164,269.1593 C98.1498,281.7741 115.3954,298.5269 126.4731,309.2882 " fill="none" id="pickRandomNode-end" style="stroke: #A80036; stroke-width: 1.0;"/><polygon fill="#A80036" points="130.2561,312.963,126.5878,303.8228,126.6697,309.4791,121.0135,309.561,130.2561,312.963" style="stroke: #A80036; stroke-width: 1.0;"/><!--
@startuml
(*)  - -> [nextValue()] "randomNodeOrEdge"
if ""
- -> [Node] "pickRandomNode"
else
- -> [Edge] "pickRandomEdge"

- ->(*)
"pickRandomNode" - -> (*)
@enduml

PlantUML version 1.2018.01(Sun Jan 28 19:08:22 CET 2018)
(GPL source distribution)
Java Runtime: OpenJDK Runtime Environment
JVM: OpenJDK 64-Bit Server VM
Java Version: 1.8.0_152-release-1136-b20
Operating System: Mac OS X
OS Version: 10.13.4
Default Encoding: UTF-8
Language: en
Country: DE
--></g></svg>